{
.appVersion = "3414";
classes = (
{
automatic = 1;

glyphs = (
{
color = 3;
glyphname = A;
layers = (
{
anchors = (
{
name = bottom;
position = "{234, 0}";
},
{
name = ogonek;
position = "{411, 0}";
},
{
name = top;
position = "{234, 810}";
}
);
layerId = "FCD7E481-103E-4A6C-AD70-01DA443B2AD0";
paths = (
{
closed = 1;
nodes = (
"86 0 LINE",
"129 224 LINE",
"339 224 LINE",
"381 0 LINE",
"436 0 LINE",
"265 810 LINE",
"202 810 LINE",
"32 0 LINE"
);
},
{
closed = 1;
nodes = (
"234 744 LINE",
"332 264 LINE",
"137 264 LINE"
);
}
);
width = 468;
},
{
associatedMasterId = "FCD7E481-103E-4A6C-AD70-01DA443B2AD0";
layerId = "D4C96C0E-1BDB-4B18-A31E-E5FE65809F59";
name = b;
width = 458;
},
{
anchors = (
{
name = bottom;
position = "{246, 0}";
},
{
name = ogonek;
position = "{430, 0}";
},
{
name = top;
position = "{246, 810}";
}
);
layerId = "8AC5A1D3-32A8-4416-86FC-94176A419B8F";
paths = (
{
closed = 1;
nodes = (
"125 0 LINE",
"164 204 LINE",
"329 204 LINE",
"366 0 LINE",
"473 0 LINE",
"300 810 LINE",
"191 810 LINE",
"19 0 LINE"
);
},
{
closed = 1;
nodes = (
"246 650 LINE",
"314 285 LINE",
"179 285 LINE"
);
}
);
width = 492;
},
{
anchors = (
{
name = bottom;
position = "{275, 0}";
},
{
name = ogonek;
position = "{454, 0}";
},
{
name = top;
position = "{276, 810}";
}
);
layerId = "F66B25F0-8957-42F3-9BF7-6C5DDCB0258B";
paths = (
{
closed = 1;
nodes = (
"190 0 LINE",
"218 171 LINE",
"337 171 LINE",
"364 0 LINE",
"529 0 LINE",
"378 810 LINE",
"174 810 LINE",
"21 0 LINE"
);
},
{
closed = 1;
nodes = (
"277 594 LINE",
"320 278 LINE",
"234 278 LINE"
);
}
);
width = 551;
}
);
leftKerningGroup = A;
rightKerningGroup = A;
unicode = 0041;
userData = {
com.typemytype.robofont.layerData = {
b = {
anchors = (
);
components = (
);
contours = (
);
lib = {
};
name = A;
unicodes = (
);
width = 939;
};
};
};
},
{
glyphname = AE;
layers = (
{
anchors = (
{
name = bottom;
position = "{315, 0}";
},
{
name = top;
position = "{343, 810}";
}
);
layerId = "FCD7E481-103E-4A6C-AD70-01DA443B2AD0";
paths = (
{
closed = 1;
nodes = (
"49 0 LINE",
"132 224 LINE",
"315 224 LINE",
"315 0 LINE",
"596 0 LINE",
"596 47 LINE",
"372 47 LINE",
"372 401 LINE",
"532 401 LINE",
"532 445 LINE",
"372 445 LINE",
"372 762 LINE",
"596 762 LINE",
"596 810 LINE",
"299 810 LINE",
"-15 0 LINE"
);
},
{
closed = 1;
nodes = (
"314 727 LINE",
"314 268 LINE",
"148 268 LINE"
);
}
);
width = 629;
},
{
anchors = (
{
name = bottom;
position = "{318, 0}";
},
{
name = top;
position = "{346, 810}";
}
);
layerId = "8AC5A1D3-32A8-4416-86FC-94176A419B8F";
paths = (
{
closed = 1;
nodes = (
"57 0 LINE",
"143 205 LINE",
"292 205 LINE",
"292 0 LINE",
"605 0 LINE",
"605 82 LINE",
"400 82 LINE",
"400 379 LINE",
"547 379 LINE",
"547 460 LINE",
"400 460 LINE",
"400 728 LINE",
"605 728 LINE",
"605 810 LINE",
"290 810 LINE",
"-51 0 LINE"
);
},
{
closed = 1;
nodes = (
"292 605 LINE",
"292 286 LINE",
"173 286 LINE"
);
}
);
width = 635;
},
{
anchors = (
{
name = bottom;
position = "{354, 0}";
},
{
name = top;
position = "{442, 810}";
}
);
layerId = "F66B25F0-8957-42F3-9BF7-6C5DDCB0258B";
paths = (
{
closed = 1;
nodes = (
"166 0 LINE",
"235 173 LINE",
"366 173 LINE",
"366 0 LINE",
"689 0 LINE",
"689 122 LINE",
"519 122 LINE",
"519 362 LINE",
"639 362 LINE",
"639 488 LINE",
"519 488 LINE",
"519 688 LINE",
"689 688 LINE",
"689 810 LINE",
"340 810 LINE",
"-13 0 LINE"
);
},
{
closed = 1;
nodes = (
"366 545 LINE",
"366 286 LINE",
"271 286 LINE"
);
}
);
width = 708;
}
);
leftKerningGroup = AE;
rightKerningGroup = AE;
unicode = 00C6;
},
{
color = 3;
glyphname = B;
layers = (
{
anchors = (
{
name = bottom;
position = "{244, 0}";
},
{
name = top;
position = "{244, 810}";
}
);
layerId = "FCD7E481-103E-4A6C-AD70-01DA443B2AD0";
paths = (
{
closed = 1;
nodes = (
"266 0 LINE SMOOTH",
"422 0 OFFCURVE",
"447 114 OFFCURVE",
"447 236 CURVE SMOOTH",
"447 308 OFFCURVE",
"428 409 OFFCURVE",
"334 437 CURVE",
"413 456 OFFCURVE",
"429 543 OFFCURVE",
"429 608 CURVE SMOOTH",
"429 720 OFFCURVE",
"391 810 OFFCURVE",
"242 810 CURVE SMOOTH",
"75 810 LINE",
"75 0 LINE"
);
},
{
closed = 1;
nodes = (
"129 412 LINE",
"267 412 LINE SMOOTH",
"364 412 OFFCURVE",
"394 332 OFFCURVE",
"394 235 CURVE SMOOTH",
"394 104 OFFCURVE",
"366 43 OFFCURVE",
"259 43 CURVE SMOOTH",
"129 43 LINE"
);
},
{
closed = 1;
nodes = (
"129 766 LINE",
"229 766 LINE SMOOTH",
"356 766 OFFCURVE",
"378 698 OFFCURVE",
"378 608 CURVE SMOOTH",
"378 524 OFFCURVE",
"355 455 OFFCURVE",
"266 455 CURVE SMOOTH",
"129 455 LINE"
);
}
);
width = 488;
},
{
associatedMasterId = "FCD7E481-103E-4A6C-AD70-01DA443B2AD0";
layerId = "E8310E47-FD66-4677-A33B-45C3AA4121D0";
name = b;
width = 611;
},
{
anchors = (
{
name = bottom;
position = "{262, 0}";
},
{
name = top;
position = "{262, 810}";
}
);
layerId = "8AC5A1D3-32A8-4416-86FC-94176A419B8F";
paths = (
{
closed = 1;
nodes = (
"279 0 LINE SMOOTH",
"424 0 OFFCURVE",
"487 91 OFFCURVE",
"487 231 CURVE SMOOTH",
"487 346 OFFCURVE",
"446 413 OFFCURVE",
"349 436 CURVE",
"428 447 OFFCURVE",
"465 507 OFFCURVE",
"465 607 CURVE SMOOTH",
"465 746 OFFCURVE",
"395 810 OFFCURVE",
"249 810 CURVE SMOOTH",
"63 810 LINE",
"63 0 LINE"
);
},
{
closed = 1;
nodes = (
"176 386 LINE",
"243 386 LINE SMOOTH",
"342 386 OFFCURVE",
"379 332 OFFCURVE",
"379 231 CURVE SMOOTH",
"379 126 OFFCURVE",
"353 81 OFFCURVE",
"252 81 CURVE SMOOTH",
"176 81 LINE"
);
},
{
closed = 1;
nodes = (
"176 726 LINE",
"203 726 LINE SMOOTH",
"318 726 OFFCURVE",
"367 718 OFFCURVE",
"367 607 CURVE SMOOTH",
"367 511 OFFCURVE",
"338 472 OFFCURVE",
"243 472 CURVE SMOOTH",
"176 472 LINE"
);
}
);
width = 524;
},
{
anchors = (
{
name = bottom;
position = "{295, 0}";
},
{
name = top;
position = "{295, 810}";
}
);
layerId = "F66B25F0-8957-42F3-9BF7-6C5DDCB0258B";
paths = (
{
closed = 1;
nodes = (
"309 0 LINE SMOOTH",
"465 0 OFFCURVE",
"554 72 OFFCURVE",
"554 240 CURVE SMOOTH",
"554 355 OFFCURVE",
"504 423 OFFCURVE",
"410 435 CURVE",
"484 449 OFFCURVE",
"529 500 OFFCURVE",
"529 598 CURVE SMOOTH",
"529 778 OFFCURVE",
"410 810 OFFCURVE",
"271 810 CURVE SMOOTH",
"60 810 LINE",
"60 0 LINE"
);
},
{
closed = 1;
nodes = (
"239 368 LINE",
"276 368 LINE SMOOTH",
"354 368 OFFCURVE",
"381 334 OFFCURVE",
"381 243 CURVE SMOOTH",
"381 165 OFFCURVE",
"356 125 OFFCURVE",
"277 125 CURVE SMOOTH",
"239 125 LINE"
);
},
{
closed = 1;
nodes = (
"239 690 LINE",
"270 690 LINE SMOOTH",
"337 690 OFFCURVE",
"372 657 OFFCURVE",
"372 593 CURVE SMOOTH",
"372 525 OFFCURVE",
"355 486 OFFCURVE",
"274 486 CURVE SMOOTH",
"239 486 LINE"
);
}
);
width = 588;
}
);
leftKerningGroup = H;
rightKerningGroup = B;
unicode = 0042;
userData = {
com.fontlab.hintData = {
hhints = (
{
position = 0;
width = 287;
},
{
position = 742;
width = 262;
},
{
position = 1388;
width = 270;
}
);
vhints = (
{
position = 745;
width = 360;
},
{
position = 761;
width = 398;
}
);
};
com.typemytype.robofont.layerData = {
b = {
anchors = (
);
components = (
);
contours = (
);
lib = {
};
name = B;
unicodes = (
);
width = 1251.12708;
};
};
};
},
{
color = 3;
glyphname = C;
layers = (
{
anchors = (
{
name = bottom;
position = "{245, 0}";
},
{
name = top;
position = "{245, 810}";
}
);
layerId = "FCD7E481-103E-4A6C-AD70-01DA443B2AD0";
paths = (
{
closed = 1;
nodes = (
"401 -11 OFFCURVE",
"440 88 OFFCURVE",
"440 227 CURVE SMOOTH",
"440 267 LINE",
"388 267 LINE",
"388 218 LINE SMOOTH",
"388 107 OFFCURVE",
"363 34 OFFCURVE",
"255 34 CURVE SMOOTH",
"143 34 OFFCURVE",
"113 105 OFFCURVE",
"113 225 CURVE SMOOTH",
"113 583 LINE SMOOTH",
"113 697 OFFCURVE",
"138 774 OFFCURVE",
"255 774 CURVE SMOOTH",
"361 774 OFFCURVE",
"388 706 OFFCURVE",
"388 591 CURVE SMOOTH",
"388 550 LINE",
"440 550 LINE",
"440 591 LINE SMOOTH",
"440 729 OFFCURVE",
"396 819 OFFCURVE",
"255 819 CURVE SMOOTH",
"100 819 OFFCURVE",
"58 716 OFFCURVE",
"58 577 CURVE SMOOTH",
"58 233 LINE SMOOTH",
"58 98 OFFCURVE",
"95 -11 OFFCURVE",
"255 -11 CURVE SMOOTH"
);
}
);
width = 489;
},
{
associatedMasterId = "FCD7E481-103E-4A6C-AD70-01DA443B2AD0";
layerId = "314F922A-EAB9-4FAA-A6A3-AA6B58EEB1E3";
name = b;
width = 579;
},
{
anchors = (
{
name = bottom;
position = "{258, 0}";
},
{
name = top;
position = "{258, 810}";
}
);
layerId = "8AC5A1D3-32A8-4416-86FC-94176A419B8F";
paths = (
{
closed = 1;
nodes = (
"425 -9 OFFCURVE",
"470 92 OFFCURVE",
"470 241 CURVE SMOOTH",
"470 301 LINE",
"363 301 LINE",
"363 241 LINE SMOOTH",
"363 145 OFFCURVE",
"358 80 OFFCURVE",
"267 80 CURVE SMOOTH",
"189 80 OFFCURVE",
"162 120 OFFCURVE",
"162 242 CURVE SMOOTH",
"162 563 LINE SMOOTH",
"162 663 OFFCURVE",
"171 729 OFFCURVE",
"267 729 CURVE SMOOTH",
"361 729 OFFCURVE",
"363 667 OFFCURVE",
"363 577 CURVE SMOOTH",
"363 520 LINE",
"470 520 LINE",
"470 584 LINE SMOOTH",
"470 730 OFFCURVE",
"417 817 OFFCURVE",
"266 817 CURVE SMOOTH",
"94 817 OFFCURVE",
"48 710 OFFCURVE",
"48 546 CURVE SMOOTH",
"48 260 LINE SMOOTH",
"48 109 OFFCURVE",
"94 -9 OFFCURVE",
"266 -9 CURVE SMOOTH"
);
}
);
width = 515;
},
{
anchors = (
{
name = bottom;
position = "{282, 0}";
},
{
name = top;
position = "{290, 810}";
}
);
layerId = "F66B25F0-8957-42F3-9BF7-6C5DDCB0258B";
paths = (
{
closed = 1;
nodes = (
"473 -12 OFFCURVE",
"525 91 OFFCURVE",
"525 229 CURVE SMOOTH",
"525 299 LINE",
"350 299 LINE",
"350 214 LINE SMOOTH",
"350 165 OFFCURVE",
"348 115 OFFCURVE",
"292 115 CURVE SMOOTH",
"239 115 OFFCURVE",
"230 159 OFFCURVE",
"230 214 CURVE SMOOTH",
"230 595 LINE SMOOTH",
"230 644 OFFCURVE",
"235 695 OFFCURVE",
"292 695 CURVE SMOOTH",
"349 695 OFFCURVE",
"350 645 OFFCURVE",
"350 598 CURVE SMOOTH",
"350 517 LINE",
"525 517 LINE",
"525 587 LINE SMOOTH",
"525 725 OFFCURVE",
"471 821 OFFCURVE",
"292 821 CURVE SMOOTH",
"107 821 OFFCURVE",
"49 718 OFFCURVE",
"49 550 CURVE SMOOTH",
"49 258 LINE SMOOTH",
"49 94 OFFCURVE",
"107 -12 OFFCURVE",
"292 -12 CURVE SMOOTH"
);
}
);
width = 563;
}
);
leftKerningGroup = O;
rightKerningGroup = C;
unicode = 0043;
userData = {
com.fontlab.hintData = {
hhints = (
{
position = -26;
width = 284;
},
{
position = 1400;
width = 284;
}
);
vhints = (
{
position = 78;
width = 420;
},
{
position = 686;
width = 406;
}
);
};
com.typemytype.robofont.layerData = {
b = {
anchors = (
);
components = (
);
contours = (
);
lib = {
};
name = C;
unicodes = (
);
width = 1186;
};
};
};
},
{
color = 3;
glyphname = D;
layers = (
{
anchors = (
{
name = bottom;
position = "{259, 0}";
},
{
name = center;
position = "{259, 405}";
},
{
name = top;
position = "{259, 810}";
}
);
layerId = "FCD7E481-103E-4A6C-AD70-01DA443B2AD0";
paths = (
{
closed = 1;
nodes = (
"257 0 LINE SMOOTH",
"414 0 OFFCURVE",
"459 102 OFFCURVE",
"459 241 CURVE SMOOTH",
"459 577 LINE SMOOTH",
"459 707 OFFCURVE",
"413 810 OFFCURVE",
"252 810 CURVE SMOOTH",
"75 810 LINE",
"75 0 LINE"
);
},
{
closed = 1;
nodes = (
"129 766 LINE",
"252 766 LINE SMOOTH",
"376 766 OFFCURVE",
"404 691 OFFCURVE",
"404 573 CURVE SMOOTH",
"404 247 LINE SMOOTH",
"404 137 OFFCURVE",
"385 43 OFFCURVE",
"254 43 CURVE SMOOTH",
"129 43 LINE"
);
}
);
width = 517;
},
{
associatedMasterId = "FCD7E481-103E-4A6C-AD70-01DA443B2AD0";
layerId = "9ED8E04F-913D-4218-B628-E7214A9A4D38";
name = b;
width = 605;
},
{
anchors = (
{
name = bottom;
position = "{264, 0}";
},
{
name = center;
position = "{264, 405}";
},
{
name = top;
position = "{264, 810}";
}
);
layerId = "8AC5A1D3-32A8-4416-86FC-94176A419B8F";
paths = (
{
closed = 1;
nodes = (
"248 0 LINE SMOOTH",
"418 0 OFFCURVE",
"479 93 OFFCURVE",
"479 265 CURVE SMOOTH",
"479 563 LINE SMOOTH",
"479 727 OFFCURVE",
"419 810 OFFCURVE",
"239 810 CURVE SMOOTH",
"63 810 LINE",
"63 0 LINE"
);
},
{
closed = 1;
nodes = (
"176 726 LINE",
"237 726 LINE SMOOTH",
"353 726 OFFCURVE",
"365 674 OFFCURVE",
"365 549 CURVE SMOOTH",
"365 286 LINE SMOOTH",
"365 155 OFFCURVE",
"363 81 OFFCURVE",
"240 81 CURVE SMOOTH",
"176 81 LINE"
);
}
);
width = 527;
},
{
anchors = (
{
name = bottom;
position = "{293, 0}";
},
{
name = center;
position = "{293, 405}";
},
{
name = top;
position = "{293, 810}";
}
);
layerId = "F66B25F0-8957-42F3-9BF7-6C5DDCB0258B";
paths = (
{
closed = 1;
nodes = (
"267 0 LINE SMOOTH",
"476 0 OFFCURVE",
"537 78 OFFCURVE",
"537 260 CURVE SMOOTH",
"537 554 LINE SMOOTH",
"537 734 OFFCURVE",
"476 810 OFFCURVE",
"265 810 CURVE SMOOTH",
"60 810 LINE",
"60 0 LINE"
);
},
{
closed = 1;
nodes = (
"239 685 LINE",
"266 685 LINE SMOOTH",
"345 685 OFFCURVE",
"353 656 OFFCURVE",
"353 585 CURVE SMOOTH",
"353 232 LINE SMOOTH",
"353 159 OFFCURVE",
"348 124 OFFCURVE",
"267 124 CURVE SMOOTH",
"239 124 LINE"
);
}
);
width = 586;
}
);
leftKerningGroup = H;
rightKerningGroup = O;
unicode = 0044;
userData = {
com.fontlab.hintData = {
hhints = (
{
position = 0;
width = 284;
},
{
position = 1374;
width = 284;
}
);
vhints = (
{
position = 694;
width = 424;
}
);
};
com.typemytype.robofont.layerData = {
b = {
anchors = (
);
components = (
);
contours = (
);
lib = {
};
name = D;
unicodes = (
);
width = 1240;
};
};
};
},
{
glyphname = Dcroat;
layers = (
{
layerId = "FCD7E481-103E-4A6C-AD70-01DA443B2AD0";
paths = (
{
closed = 1;
nodes = (
"258 0 LINE SMOOTH",
"414 0 OFFCURVE",
"460 102 OFFCURVE",
"460 241 CURVE SMOOTH",
"460 577 LINE SMOOTH",
"460 707 OFFCURVE",
"414 810 OFFCURVE",
"253 810 CURVE SMOOTH",
"75 810 LINE",
"75 445 LINE",
"10 445 LINE",
"10 408 LINE",
"75 408 LINE",
"75 0 LINE"
);
},
{
closed = 1;
nodes = (
"130 408 LINE",
"224 408 LINE",
"224 445 LINE",
"130 445 LINE",
"130 766 LINE",
"252 766 LINE SMOOTH",
"377 766 OFFCURVE",
"405 691 OFFCURVE",
"405 573 CURVE SMOOTH",
"405 247 LINE SMOOTH",
"405 137 OFFCURVE",
"386 43 OFFCURVE",
"255 43 CURVE SMOOTH",
"130 43 LINE"
);
}
);
width = 518;
},
{
associatedMasterId = "FCD7E481-103E-4A6C-AD70-01DA443B2AD0";
layerId = "DA1B3E1C-5EFC-4502-B0DD-04EB39C7C163";
name = b;
width = 611;
},
{
layerId = "8AC5A1D3-32A8-4416-86FC-94176A419B8F";
paths = (
{
closed = 1;
nodes = (
"250 0 LINE SMOOTH",
"420 0 OFFCURVE",
"480 93 OFFCURVE",
"480 265 CURVE SMOOTH",
"480 563 LINE SMOOTH",
"480 727 OFFCURVE",
"422 810 OFFCURVE",
"242 810 CURVE SMOOTH",
"65 810 LINE",
"65 453 LINE",
"17 453 LINE",
"17 388 LINE",
"65 388 LINE",
"65 0 LINE"
);
},
{
closed = 1;
nodes = (
"179 388 LINE",
"239 388 LINE",
"239 453 LINE",
"179 453 LINE",
"179 726 LINE",
"239 726 LINE SMOOTH",
"355 726 OFFCURVE",
"367 674 OFFCURVE",
"367 549 CURVE SMOOTH",
"367 286 LINE SMOOTH",
"367 155 OFFCURVE",
"365 81 OFFCURVE",
"242 81 CURVE SMOOTH",
"179 81 LINE"
);
}
);
width = 529;
},
{
layerId = "F66B25F0-8957-42F3-9BF7-6C5DDCB0258B";
paths = (
{
closed = 1;
nodes = (
"272 0 LINE SMOOTH",
"480 0 OFFCURVE",
"541 78 OFFCURVE",
"541 260 CURVE SMOOTH",
"541 554 LINE SMOOTH",
"541 734 OFFCURVE",
"482 810 OFFCURVE",
"269 810 CURVE SMOOTH",
"64 810 LINE",
"64 456 LINE",
"13 456 LINE",
"13 374 LINE",
"64 374 LINE",
"64 0 LINE"
);
},
{
closed = 1;
nodes = (
"239 374 LINE",
"288 374 LINE",
"288 456 LINE",
"239 456 LINE",
"239 685 LINE",
"275 685 LINE SMOOTH",
"353 685 OFFCURVE",
"362 656 OFFCURVE",
"362 585 CURVE SMOOTH",
"362 232 LINE SMOOTH",
"362 159 OFFCURVE",
"356 124 OFFCURVE",
"275 124 CURVE SMOOTH",
"239 124 LINE"
);
}
);
width = 589;
}
);
leftKerningGroup = Eth;
rightKerningGroup = O;
unicode = 0110;
userData = {
com.fontlab.hintData = {
hhints = (
{
position = 0;
width = 284;
},
{
position = 1374;
width = 284;
}
);
vhints = (
{
position = 694;
width = 424;
}
);
};
com.typemytype.robofont.layerData = {
b = {
anchors = (
);
components = (
);
contours = (
);
lib = {
};
name = Dcroat;
unicodes = (
);
width = 1251;
};
};
};
},
{
glyphname = Eth;
layers = (
{
layerId = "FCD7E481-103E-4A6C-AD70-01DA443B2AD0";
paths = (
{
closed = 1;
nodes = (
"257 0 LINE SMOOTH",
"414 0 OFFCURVE",
"459 102 OFFCURVE",
"459 241 CURVE SMOOTH",
"459 577 LINE SMOOTH",
"459 707 OFFCURVE",
"413 810 OFFCURVE",
"252 810 CURVE SMOOTH",
"75 810 LINE",
"75 445 LINE",
"9 445 LINE",
"9 408 LINE",
"75 408 LINE",
"75 0 LINE"
);
},
{
closed = 1;
nodes = (
"129 408 LINE",
"223 408 LINE",
"223 445 LINE",
"129 445 LINE",
"129 766 LINE",
"252 766 LINE SMOOTH",
"376 766 OFFCURVE",
"404 691 OFFCURVE",
"404 573 CURVE SMOOTH",
"404 247 LINE SMOOTH",
"404 137 OFFCURVE",
"385 43 OFFCURVE",
"254 43 CURVE SMOOTH",
"129 43 LINE"
);
}
);
width = 561;
},
{
layerId = "8AC5A1D3-32A8-4416-86FC-94176A419B8F";
paths = (
{
closed = 1;
nodes = (
"248 0 LINE SMOOTH",
"418 0 OFFCURVE",
"479 93 OFFCURVE",
"479 265 CURVE SMOOTH",
"479 563 LINE SMOOTH",
"479 727 OFFCURVE",
"419 810 OFFCURVE",
"239 810 CURVE SMOOTH",
"63 810 LINE",
"63 453 LINE",
"14 453 LINE",
"14 388 LINE",
"63 388 LINE",
"63 0 LINE"
);
},
{
closed = 1;
nodes = (
"176 388 LINE",
"237 388 LINE",
"237 453 LINE",
"176 453 LINE",
"176 726 LINE",
"237 726 LINE SMOOTH",
"353 726 OFFCURVE",
"365 674 OFFCURVE",
"365 549 CURVE SMOOTH",
"365 286 LINE SMOOTH",
"365 155 OFFCURVE",
"363 81 OFFCURVE",
"240 81 CURVE SMOOTH",
"176 81 LINE"
);
}
);
width = 518;
},
{
layerId = "F66B25F0-8957-42F3-9BF7-6C5DDCB0258B";
paths = (
{
closed = 1;
nodes = (
"259 0 LINE SMOOTH",
"468 0 OFFCURVE",
"529 78 OFFCURVE",
"529 260 CURVE SMOOTH",
"529 554 LINE SMOOTH",
"529 734 OFFCURVE",
"469 810 OFFCURVE",
"257 810 CURVE SMOOTH",
"51 810 LINE",
"51 459 LINE",
"7 459 LINE",
"7 370 LINE",
"51 370 LINE",
"51 0 LINE"
);
},
{
closed = 1;
nodes = (
"231 370 LINE",
"272 370 LINE",
"272 459 LINE",
"231 459 LINE",
"231 685 LINE",
"259 685 LINE SMOOTH",
"338 685 OFFCURVE",
"346 656 OFFCURVE",
"346 585 CURVE SMOOTH",
"346 232 LINE SMOOTH",
"346 159 OFFCURVE",
"340 124 OFFCURVE",
"259 124 CURVE SMOOTH",
"231 124 LINE"
);
}
);
width = 563;
}
);
leftKerningGroup = Eth;
rightKerningGroup = O;
unicode = 00D0;
userData = {
com.fontlab.hintData = {
hhints = (
{
position = 0;
width = 284;
},
{
position = 1374;
width = 284;
}
);
vhints = (
{
position = 694;
width = 424;
}
);
};
};
},
{
color = 3;
glyphname = E;
layers = (
{
anchors = (
{
name = bottom;
position = "{216, 0}";
},
{
name = ogonek;
position = "{314, 0}";
},
{
name = top;
position = "{217, 810}";
},
{
name = topleft;
position = "{20, 810}";
}
);
layerId = "FCD7E481-103E-4A6C-AD70-01DA443B2AD0";
paths = (
{
closed = 1;
nodes = (
"357 0 LINE",
"357 43 LINE",
"129 43 LINE",
"129 399 LINE",
"314 399 LINE",
"314 441 LINE",
"129 441 LINE",
"129 766 LINE",
"354 766 LINE",
"354 810 LINE",
"74 810 LINE",
"74 0 LINE"
);
}
);
width = 393;
},
{
associatedMasterId = "FCD7E481-103E-4A6C-AD70-01DA443B2AD0";
layerId = "5880548F-8115-4AD8-B1A9-2C993EC503FD";
name = b;
width = 461;
},
{
anchors = (
{
name = bottom;
position = "{204, 0}";
},
{
name = ogonek;
position = "{316, 0}";
},
{
name = top;
position = "{224, 810}";
},
{
name = topleft;
position = "{20, 810}";
}
);
layerId = "8AC5A1D3-32A8-4416-86FC-94176A419B8F";
paths = (
{
closed = 1;
nodes = (
"379 0 LINE",
"379 81 LINE",
"176 81 LINE",
"176 378 LINE",
"339 378 LINE",
"339 458 LINE",
"176 458 LINE",
"176 726 LINE",
"377 726 LINE",
"377 810 LINE",
"63 810 LINE",
"63 0 LINE"
);
}
);
width = 407;
},
{
anchors = (
{
name = bottom;
position = "{224, 0}";
},
{
name = ogonek;
position = "{314, 0}";
},
{
name = top;
position = "{244, 810}";
},
{
name = topleft;
position = "{20, 810}";
}
);
layerId = "F66B25F0-8957-42F3-9BF7-6C5DDCB0258B";
paths = (
{
closed = 1;
nodes = (
"426 0 LINE",
"426 121 LINE",
"239 121 LINE",
"239 363 LINE",
"380 363 LINE",
"380 487 LINE",
"239 487 LINE",
"239 688 LINE",
"424 688 LINE",
"424 810 LINE",
"60 810 LINE",
"60 0 LINE"
);
}
);
width = 447;
}
);
leftKerningGroup = H;
rightKerningGroup = E;
unicode = 0045;
userData = {
com.typemytype.robofont.layerData = {
b = {
anchors = (
);
components = (
);
contours = (
);
lib = {
};
name = E;
unicodes = (
);
width = 945;
};
};
};
},
{
glyphname = Schwa;
layers = (
{
layerId = "FCD7E481-103E-4A6C-AD70-01DA443B2AD0";
paths = (
{
closed = 1;
nodes = (
"412 -11 OFFCURVE",
"454 91 OFFCURVE",
"454 229 CURVE SMOOTH",
"454 584 LINE SMOOTH",
"454 721 OFFCURVE",
"407 819 OFFCURVE",
"254 819 CURVE SMOOTH",
"100 819 OFFCURVE",
"54 722 OFFCURVE",
"54 584 CURVE SMOOTH",
"54 514 LINE",
"109 514 LINE",
"109 592 LINE SMOOTH",
"109 702 OFFCURVE",
"137 774 OFFCURVE",
"254 774 CURVE SMOOTH",
"371 774 OFFCURVE",
"399 702 OFFCURVE",
"399 592 CURVE SMOOTH",
"399 421 LINE",
"54 421 LINE",
"54 230 LINE SMOOTH",
"54 92 OFFCURVE",
"96 -11 OFFCURVE",
"254 -11 CURVE SMOOTH"
);
},
{
closed = 1;
nodes = (
"137 34 OFFCURVE",
"109 108 OFFCURVE",
"109 218 CURVE SMOOTH",
"109 376 LINE",
"399 376 LINE",
"399 218 LINE",
"399 108 OFFCURVE",
"370 34 OFFCURVE",
"254 34 CURVE SMOOTH"
);
}
);
width = 512;
},
{
layerId = "8AC5A1D3-32A8-4416-86FC-94176A419B8F";
paths = (
{
closed = 1;
nodes = (
"429 -9 OFFCURVE",
"487 94 OFFCURVE",
"487 253 CURVE SMOOTH",
"487 561 LINE SMOOTH",
"487 720 OFFCURVE",
"429 817 OFFCURVE",
"266 817 CURVE SMOOTH",
"100 817 OFFCURVE",
"44 721 OFFCURVE",
"44 561 CURVE SMOOTH",
"44 514 LINE",
"158 514 LINE",
"158 584 LINE SMOOTH",
"158 674 OFFCURVE",
"175 729 OFFCURVE",
"266 729 CURVE SMOOTH",
"357 729 OFFCURVE",
"373 674 OFFCURVE",
"373 584 CURVE SMOOTH",
"373 421 LINE",
"44 421 LINE",
"44 254 LINE SMOOTH",
"44 93 OFFCURVE",
"101 -9 OFFCURVE",
"266 -9 CURVE SMOOTH"
);
},
{
closed = 1;
nodes = (
"175 80 OFFCURVE",
"158 139 OFFCURVE",
"158 229 CURVE SMOOTH",
"158 332 LINE",
"373 332 LINE",
"373 229 LINE SMOOTH",
"373 139 OFFCURVE",
"356 80 OFFCURVE",
"266 80 CURVE SMOOTH"
);
}
);
width = 535;
},
{
layerId = "F66B25F0-8957-42F3-9BF7-6C5DDCB0258B";
paths = (
{
closed = 1;
nodes = (
"440 -12 OFFCURVE",
"533 82 OFFCURVE",
"533 244 CURVE SMOOTH",
"533 564 LINE SMOOTH",
"533 726 OFFCURVE",
"440 821 OFFCURVE",
"291 821 CURVE SMOOTH",
"136 821 OFFCURVE",
"45 737 OFFCURVE",
"45 574 CURVE SMOOTH",
"45 491 LINE",
"228 491 LINE",
"228 606 LINE SMOOTH",
"228 672 OFFCURVE",
"249 695 OFFCURVE",
"288 695 CURVE SMOOTH",
"329 695 OFFCURVE",
"350 672 OFFCURVE",
"350 606 CURVE SMOOTH",
"350 421 LINE",
"45 421 LINE",
"45 236 LINE SMOOTH",
"45 74 OFFCURVE",
"134 -12 OFFCURVE",
"291 -12 CURVE SMOOTH"
);
},
{
closed = 1;
nodes = (
"248 114 OFFCURVE",
"228 140 OFFCURVE",
"228 202 CURVE SMOOTH",
"228 313 LINE",
"350 313 LINE",
"350 202 LINE SMOOTH",
"350 140 OFFCURVE",
"330 114 OFFCURVE",
"289 114 CURVE SMOOTH"
);
}
);
width = 582;
}
);
leftKerningGroup = O;
leftMetricsKey = "=O-4";
rightKerningGroup = O;
rightMetricsKey = O;
unicode = 018F;
},
{
color = 4;
glyphname = Ezh;
layers = (
{
anchors = (
{
name = bottom;
position = "{239, 0}";
},
{
name = top;
position = "{239, 810}";
}
);
guideLines = (
{
angle = 90;
position = "{422, 356}";
}
);
layerId = "FCD7E481-103E-4A6C-AD70-01DA443B2AD0";
paths = (
{
closed = 1;
nodes = (
"372 -11 OFFCURVE",
"418 83 OFFCURVE",
"418 242 CURVE SMOOTH",
"418 423 OFFCURVE",
"340 496 OFFCURVE",
"197 496 CURVE SMOOTH",
"126 496 LINE",
"144 460 LINE",
"378 776 LINE",
"378 810 LINE",
"79 810 LINE",
"79 767 LINE",
"314 767 LINE",
"114 497 LINE",
"114 454 LINE",
"194 454 LINE SMOOTH",
"308 454 OFFCURVE",
"363 387 OFFCURVE",
"363 234 CURVE SMOOTH",
"363 133 OFFCURVE",
"350 32 OFFCURVE",
"231 32 CURVE SMOOTH",
"145 32 OFFCURVE",
"110 84 OFFCURVE",
"110 179 CURVE SMOOTH",
"110 181 OFFCURVE",
"110 192 OFFCURVE",
"110 195 CURVE",
"60 195 LINE",
"60 180 LINE",
"60 63 OFFCURVE",
"108 -11 OFFCURVE",
"232 -11 CURVE SMOOTH"
);
}
);
width = 477;
},
{
anchors = (
{
name = bottom;
position = "{228, 0}";
},
{
name = top;
position = "{228, 810}";
}
);
layerId = "8AC5A1D3-32A8-4416-86FC-94176A419B8F";
paths = (
{
closed = 1;
nodes = (
"371 -9 OFFCURVE",
"428 85 OFFCURVE",
"428 229 CURVE SMOOTH",
"428 393 OFFCURVE",
"382 497 OFFCURVE",
"222 497 CURVE SMOOTH",
"157 497 LINE",
"176 460 LINE",
"392 761 LINE",
"392 810 LINE",
"47 810 LINE",
"47 729 LINE",
"256 729 LINE",
"85 499 LINE",
"85 433 LINE",
"170 433 LINE SMOOTH",
"286 433 OFFCURVE",
"321 368 OFFCURVE",
"321 229 CURVE SMOOTH",
"321 140 OFFCURVE",
"305 80 OFFCURVE",
"228 80 CURVE SMOOTH",
"154 80 OFFCURVE",
"136 135 OFFCURVE",
"136 208 CURVE SMOOTH",
"136 214 OFFCURVE",
"136 220 OFFCURVE",
"136 226 CURVE",
"30 226 LINE",
"30 199 LINE SMOOTH",
"30 70 OFFCURVE",
"96 -9 OFFCURVE",
"228 -9 CURVE SMOOTH"
);
}
);
width = 456;
},
{
associatedMasterId = "FCD7E481-103E-4A6C-AD70-01DA443B2AD0";
guideLines = (
{
angle = 90;
position = "{405, 356}";
}
);
layerId = "7A18B8B3-38EA-446C-BB7F-D9884F46335C";
name = "Oct 23 17, 15:12";
paths = (
{
closed = 1;
nodes = (
"361 776 LINE",
"361 810 LINE",
"68 810 LINE",
"68 767 LINE",
"297 767 LINE",
"89 477 LINE",
"89 434 LINE",
"185 434 LINE SMOOTH",
"311 434 OFFCURVE",
"346 357 OFFCURVE",
"346 215 CURVE SMOOTH",
"346 71 OFFCURVE",
"288 32 OFFCURVE",
"213 32 CURVE SMOOTH",
"128 32 OFFCURVE",
"93 85 OFFCURVE",
"93 179 CURVE SMOOTH",
"93 181 OFFCURVE",
"93 193 OFFCURVE",
"93 195 CURVE",
"43 195 LINE",
"43 180 LINE SMOOTH",
"43 65 OFFCURVE",
"91 -11 OFFCURVE",
"213 -11 CURVE SMOOTH",
"348 -11 OFFCURVE",
"401 83 OFFCURVE",
"401 216 CURVE SMOOTH",
"401 387 OFFCURVE",
"354 473 OFFCURVE",
"182 473 CURVE SMOOTH",
"148 473 LINE",
"148 477 LINE"
);
}
);
width = 440;
},
{
anchors = (
{
name = bottom;
position = "{252, 0}";
},
{
name = top;
position = "{252, 810}";
}
);
layerId = "F66B25F0-8957-42F3-9BF7-6C5DDCB0258B";
paths = (
{
closed = 1;
nodes = (
"408 -15 OFFCURVE",
"468 90 OFFCURVE",
"468 238 CURVE SMOOTH",
"468 386 OFFCURVE",
"429 493 OFFCURVE",
"266 493 CURVE SMOOTH",
"202 493 LINE",
"241 455 LINE",
"435 709 LINE",
"435 810 LINE",
"47 810 LINE",
"47 689 LINE",
"255 689 LINE",
"103 484 LINE",
"103 395 LINE",
"190 395 LINE SMOOTH",
"285 395 OFFCURVE",
"303 351 OFFCURVE",
"303 234 CURVE SMOOTH",
"303 150 OFFCURVE",
"294 112 OFFCURVE",
"249 112 CURVE SMOOTH",
"204 112 OFFCURVE",
"190 147 OFFCURVE",
"190 239 CURVE SMOOTH",
"190 250 OFFCURVE",
"190 266 OFFCURVE",
"190 268 CURVE",
"23 268 LINE",
"23 239 LINE SMOOTH",
"23 88 OFFCURVE",
"77 -15 OFFCURVE",
"247 -15 CURVE SMOOTH"
);
}
);
width = 503;
}
);
leftKerningGroup = Ezh;
rightKerningGroup = Ezh;
unicode = 01B7;
},
{
color = 3;
glyphname = F;
layers = (
{
anchors = (
{
name = bottom;
position = "{192, 0}";
},
{
name = top;
position = "{192, 810}";
}
);
layerId = "FCD7E481-103E-4A6C-AD70-01DA443B2AD0";
paths = (
{
closed = 1;
nodes = (
"129 0 LINE",
"129 399 LINE",
"323 399 LINE",
"323 441 LINE",
"129 441 LINE",
"129 767 LINE",
"354 767 LINE",
"354 810 LINE",
"75 810 LINE",
"75 0 LINE"
);
}
);
width = 383;
},
{
associatedMasterId = "FCD7E481-103E-4A6C-AD70-01DA443B2AD0";
layerId = "26B32ED9-B6AC-4014-B12F-A3339D548441";
name = b;
width = 380;
},
{
anchors = (
{
name = bottom;
position = "{196, 0}";
},
{
name = top;
position = "{196, 810}";
}
);
layerId = "8AC5A1D3-32A8-4416-86FC-94176A419B8F";
paths = (
{
closed = 1;
nodes = (
"176 0 LINE",
"176 379 LINE",
"331 379 LINE",
"331 459 LINE",
"176 459 LINE",
"176 729 LINE",
"376 729 LINE",
"376 810 LINE",
"63 810 LINE",
"63 0 LINE"
);
}
);
width = 391;
},
{
anchors = (
{
name = bottom;
position = "{218, 0}";
},
{
name = top;
position = "{218, 810}";
}
);
layerId = "F66B25F0-8957-42F3-9BF7-6C5DDCB0258B";
paths = (
{
closed = 1;
nodes = (
"239 0 LINE",
"239 360 LINE",
"388 360 LINE",
"388 485 LINE",
"239 485 LINE",
"239 689 LINE",
"410 689 LINE",
"410 810 LINE",
"60 810 LINE",
"60 0 LINE"
);
}
);
width = 434;
}
);
leftKerningGroup = H;
rightKerningGroup = F;
unicode = 0046;
userData = {
com.typemytype.robofont.layerData = {
b = {
anchors = (
);
components = (
);
contours = (
);
lib = {
};
name = F;
unicodes = (
);
width = 778;
};
};
};
},
{
color = 3;
glyphname = G;
layers = (
{
anchors = (
{
name = bottom;
position = "{255, 0}";
},
{
name = top;
position = "{255, 810}";
}
);
layerId = "FCD7E481-103E-4A6C-AD70-01DA443B2AD0";
paths = (
{
closed = 1;
nodes = (
"337 -11 OFFCURVE",
"380 28 OFFCURVE",
"400 91 CURVE",
"408 0 LINE",
"443 0 LINE",
"443 386 LINE",
"263 386 LINE",
"263 344 LINE",
"392 344 LINE",
"392 225 LINE SMOOTH",
"392 106 OFFCURVE",
"363 34 OFFCURVE",
"256 34 CURVE SMOOTH",
"141 34 OFFCURVE",
"113 110 OFFCURVE",
"113 228 CURVE SMOOTH",
"113 581 LINE SMOOTH",
"113 694 OFFCURVE",
"136 774 OFFCURVE",
"255 774 CURVE SMOOTH",
"360 774 OFFCURVE",
"390 710 OFFCURVE",
"390 591 CURVE SMOOTH",
"390 560 LINE",
"442 560 LINE",
"442 588 LINE SMOOTH",
"442 730 OFFCURVE",
"396 819 OFFCURVE",
"255 819 CURVE SMOOTH",
"99 819 OFFCURVE",
"58 721 OFFCURVE",
"58 579 CURVE SMOOTH",
"58 235 LINE SMOOTH",
"58 92 OFFCURVE",
"98 -11 OFFCURVE",
"252 -11 CURVE SMOOTH"
);
}
);
width = 510;
},
{
associatedMasterId = "FCD7E481-103E-4A6C-AD70-01DA443B2AD0";
layerId = "C7927AC4-7471-46D4-9EEF-87B1BAAF863C";
name = b;
width = 598;
},
{
anchors = (
{
name = bottom;
position = "{268, 0}";
},
{
name = top;
position = "{268, 810}";
}
);
layerId = "8AC5A1D3-32A8-4416-86FC-94176A419B8F";
paths = (
{
closed = 1;
nodes = (
"336 -10 OFFCURVE",
"378 33 OFFCURVE",
"400 93 CURVE",
"411 0 LINE",
"482 0 LINE",
"482 401 LINE",
"277 401 LINE",
"277 321 LINE",
"380 321 LINE",
"380 265 LINE SMOOTH",
"380 143 OFFCURVE",
"358 80 OFFCURVE",
"270 80 CURVE SMOOTH",
"181 80 OFFCURVE",
"161 137 OFFCURVE",
"161 254 CURVE SMOOTH",
"161 554 LINE SMOOTH",
"161 654 OFFCURVE",
"167 729 OFFCURVE",
"267 729 CURVE SMOOTH",
"358 729 OFFCURVE",
"370 681 OFFCURVE",
"370 576 CURVE SMOOTH",
"370 551 LINE",
"476 551 LINE",
"476 581 LINE SMOOTH",
"476 741 OFFCURVE",
"417 817 OFFCURVE",
"265 817 CURVE SMOOTH",
"94 817 OFFCURVE",
"48 714 OFFCURVE",
"48 537 CURVE SMOOTH",
"48 266 LINE SMOOTH",
"48 91 OFFCURVE",
"104 -10 OFFCURVE",
"256 -10 CURVE SMOOTH"
);
}
);
width = 535;
},
{
anchors = (
{
name = bottom;
position = "{291, 0}";
},
{
name = top;
position = "{291, 810}";
}
);
layerId = "F66B25F0-8957-42F3-9BF7-6C5DDCB0258B";
paths = (
{
closed = 1;
nodes = (
"342 -12 OFFCURVE",
"380 21 OFFCURVE",
"402 67 CURVE",
"412 0 LINE",
"530 0 LINE",
"530 420 LINE",
"296 420 LINE",
"296 315 LINE",
"369 315 LINE",
"369 220 LINE SMOOTH",
"369 165 OFFCURVE",
"354 115 OFFCURVE",
"299 115 CURVE SMOOTH",
"244 115 OFFCURVE",
"232 163 OFFCURVE",
"232 218 CURVE SMOOTH",
"232 593 LINE SMOOTH",
"232 642 OFFCURVE",
"236 695 OFFCURVE",
"294 695 CURVE SMOOTH",
"350 695 OFFCURVE",
"354 649 OFFCURVE",
"354 598 CURVE SMOOTH",
"354 532 LINE",
"529 532 LINE",
"529 584 LINE SMOOTH",
"529 725 OFFCURVE",
"471 821 OFFCURVE",
"292 821 CURVE SMOOTH",
"107 821 OFFCURVE",
"49 712 OFFCURVE",
"49 540 CURVE SMOOTH",
"49 268 LINE SMOOTH",
"49 101 OFFCURVE",
"103 -12 OFFCURVE",
"271 -12 CURVE SMOOTH"
);
}
);
width = 582;
}
);
leftKerningGroup = O;
rightKerningGroup = G;
unicode = 0047;
userData = {
com.fontlab.hintData = {
hhints = (
{
position = -26;
width = 285;
},
{
position = 1400;
width = 284;
}
);
vhints = (
{
position = 80;
width = 424;
}
);
};
com.typemytype.robofont.layerData = {
b = {
anchors = (
);
components = (
);
contours = (
);
lib = {
};
name = G;
unicodes = (
);
width = 1224;
};
};
};
},
{
color = 4;
glyphname = Gstroke;
layers = (
{
components = (
{
name = G;
}
);
layerId = "FCD7E481-103E-4A6C-AD70-01DA443B2AD0";
paths = (
{
closed = 1;
nodes = (
"520 229 LINE",
"520 266 LINE",
"306 266 LINE",
"306 229 LINE"
);
}
);
width = 510;
},
{
components = (
{
name = G;
}
);
layerId = "8AC5A1D3-32A8-4416-86FC-94176A419B8F";
paths = (
{
closed = 1;
nodes = (
"537 208 LINE",
"537 273 LINE",
"314 273 LINE",
"314 208 LINE"
);
}
);
width = 535;
},
{
components = (
{
alignment = -1;
name = G;
}
);
layerId = "F66B25F0-8957-42F3-9BF7-6C5DDCB0258B";
paths = (
{
closed = 1;
nodes = (
"586 189 LINE",
"586 278 LINE",
"321 278 LINE",
"321 189 LINE"
);
}
);
width = 582;
}
);
leftKerningGroup = O;
unicode = 01E4;
},
{
color = 3;
glyphname = H;
layers = (
{
anchors = (
{
name = bottom;
position = "{271, 0}";
},
{
name = center;
position = "{271, 405}";
},
{
name = top;
position = "{271, 810}";
},
{
name = topleft;
position = "{20, 810}";
}
);
layerId = "FCD7E481-103E-4A6C-AD70-01DA443B2AD0";
paths = (
{
closed = 1;
nodes = (
"129 0 LINE",
"129 403 LINE",
"413 403 LINE",
"413 0 LINE",
"467 0 LINE",
"467 810 LINE",
"413 810 LINE",
"413 445 LINE",
"129 445 LINE",
"129 810 LINE",
"75 810 LINE",
"75 0 LINE"
);
}
);
width = 542;
},
{
associatedMasterId = "FCD7E481-103E-4A6C-AD70-01DA443B2AD0";
layerId = "49018FD0-0B7E-4180-A651-3533F4F1927E";
name = b;
width = 626;
},
{
anchors = (
{
name = bottom;
position = "{281, 0}";
},
{
name = center;
position = "{281, 405}";
},
{
name = top;
position = "{281, 810}";
},
{
name = topleft;
position = "{20, 810}";
}
);
layerId = "8AC5A1D3-32A8-4416-86FC-94176A419B8F";
paths = (
{
closed = 1;
nodes = (
"176 0 LINE",
"176 379 LINE",
"384 379 LINE",
"384 0 LINE",
"497 0 LINE",
"497 810 LINE",
"384 810 LINE",
"384 460 LINE",
"176 460 LINE",
"176 810 LINE",
"63 810 LINE",
"63 0 LINE"
);
}
);
width = 561;
},
{
anchors = (
{
name = bottom;
position = "{305, 0}";
},
{
name = center;
position = "{305, 405}";
},
{
name = top;
position = "{305, 810}";
},
{
name = topleft;
position = "{20, 810}";
}
);
layerId = "F66B25F0-8957-42F3-9BF7-6C5DDCB0258B";
paths = (
{
closed = 1;
nodes = (
"242 0 LINE",
"242 354 LINE",
"368 354 LINE",
"368 0 LINE",
"547 0 LINE",
"547 810 LINE",
"368 810 LINE",
"368 482 LINE",
"242 482 LINE",
"242 810 LINE",
"63 810 LINE",
"63 0 LINE"
);
}
);
width = 610;
}
);
leftKerningGroup = H;
rightKerningGroup = H;
unicode = 0048;
userData = {
com.typemytype.robofont.layerData = {
b = {
anchors = (
);
components = (
);
contours = (
);
lib = {
};
name = H;
unicodes = (
);
width = 1283;
};
};
};
},
{
glyphname = Hbar;
layers = (
{
layerId = "FCD7E481-103E-4A6C-AD70-01DA443B2AD0";
paths = (
{
closed = 1;
nodes = (
"129 0 LINE",
"129 403 LINE",
"413 403 LINE",
"413 0 LINE",
"467 0 LINE",
"467 640 LINE",
"505 640 LINE",
"505 672 LINE",
"467 672 LINE",
"467 810 LINE",
"413 810 LINE",
"413 672 LINE",
"129 672 LINE",
"129 810 LINE",
"74 810 LINE",
"74 672 LINE",
"37 672 LINE",
"37 640 LINE",
"74 640 LINE",
"74 0 LINE"
);
},
{
closed = 1;
nodes = (
"129 640 LINE",
"413 640 LINE",
"413 445 LINE",
"129 445 LINE"
);
}
);
width = 542;
},
{
layerId = "8AC5A1D3-32A8-4416-86FC-94176A419B8F";
paths = (
{
closed = 1;
nodes = (
"176 0 LINE",
"176 379 LINE",
"384 379 LINE",
"384 0 LINE",
"497 0 LINE",
"497 619 LINE",
"544 619 LINE",
"544 677 LINE",
"497 677 LINE",
"497 810 LINE",
"384 810 LINE",
"384 677 LINE",
"176 677 LINE",
"176 810 LINE",
"63 810 LINE",
"63 677 LINE",
"16 677 LINE",
"16 619 LINE",
"63 619 LINE",
"63 0 LINE"
);
},
{
closed = 1;
nodes = (
"176 619 LINE",
"384 619 LINE",
"384 460 LINE",
"176 460 LINE"
);
}
);
width = 561;
},
{
layerId = "F66B25F0-8957-42F3-9BF7-6C5DDCB0258B";
paths = (
{
closed = 1;
nodes = (
"217 0 LINE",
"217 354 LINE",
"334 354 LINE",
"334 0 LINE",
"514 0 LINE",
"514 615 LINE",
"553 615 LINE",
"553 671 LINE",
"514 671 LINE",
"514 810 LINE",
"334 810 LINE",
"334 671 LINE",
"217 671 LINE",
"217 810 LINE",
"38 810 LINE",
"38 671 LINE",
"-13 671 LINE",
"-13 615 LINE",
"38 615 LINE",
"38 0 LINE"
);
},
{
closed = 1;
nodes = (
"217 615 LINE",
"334 615 LINE",
"334 482 LINE",
"217 482 LINE"
);
}
);
width = 540;
}
);
leftKerningGroup = H;
rightKerningGroup = H;
unicode = 0126;
},
{
color = 3;
glyphname = I;
layers = (
{
anchors = (
{
name = bottom;
position = "{103, 0}";
},
{
name = ogonek;
position = "{103, 0}";
},
{
name = top;
position = "{103, 810}";
},
{
name = topleft;
position = "{20, 810}";
}
);
layerId = "FCD7E481-103E-4A6C-AD70-01DA443B2AD0";
paths = (
{
closed = 1;
nodes = (
"130 0 LINE",
"130 810 LINE",
"76 810 LINE",
"76 0 LINE"
);
}
);
width = 206;
},
{
associatedMasterId = "FCD7E481-103E-4A6C-AD70-01DA443B2AD0";
layerId = "5B0FD03C-CFC8-4625-A0D4-FE6530BB40DE";
name = b;
width = 318;
},
{
anchors = (
{
name = bottom;
position = "{124, 0}";
},
{
name = ogonek;
position = "{125, 0}";
},
{
name = top;
position = "{124, 810}";
},
{
name = topleft;
position = "{20, 810}";
}
);
layerId = "8AC5A1D3-32A8-4416-86FC-94176A419B8F";
paths = (
{
closed = 1;
nodes = (
"180 0 LINE",
"180 810 LINE",
"69 810 LINE",
"69 0 LINE"
);
}
);
width = 248;
},
{
anchors = (
{
name = bottom;
position = "{150, 0}";
},
{
name = ogonek;
position = "{151, 0}";
},
{
name = top;
position = "{150, 810}";
},
{
name = topleft;
position = "{20, 810}";
}
);
layerId = "F66B25F0-8957-42F3-9BF7-6C5DDCB0258B";
paths = (
{
closed = 1;
nodes = (
"240 0 LINE",
"240 810 LINE",
"61 810 LINE",
"61 0 LINE"
);
}
);
width = 301;
}
);
leftKerningGroup = H;
rightKerningGroup = H;
unicode = 0049;
userData = {
com.fontlab.hintData = {
vhints = (
{
position = 98;
width = 412;
}
);
};
com.typemytype.robofont.layerData = {
b = {
anchors = (
);
components = (
);
contours = (
);
lib = {
};
name = I;
unicodes = (
);
width = 652;
};
};
};
},
{
color = 3;
glyphname = J;
layers = (
{
anchors = (
{
name = bottom;
position = "{133, 0}";
},
{
name = top;
position = "{163, 810}";
}
);
layerId = "FCD7E481-103E-4A6C-AD70-01DA443B2AD0";
paths = (
{
closed = 1;
nodes = (
"36 -45 LINE SMOOTH",
"172 -45 OFFCURVE",
"190 14 OFFCURVE",
"190 144 CURVE",
"190 810 LINE",
"136 810 LINE",
"136 150 LINE SMOOTH",
"136 21 OFFCURVE",
"127 -2 OFFCURVE",
"8 -2 CURVE",
"8 -45 LINE"
);
}
);
width = 265;
},
{
associatedMasterId = "FCD7E481-103E-4A6C-AD70-01DA443B2AD0";
layerId = "B0ECBEBD-C117-4654-8BA6-93B6FB3AD684";
name = b;
width = 365;
},
{
anchors = (
{
name = bottom;
position = "{151, 0}";
},
{
name = top;
position = "{181, 810}";
}
);
layerId = "8AC5A1D3-32A8-4416-86FC-94176A419B8F";
paths = (
{
closed = 1;
nodes = (
"61 -19 LINE SMOOTH",
"201 -19 OFFCURVE",
"237 44 OFFCURVE",
"237 183 CURVE",
"237 810 LINE",
"125 810 LINE",
"125 185 LINE SMOOTH",
"125 83 OFFCURVE",
"105 62 OFFCURVE",
"7 62 CURVE",
"7 -19 LINE"
);
}
);
width = 301;
},
{
anchors = (
{
name = bottom;
position = "{175, 0}";
},
{
name = top;
position = "{200, 810}";
}
);
layerId = "F66B25F0-8957-42F3-9BF7-6C5DDCB0258B";
paths = (
{
closed = 1;
nodes = (
"100 -21 LINE SMOOTH",
"247 -21 OFFCURVE",
"289 46 OFFCURVE",
"289 178 CURVE",
"289 810 LINE",
"110 810 LINE",
"110 186 LINE SMOOTH",
"110 116 OFFCURVE",
"86 104 OFFCURVE",
"13 104 CURVE",
"13 -21 LINE"
);
}
);
width = 349;
}
);
leftKerningGroup = J;
rightKerningGroup = J;
unicode = 004A;
userData = {
com.fontlab.hintData = {
hhints = (
{
position = -44;
width = 286;
}
);
};
com.typemytype.robofont.layerData = {
b = {
anchors = (
);
components = (
);
contours = (
);
lib = {
};
name = J;
unicodes = (
);
width = 748;
};
};
};
},
{
color = 3;
glyphname = K;
layers = (
{
anchors = (
{
name = bottom;
position = "{230, 0}";
},
{
name = top;
position = "{230, 810}";
}
);
layerId = "FCD7E481-103E-4A6C-AD70-01DA443B2AD0";
paths = (
{
closed = 1;
nodes = (
"129 0 LINE",
"129 265 LINE",
"214 420 LINE",
"405 0 LINE",
"459 0 LINE",
"247 467 LINE",
"418 810 LINE",
"364 810 LINE",
"129 355 LINE",
"129 810 LINE",
"74 810 LINE",
"74 0 LINE"
);
}
);
width = 460;
},
{
associatedMasterId = "FCD7E481-103E-4A6C-AD70-01DA443B2AD0";
layerId = "EFF2075F-277F-4738-BAFC-9B42DD9C419F";
name = b;
width = 446;
},
{
anchors = (
{
name = bottom;
position = "{248, 0}";
},
{
name = top;
position = "{248, 810}";
}
);
layerId = "8AC5A1D3-32A8-4416-86FC-94176A419B8F";
paths = (
{
closed = 1;
nodes = (
"176 0 LINE",
"176 286 LINE",
"228 380 LINE",
"383 0 LINE",
"493 0 LINE",
"307 453 LINE",
"467 810 LINE",
"362 810 LINE",
"176 428 LINE",
"176 810 LINE",
"63 810 LINE",
"63 0 LINE"
);
}
);
width = 495;
},
{
associatedMasterId = "FCD7E481-103E-4A6C-AD70-01DA443B2AD0";
layerId = "FA5A85F9-A814-4544-8BB4-FBA4EC5BA921";
name = "Light Aug 24 16, 01:22";
paths = (
{
closed = 1;
nodes = (
"129 0 LINE",
"129 290 LINE",
"208 434 LINE",
"405 0 LINE",
"459 0 LINE",
"247 467 LINE",
"418 810 LINE",
"364 810 LINE",
"129 355 LINE",
"129 810 LINE",
"74 810 LINE",
"74 0 LINE"
);
}
);
width = 460;
},
{
associatedMasterId = "8AC5A1D3-32A8-4416-86FC-94176A419B8F";
layerId = "79D58721-6542-4166-9853-57BA608892C8";
name = "Regular Aug 24 16, 01:23";
paths = (
{
closed = 1;
nodes = (
"176 0 LINE",
"176 319 LINE",
"220 401 LINE",
"383 0 LINE",
"493 0 LINE",
"307 453 LINE",
"467 810 LINE",
"362 810 LINE",
"176 428 LINE",
"176 810 LINE",
"63 810 LINE",
"63 0 LINE"
);
}
);
visible = 1;
width = 495;
},
{
anchors = (
{
name = bottom;
position = "{284, 0}";
},
{
name = top;
position = "{297, 810}";
}
);
layerId = "F66B25F0-8957-42F3-9BF7-6C5DDCB0258B";
paths = (
{
closed = 1;
nodes = (
"239 0 LINE",
"239 326 LINE",
"258 358 LINE",
"375 0 LINE",
"557 0 LINE",
"400 444 LINE",
"550 810 LINE",
"375 810 LINE",
"239 479 LINE",
"239 810 LINE",
"60 810 LINE",
"60 0 LINE"
);
}
);
width = 567;
}
);
leftKerningGroup = H;
rightKerningGroup = K;
unicode = 004B;
userData = {
com.typemytype.robofont.layerData = {
b = {
anchors = (
);
components = (
);
contours = (
);
lib = {
};
name = K;
unicodes = (
);
width = 913;
};
};
};
},
{
color = 3;
glyphname = L;
layers = (
{
anchors = (
{
name = bottom;
position = "{225, 0}";
},
{
name = center;
position = "{187, 405}";
},
{
name = top;
position = "{102, 810}";
},
{
name = topright;
position = "{309, 810}";
}
);
layerId = "FCD7E481-103E-4A6C-AD70-01DA443B2AD0";
paths = (
{
closed = 1;
nodes = (
"374 0 LINE",
"374 43 LINE",
"129 43 LINE",
"129 810 LINE",
"75 810 LINE",
"75 0 LINE"
);
}
);
width = 373;
},
{
associatedMasterId = "FCD7E481-103E-4A6C-AD70-01DA443B2AD0";
layerId = "C49B4B0A-361F-4E8C-A1A0-F28311E98BC7";
name = b;
width = 458;
},
{
anchors = (
{
name = bottom;
position = "{223, 0}";
},
{
name = center;
position = "{199, 405}";
},
{
name = top;
position = "{120, 810}";
},
{
name = topright;
position = "{274, 810}";
}
);
layerId = "8AC5A1D3-32A8-4416-86FC-94176A419B8F";
paths = (
{
closed = 1;
nodes = (
"383 0 LINE",
"383 81 LINE",
"176 81 LINE",
"176 810 LINE",
"63 810 LINE",
"63 0 LINE"
);
}
);
width = 397;
},
{
anchors = (
{
name = bottom;
position = "{242, 0}";
},
{
name = center;
position = "{342, 428}";
},
{
name = top;
position = "{149, 810}";
},
{
name = topright;
position = "{300, 810}";
}
);
layerId = "F66B25F0-8957-42F3-9BF7-6C5DDCB0258B";
paths = (
{
closed = 1;
nodes = (
"425 0 LINE",
"425 121 LINE",
"239 121 LINE",
"239 810 LINE",
"60 810 LINE",
"60 0 LINE"
);
}
);
width = 443;
}
);
leftKerningGroup = H;
rightKerningGroup = L;
unicode = 004C;
userData = {
com.typemytype.robofont.layerData = {
b = {
anchors = (
);
components = (
);
contours = (
);
lib = {
};
name = L;
unicodes = (
);
width = 939;
};
};
};
},
{
glyphname = Lslash;
layers = (
{
layerId = "FCD7E481-103E-4A6C-AD70-01DA443B2AD0";
paths = (
{
closed = 1;
nodes = (
"374 0 LINE",
"374 43 LINE",
"129 43 LINE",
"129 437 LINE",
"251 500 LINE",
"251 544 LINE",
"129 481 LINE",
"129 810 LINE",
"75 810 LINE",
"75 452 LINE",
"3 415 LINE",
"3 371 LINE",
"75 408 LINE",
"75 0 LINE"
);
}
);
width = 373;
},
{
layerId = "8AC5A1D3-32A8-4416-86FC-94176A419B8F";
paths = (
{
closed = 1;
nodes = (
"383 0 LINE",
"383 81 LINE",
"176 81 LINE",
"176 440 LINE",
"281 498 LINE",
"281 584 LINE",
"176 527 LINE",
"176 810 LINE",
"63 810 LINE",
"63 464 LINE",
"-6 426 LINE",
"-6 339 LINE",
"63 377 LINE",
"63 0 LINE"
);
}
);
width = 397;
},
{
layerId = "F66B25F0-8957-42F3-9BF7-6C5DDCB0258B";
paths = (
{
closed = 1;
nodes = (
"433 0 LINE",
"433 121 LINE",
"247 121 LINE",
"247 442 LINE",
"345 489 LINE",
"345 587 LINE",
"247 540 LINE",
"247 810 LINE",
"68 810 LINE",
"68 456 LINE",
"8 428 LINE",
"8 330 LINE",
"68 358 LINE",
"68 0 LINE"
);
}
);
width = 450;
}
);
leftKerningGroup = H;
rightKerningGroup = L;
unicode = 0141;
},
{
color = 3;
glyphname = M;
layers = (
{
anchors = (
{
name = bottom;
position = "{316, 0}";
},
{
name = top;
position = "{316, 810}";
}
);
layerId = "FCD7E481-103E-4A6C-AD70-01DA443B2AD0";
paths = (
{
closed = 1;
nodes = (
"112 0 LINE",
"132 678 LINE",
"295 0 LINE",
"335 0 LINE",
"500 679 LINE",
"520 0 LINE",
"567 0 LINE",
"544 810 LINE",
"488 810 LINE",
"314 79 LINE",
"143 810 LINE",
"89 810 LINE",
"65 0 LINE"
);
}
);
width = 632;
},
{
associatedMasterId = "FCD7E481-103E-4A6C-AD70-01DA443B2AD0";
layerId = "F56E9E7E-B089-4E9D-8496-F5F48B94A076";
name = b;
width = 719;
},
{
anchors = (
{
name = bottom;
position = "{330, 0}";
},
{
name = top;
position = "{330, 810}";
}
);
layerId = "8AC5A1D3-32A8-4416-86FC-94176A419B8F";
paths = (
{
closed = 1;
nodes = (
"153 0 LINE",
"162 588 LINE",
"298 0 LINE",
"362 0 LINE",
"499 588 LINE",
"508 0 LINE",
"599 0 LINE",
"584 810 LINE",
"474 810 LINE",
"330 153 LINE",
"187 810 LINE",
"76 810 LINE",
"61 0 LINE"
);
}
);
width = 660;
},
{
anchors = (
{
name = bottom;
position = "{352, 0}";
},
{
name = top;
position = "{352, 810}";
}
);
layerId = "F66B25F0-8957-42F3-9BF7-6C5DDCB0258B";
paths = (
{
closed = 1;
nodes = (
"186 0 LINE",
"198 543 LINE",
"298 0 LINE",
"411 0 LINE",
"505 539 LINE",
"520 0 LINE",
"647 0 LINE",
"633 810 LINE",
"448 810 LINE",
"352 339 LINE",
"263 810 LINE",
"71 810 LINE",
"57 0 LINE"
);
}
);
width = 704;
}
);
leftKerningGroup = M;
rightKerningGroup = M;
unicode = 004D;
userData = {
com.fontlab.hintData = {
vhints = (
{
position = 86;
width = 290;
},
{
position = 113;
width = 291;
},
{
position = 1012;
width = 291;
},
{
position = 1044;
width = 286;
}
);
};
com.typemytype.robofont.layerData = {
b = {
anchors = (
);
components = (
);
contours = (
);
lib = {
};
name = M;
unicodes = (
);
width = 1472;
};
};
};
},
{
color = 3;
glyphname = N;
layers = (
{
anchors = (
{
name = bottom;
position = "{258, 0}";
},
{
name = top;
position = "{258, 810}";
}
);
layerId = "FCD7E481-103E-4A6C-AD70-01DA443B2AD0";
paths = (
{
closed = 1;
nodes = (
"123 0 LINE",
"123 685 LINE",
"398 0 LINE",
"441 0 LINE",
"441 810 LINE",
"393 810 LINE",
"393 126 LINE",
"118 810 LINE",
"75 810 LINE",
"75 0 LINE"
);
}
);
width = 515;
},
{
associatedMasterId = "FCD7E481-103E-4A6C-AD70-01DA443B2AD0";
layerId = "4CD37C39-0352-4B22-A848-33A8B2948BB6";
name = b;
width = 571;
},
{
anchors = (
{
name = bottom;
position = "{264, 0}";
},
{
name = top;
position = "{264, 810}";
}
);
layerId = "8AC5A1D3-32A8-4416-86FC-94176A419B8F";
paths = (
{
closed = 1;
nodes = (
"159 0 LINE",
"159 553 LINE",
"392 0 LINE",
"464 0 LINE",
"464 810 LINE",
"370 810 LINE",
"370 272 LINE",
"140 810 LINE",
"63 810 LINE",
"63 0 LINE"
);
}
);
width = 528;
},
{
anchors = (
{
name = bottom;
position = "{280, 0}";
},
{
name = top;
position = "{280, 810}";
}
);
layerId = "F66B25F0-8957-42F3-9BF7-6C5DDCB0258B";
paths = (
{
closed = 1;
nodes = (
"213 0 LINE",
"213 420 LINE",
"379 0 LINE",
"500 0 LINE",
"500 810 LINE",
"352 810 LINE",
"352 420 LINE",
"186 810 LINE",
"60 810 LINE",
"60 0 LINE"
);
}
);
width = 561;
}
);
leftKerningGroup = H;
rightKerningGroup = H;
unicode = 004E;
userData = {
com.typemytype.robofont.layerData = {
b = {
anchors = (
);
components = (
);
contours = (
);
lib = {
};
name = N;
unicodes = (
);
width = 1170;
};
};
};
},
{
glyphname = Eng;
layers = (
{
layerId = "FCD7E481-103E-4A6C-AD70-01DA443B2AD0";
paths = (
{
closed = 1;
nodes = (
"316 -141 LINE SMOOTH",
"417 -141 OFFCURVE",
"441 -92 OFFCURVE",
"441 0 CURVE SMOOTH",
"441 810 LINE",
"395 810 LINE",
"395 126 LINE",
"118 810 LINE",
"75 810 LINE",
"75 0 LINE",
"121 0 LINE",
"121 685 LINE",
"393 12 LINE",
"393 -14 LINE SMOOTH",
"393 -81 OFFCURVE",
"375 -103 OFFCURVE",
"286 -103 CURVE",
"286 -141 LINE"
);
}
);
width = 538;
},
{
associatedMasterId = "FCD7E481-103E-4A6C-AD70-01DA443B2AD0";
layerId = "C3B7BAF3-4B51-4BEB-98BD-563683A19381";
name = b;
width = 581;
},
{
layerId = "8AC5A1D3-32A8-4416-86FC-94176A419B8F";
paths = (
{
closed = 1;
nodes = (
"305 -183 LINE SMOOTH",
"434 -183 OFFCURVE",
"464 -120 OFFCURVE",
"464 0 CURVE SMOOTH",
"464 810 LINE",
"376 810 LINE",
"376 272 LINE",
"140 810 LINE",
"63 810 LINE",
"63 0 LINE",
"153 0 LINE",
"153 553 LINE",
"375 42 LINE",
"375 9 LINE SMOOTH",
"375 -78 OFFCURVE",
"368 -106 OFFCURVE",
"267 -106 CURVE",
"267 -183 LINE"
);
}
);
width = 531;
},
{
layerId = "F66B25F0-8957-42F3-9BF7-6C5DDCB0258B";
paths = (
{
closed = 1;
nodes = (
"319 -209 LINE SMOOTH",
"469 -209 OFFCURVE",
"504 -137 OFFCURVE",
"504 0 CURVE SMOOTH",
"504 810 LINE",
"357 810 LINE",
"357 420 LINE",
"190 810 LINE",
"63 810 LINE",
"63 0 LINE",
"215 0 LINE",
"215 420 LINE",
"365 76 LINE",
"365 -15 LINE SMOOTH",
"365 -81 OFFCURVE",
"335 -102 OFFCURVE",
"245 -102 CURVE",
"245 -209 LINE"
);
}
);
width = 568;
}
);
leftKerningGroup = H;
rightKerningGroup = J;
unicode = 014A;
userData = {
com.fontlab.hintData = {
hhints = (
{
position = -444;
width = 237;
}
);
};
com.typemytype.robofont.layerData = {
b = {
anchors = (
);
components = (
);
contours = (
);
lib = {
};
name = Eng;
unicodes = (
);
width = 1190;
};
};
};
},
{
color = 3;
glyphname = O;
layers = (
{
anchors = (
{
name = bottom;
position = "{258, 0}";
},
{
name = center;
position = "{258, 405}";
},
{
name = ogonek;
position = "{302, 0}";
},
{
name = top;
position = "{258, 810}";
},
{
name = topleft;
position = "{20, 810}";
},
{
name = topright;
position = "{333, 810}";
}
);
guideLines = (
{
angle = 90;
position = "{458, 721}";
}
);
layerId = "FCD7E481-103E-4A6C-AD70-01DA443B2AD0";
paths = (
{
closed = 1;
nodes = (
"416 -11 OFFCURVE",
"458 91 OFFCURVE",
"458 229 CURVE SMOOTH",
"458 584 LINE SMOOTH",
"458 721 OFFCURVE",
"411 819 OFFCURVE",
"258 819 CURVE SMOOTH",
"104 819 OFFCURVE",
"58 722 OFFCURVE",
"58 584 CURVE SMOOTH",
"58 230 LINE SMOOTH",
"58 92 OFFCURVE",
"100 -11 OFFCURVE",
"258 -11 CURVE SMOOTH"
);
},
{
closed = 1;
nodes = (
"141 34 OFFCURVE",
"113 108 OFFCURVE",
"113 218 CURVE SMOOTH",
"113 592 LINE SMOOTH",
"113 702 OFFCURVE",
"141 774 OFFCURVE",
"258 774 CURVE SMOOTH",
"375 774 OFFCURVE",
"403 702 OFFCURVE",
"403 592 CURVE SMOOTH",
"403 218 LINE SMOOTH",
"403 108 OFFCURVE",
"374 34 OFFCURVE",
"258 34 CURVE SMOOTH"
);
}
);
width = 516;
},
{
associatedMasterId = "FCD7E481-103E-4A6C-AD70-01DA443B2AD0";
layerId = "B4959A76-FC0C-461F-B1D1-8B95049AEAF7";
name = b;
width = 506;
},
{
anchors = (
{
name = bottom;
position = "{270, 0}";
},
{
name = center;
position = "{270, 405}";
},
{
name = ogonek;
position = "{310, 0}";
},
{
name = top;
position = "{270, 810}";
},
{
name = topleft;
position = "{20, 810}";
},
{
name = topright;
position = "{334, 810}";
}
);
guideLines = (
{
angle = 90;
position = "{491, 720}";
}
);
layerId = "8AC5A1D3-32A8-4416-86FC-94176A419B8F";
paths = (
{
closed = 1;
nodes = (
"433 -9 OFFCURVE",
"491 94 OFFCURVE",
"491 253 CURVE SMOOTH",
"491 561 LINE SMOOTH",
"491 720 OFFCURVE",
"433 817 OFFCURVE",
"270 817 CURVE SMOOTH",
"106 817 OFFCURVE",
"48 721 OFFCURVE",
"48 561 CURVE SMOOTH",
"48 254 LINE SMOOTH",
"48 93 OFFCURVE",
"105 -9 OFFCURVE",
"270 -9 CURVE SMOOTH"
);
},
{
closed = 1;
nodes = (
"179 80 OFFCURVE",
"162 139 OFFCURVE",
"162 229 CURVE SMOOTH",
"162 584 LINE SMOOTH",
"162 674 OFFCURVE",
"179 729 OFFCURVE",
"270 729 CURVE SMOOTH",
"360 729 OFFCURVE",
"377 674 OFFCURVE",
"377 584 CURVE SMOOTH",
"377 229 LINE SMOOTH",
"377 139 OFFCURVE",
"360 80 OFFCURVE",
"270 80 CURVE SMOOTH"
);
}
);
width = 539;
},
{
anchors = (
{
name = bottom;
position = "{293, 0}";
},
{
name = center;
position = "{293, 405}";
},
{
name = ogonek;
position = "{318, 0}";
},
{
name = top;
position = "{293, 810}";
},
{
name = topleft;
position = "{20, 810}";
},
{
name = topright;
position = "{364, 810}";
}
);
layerId = "F66B25F0-8957-42F3-9BF7-6C5DDCB0258B";
paths = (
{
closed = 1;
nodes = (
"475 -12 OFFCURVE",
"537 88 OFFCURVE",
"537 255 CURVE SMOOTH",
"537 556 LINE SMOOTH",
"537 723 OFFCURVE",
"475 821 OFFCURVE",
"292 821 CURVE SMOOTH",
"110 821 OFFCURVE",
"49 723 OFFCURVE",
"49 556 CURVE SMOOTH",
"49 255 LINE SMOOTH",
"49 88 OFFCURVE",
"110 -12 OFFCURVE",
"292 -12 CURVE SMOOTH"
);
},
{
closed = 1;
nodes = (
"236 115 OFFCURVE",
"232 164 OFFCURVE",
"232 210 CURVE SMOOTH",
"232 600 LINE SMOOTH",
"232 648 OFFCURVE",
"239 695 OFFCURVE",
"292 695 CURVE SMOOTH",
"348 695 OFFCURVE",
"354 648 OFFCURVE",
"354 600 CURVE SMOOTH",
"354 210 LINE SMOOTH",
"354 164 OFFCURVE",
"348 115 OFFCURVE",
"292 115 CURVE SMOOTH"
);
}
);
width = 586;
}
);
leftKerningGroup = O;
rightKerningGroup = O;
unicode = 004F;
userData = {
com.fontlab.hintData = {
};
com.typemytype.robofont.layerData = {
b = {
anchors = (
);
components = (
);
contours = (
);
lib = {
};
name = O;
unicodes = (
);
width = 1036;
};
};
hhints = {
};
position = 866;
vhints = {
};
width = 64;
};
},
{
glyphname = Oslash;
layers = (
{
anchors = (
{
name = bottom;
position = "{262, 0}";
},
{
name = top;
position = "{262, 810}";
}
);
components = (
{
name = O;
}
);
layerId = "FCD7E481-103E-4A6C-AD70-01DA443B2AD0";
paths = (
{
closed = 1;
nodes = (
"413 889 LINE",
"388 896 LINE",
"104 -87 LINE",
"129 -95 LINE"
);
}
);
width = 523;
},
{
associatedMasterId = "FCD7E481-103E-4A6C-AD70-01DA443B2AD0";
layerId = "EADDB7A6-053E-4193-A566-E9DE4461B331";
name = b;
width = 516;
},
{
anchors = (
{
name = bottom;
position = "{270, 0}";
},
{
name = top;
position = "{270, 810}";
}
);
components = (
{
name = O;
}
);
layerId = "8AC5A1D3-32A8-4416-86FC-94176A419B8F";
paths = (
{
closed = 1;
nodes = (
"413 870 LINE",
"373 880 LINE",
"121 -62 LINE",
"160 -74 LINE"
);
}
);
width = 540;
},
{
anchors = (
{
name = bottom;
position = "{286, 0}";
},
{
name = top;
position = "{286, 810}";
}
);
components = (
{
alignment = -1;
name = O;
}
);
layerId = "F66B25F0-8957-42F3-9BF7-6C5DDCB0258B";
paths = (
{
closed = 1;
nodes = (
"480 869 LINE",
"440 884 LINE",
"81 -74 LINE",
"120 -90 LINE"
);
}
);
width = 572;
}
);
leftKerningGroup = O;
rightKerningGroup = O;
unicode = 00D8;
userData = {
com.fontlab.hintData = {
hhints = (
{
position = -26;
width = 284;
},
{
position = 1400;
width = 284;
}
);
vhints = (
{
position = 80;
width = 424;
},
{
position = 688;
width = 424;
}
);
};
com.typemytype.robofont.layerData = {
b = {
anchors = (
);
components = (
);
contours = (
);
lib = {
};
name = Oslash;
unicodes = (
);
width = 1056;
};
};
};
},
{
glyphname = OE;
layers = (
{
anchors = (
{
name = bottom;
position = "{310, 0}";
},
{
name = top;
position = "{366, 810}";
}
);
layerId = "FCD7E481-103E-4A6C-AD70-01DA443B2AD0";
paths = (
{
closed = 1;
nodes = (
"590 0 LINE",
"590 45 LINE",
"393 45 LINE",
"393 402 LINE",
"557 402 LINE",
"557 445 LINE",
"393 445 LINE",
"393 765 LINE",
"589 765 LINE",
"589 810 LINE",
"264 810 LINE",
"109 810 OFFCURVE",
"58 714 OFFCURVE",
"58 577 CURVE SMOOTH",
"58 229 LINE SMOOTH",
"58 98 OFFCURVE",
"104 0 OFFCURVE",
"267 0 CURVE SMOOTH"
);
},
{
closed = 1;
nodes = (
"144 46 OFFCURVE",
"112 117 OFFCURVE",
"112 229 CURVE SMOOTH",
"112 574 LINE SMOOTH",
"112 690 OFFCURVE",
"141 765 OFFCURVE",
"267 765 CURVE SMOOTH",
"338 765 LINE",
"338 46 LINE",
"267 46 LINE"
);
}
);
width = 620;
},
{
associatedMasterId = "FCD7E481-103E-4A6C-AD70-01DA443B2AD0";
layerId = "883CEE7D-0B28-4EE0-818D-9E62B936EEC5";
name = b;
width = 729;
},
{
anchors = (
{
name = bottom;
position = "{342, 0}";
},
{
name = top;
position = "{401, 810}";
}
);
layerId = "8AC5A1D3-32A8-4416-86FC-94176A419B8F";
paths = (
{
closed = 1;
nodes = (
"656 0 LINE",
"656 81 LINE",
"457 81 LINE",
"457 378 LINE",
"617 378 LINE",
"617 459 LINE",
"457 459 LINE",
"457 726 LINE",
"654 726 LINE",
"654 810 LINE",
"280 810 LINE",
"110 810 OFFCURVE",
"48 718 OFFCURVE",
"48 546 CURVE SMOOTH",
"48 247 LINE SMOOTH",
"48 82 OFFCURVE",
"107 0 OFFCURVE",
"288 0 CURVE SMOOTH"
);
},
{
closed = 1;
nodes = (
"174 84 OFFCURVE",
"162 136 OFFCURVE",
"162 259 CURVE SMOOTH",
"162 525 LINE SMOOTH",
"162 657 OFFCURVE",
"165 729 OFFCURVE",
"288 729 CURVE SMOOTH",
"344 729 LINE",
"344 84 LINE",
"290 84 LINE"
);
}
);
width = 683;
},
{
anchors = (
{
name = bottom;
position = "{359, 0}";
},
{
name = top;
position = "{434, 810}";
}
);
layerId = "F66B25F0-8957-42F3-9BF7-6C5DDCB0258B";
paths = (
{
closed = 1;
nodes = (
"692 0 LINE",
"692 121 LINE",
"523 121 LINE",
"523 356 LINE",
"647 356 LINE",
"647 481 LINE",
"523 481 LINE",
"523 685 LINE",
"691 685 LINE",
"691 807 LINE",
"293 807 LINE",
"108 807 OFFCURVE",
"49 684 OFFCURVE",
"49 520 CURVE SMOOTH",
"49 278 LINE SMOOTH",
"49 109 OFFCURVE",
"111 0 OFFCURVE",
"295 0 CURVE SMOOTH"
);
},
{
closed = 1;
nodes = (
"233 124 OFFCURVE",
"228 185 OFFCURVE",
"228 244 CURVE SMOOTH",
"228 552 LINE SMOOTH",
"228 612 OFFCURVE",
"231 680 OFFCURVE",
"295 680 CURVE SMOOTH",
"345 680 LINE",
"345 124 LINE",
"295 124 LINE"
);
}
);
width = 718;
}
);
leftKerningGroup = O;
rightKerningGroup = E;
unicode = 0152;
userData = {
com.fontlab.hintData = {
vhints = (
{
position = 80;
width = 412;
}
);
};
com.typemytype.robofont.layerData = {
b = {
anchors = (
);
components = (
);
contours = (
);
lib = {
};
name = OE;
unicodes = (
);
width = 1493;
};
};
};
},
{
color = 3;
glyphname = P;
layers = (
{
anchors = (
{
name = bottom;
position = "{243, 0}";
},
{
name = top;
position = "{243, 810}";
}
);
layerId = "FCD7E481-103E-4A6C-AD70-01DA443B2AD0";
paths = (
{
closed = 1;
nodes = (
"129 0 LINE",
"129 387 LINE",
"266 387 LINE SMOOTH",
"410 387 OFFCURVE",
"453 493 OFFCURVE",
"453 601 CURVE SMOOTH",
"453 721 OFFCURVE",
"411 810 OFFCURVE",
"265 810 CURVE SMOOTH",
"75 810 LINE",
"75 0 LINE"
);
},
{
closed = 1;
nodes = (
"129 768 LINE",
"255 768 LINE SMOOTH",
"358 768 OFFCURVE",
"397 731 OFFCURVE",
"397 601 CURVE SMOOTH",
"397 475 OFFCURVE",
"352 429 OFFCURVE",
"254 429 CURVE SMOOTH",
"129 429 LINE"
);
}
);
width = 485;
},
{
associatedMasterId = "FCD7E481-103E-4A6C-AD70-01DA443B2AD0";
layerId = "6DD606EF-651A-43F8-A6FA-A31BF9FC0228";
name = b;
width = 488;
},
{
anchors = (
{
name = bottom;
position = "{240, 0}";
},
{
name = top;
position = "{240, 810}";
}
);
layerId = "8AC5A1D3-32A8-4416-86FC-94176A419B8F";
paths = (
{
closed = 1;
nodes = (
"176 0 LINE",
"176 377 LINE",
"265 377 LINE SMOOTH",
"397 377 OFFCURVE",
"464 457 OFFCURVE",
"464 586 CURVE SMOOTH",
"464 727 OFFCURVE",
"409 810 OFFCURVE",
"264 810 CURVE SMOOTH",
"63 810 LINE",
"63 0 LINE"
);
},
{
closed = 1;
nodes = (
"176 729 LINE",
"229 729 LINE SMOOTH",
"342 729 OFFCURVE",
"357 700 OFFCURVE",
"357 585 CURVE SMOOTH",
"357 485 OFFCURVE",
"325 458 OFFCURVE",
"228 458 CURVE SMOOTH",
"176 458 LINE"
);
}
);
width = 480;
},
{
anchors = (
{
name = bottom;
position = "{286, 0}";
},
{
name = top;
position = "{286, 810}";
}
);
layerId = "F66B25F0-8957-42F3-9BF7-6C5DDCB0258B";
paths = (
{
closed = 1;
nodes = (
"239 0 LINE",
"239 344 LINE",
"311 344 LINE SMOOTH",
"442 344 OFFCURVE",
"545 388 OFFCURVE",
"545 575 CURVE SMOOTH",
"545 725 OFFCURVE",
"477 810 OFFCURVE",
"332 810 CURVE SMOOTH",
"60 810 LINE",
"60 0 LINE"
);
},
{
closed = 1;
nodes = (
"239 684 LINE",
"298 684 LINE SMOOTH",
"370 684 OFFCURVE",
"377 639 OFFCURVE",
"377 578 CURVE SMOOTH",
"377 504 OFFCURVE",
"365 469 OFFCURVE",
"299 469 CURVE SMOOTH",
"239 469 LINE"
);
}
);
width = 571;
}
);
leftKerningGroup = H;
rightKerningGroup = P;
unicode = 0050;
userData = {
com.fontlab.hintData = {
vhints = (
{
position = 766;
width = 386;
}
);
};
com.typemytype.robofont.layerData = {
b = {
anchors = (
);
components = (
);
contours = (
);
lib = {
};
name = P;
unicodes = (
);
width = 999;
};
};
};
},
{
glyphname = Thorn;
layers = (
{
layerId = "FCD7E481-103E-4A6C-AD70-01DA443B2AD0";
paths = (
{
closed = 1;
nodes = (
"129 0 LINE",
"129 250 LINE",
"276 250 LINE SMOOTH",
"435 250 OFFCURVE",
"472 379 OFFCURVE",
"472 485 CURVE SMOOTH",
"472 602 OFFCURVE",
"424 706 OFFCURVE",
"281 706 CURVE SMOOTH",
"129 706 LINE",
"129 810 LINE",
"75 810 LINE",
"75 0 LINE"
);
},
{
closed = 1;
nodes = (
"129 659 LINE",
"272 659 LINE SMOOTH",
"360 659 OFFCURVE",
"416 610 OFFCURVE",
"416 483 CURVE SMOOTH",
"416 353 OFFCURVE",
"368 298 OFFCURVE",
"268 298 CURVE SMOOTH",
"129 298 LINE"
);
}
);
width = 505;
},
{
layerId = "8AC5A1D3-32A8-4416-86FC-94176A419B8F";
paths = (
{
closed = 1;
nodes = (
"176 0 LINE",
"176 233 LINE",
"274 233 LINE SMOOTH",
"419 233 OFFCURVE",
"486 317 OFFCURVE",
"486 469 CURVE SMOOTH",
"486 611 OFFCURVE",
"428 704 OFFCURVE",
"293 704 CURVE SMOOTH",
"176 704 LINE",
"176 810 LINE",
"63 810 LINE",
"63 0 LINE"
);
},
{
closed = 1;
nodes = (
"176 610 LINE",
"259 610 LINE SMOOTH",
"343 610 OFFCURVE",
"376 573 OFFCURVE",
"376 469 CURVE SMOOTH",
"376 356 OFFCURVE",
"335 324 OFFCURVE",
"246 324 CURVE SMOOTH",
"176 324 LINE"
);
}
);
width = 503;
},
{
layerId = "F66B25F0-8957-42F3-9BF7-6C5DDCB0258B";
paths = (
{
closed = 1;
nodes = (
"231 0 LINE",
"231 234 LINE",
"300 234 LINE SMOOTH",
"468 234 OFFCURVE",
"547 285 OFFCURVE",
"547 477 CURVE SMOOTH",
"547 638 OFFCURVE",
"469 702 OFFCURVE",
"309 702 CURVE SMOOTH",
"231 702 LINE",
"231 810 LINE",
"51 810 LINE",
"51 0 LINE"
);
},
{
closed = 1;
nodes = (
"231 573 LINE",
"292 573 LINE SMOOTH",
"359 573 OFFCURVE",
"384 540 OFFCURVE",
"384 468 CURVE SMOOTH",
"384 390 OFFCURVE",
"357 361 OFFCURVE",
"288 361 CURVE SMOOTH",
"231 361 LINE"
);
}
);
width = 562;
}
);
leftKerningGroup = H;
unicode = 00DE;
userData = {
com.fontlab.hintData = {
vhints = (
{
position = 792;
width = 372;
}
);
};
};
},
{
color = 3;
glyphname = Q;
layers = (
{
anchors = (
{
name = bottom;
position = "{262, 0}";
},
{
name = top;
position = "{262, 810}";
}
);
layerId = "FCD7E481-103E-4A6C-AD70-01DA443B2AD0";
paths = (
{
closed = 1;
nodes = (
"434 -107 LINE",
"408 -90 OFFCURVE",
"359 -35 OFFCURVE",
"333 -1 CURVE",
"434 25 OFFCURVE",
"465 115 OFFCURVE",
"465 229 CURVE SMOOTH",
"465 584 LINE SMOOTH",
"465 721 OFFCURVE",
"415 819 OFFCURVE",
"261 819 CURVE SMOOTH",
"108 819 OFFCURVE",
"58 722 OFFCURVE",
"58 584 CURVE SMOOTH",
"58 230 LINE SMOOTH",
"58 92 OFFCURVE",
"103 -11 OFFCURVE",
"261 -11 CURVE SMOOTH",
"271 -11 OFFCURVE",
"281 -10 OFFCURVE",
"291 -9 CURVE",
"339 -77 OFFCURVE",
"391 -137 OFFCURVE",
"429 -156 CURVE"
);
},
{
closed = 1;
nodes = (
"145 34 OFFCURVE",
"113 108 OFFCURVE",
"113 218 CURVE SMOOTH",
"113 592 LINE SMOOTH",
"113 702 OFFCURVE",
"145 774 OFFCURVE",
"261 774 CURVE SMOOTH",
"378 774 OFFCURVE",
"410 702 OFFCURVE",
"410 592 CURVE SMOOTH",
"410 218 LINE SMOOTH",
"410 108 OFFCURVE",
"377 34 OFFCURVE",
"261 34 CURVE SMOOTH"
);
}
);
width = 523;
},
{
associatedMasterId = "FCD7E481-103E-4A6C-AD70-01DA443B2AD0";
layerId = "AE92701C-7094-4239-81BC-C7658D932877";
name = b;
width = 602;
},
{
anchors = (
{
name = bottom;
position = "{271, 0}";
},
{
name = top;
position = "{271, 810}";
}
);
layerId = "8AC5A1D3-32A8-4416-86FC-94176A419B8F";
paths = (
{
closed = 1;
nodes = (
"453 -75 LINE",
"428 -58 OFFCURVE",
"397 -21 OFFCURVE",
"373 10 CURVE",
"459 46 OFFCURVE",
"492 134 OFFCURVE",
"492 253 CURVE SMOOTH",
"492 561 LINE SMOOTH",
"492 720 OFFCURVE",
"433 817 OFFCURVE",
"270 817 CURVE SMOOTH",
"106 817 OFFCURVE",
"48 721 OFFCURVE",
"48 561 CURVE SMOOTH",
"48 254 LINE SMOOTH",
"48 93 OFFCURVE",
"105 -9 OFFCURVE",
"270 -9 CURVE SMOOTH",
"277 -9 OFFCURVE",
"283 -9 OFFCURVE",
"289 -8 CURVE",
"327 -64 OFFCURVE",
"381 -137 OFFCURVE",
"435 -164 CURVE"
);
},
{
closed = 1;
nodes = (
"179 80 OFFCURVE",
"162 139 OFFCURVE",
"162 229 CURVE SMOOTH",
"162 584 LINE SMOOTH",
"162 674 OFFCURVE",
"179 729 OFFCURVE",
"270 729 CURVE SMOOTH",
"361 729 OFFCURVE",
"378 674 OFFCURVE",
"378 584 CURVE SMOOTH",
"378 229 LINE SMOOTH",
"378 139 OFFCURVE",
"361 80 OFFCURVE",
"270 80 CURVE SMOOTH"
);
}
);
width = 541;
},
{
anchors = (
{
name = bottom;
position = "{293, 0}";
},
{
name = top;
position = "{293, 810}";
}
);
layerId = "F66B25F0-8957-42F3-9BF7-6C5DDCB0258B";
paths = (
{
closed = 1;
nodes = (
"513 -53 LINE",
"485 -39 OFFCURVE",
"456 -10 OFFCURVE",
"430 18 CURVE",
"508 58 OFFCURVE",
"537 141 OFFCURVE",
"537 255 CURVE SMOOTH",
"537 556 LINE SMOOTH",
"537 723 OFFCURVE",
"475 821 OFFCURVE",
"292 821 CURVE SMOOTH",
"110 821 OFFCURVE",
"49 723 OFFCURVE",
"49 556 CURVE SMOOTH",
"49 255 LINE SMOOTH",
"49 88 OFFCURVE",
"110 -12 OFFCURVE",
"292 -12 CURVE SMOOTH",
"298 -12 OFFCURVE",
"304 -12 OFFCURVE",
"309 -11 CURVE",
"351 -76 OFFCURVE",
"431 -140 OFFCURVE",
"475 -159 CURVE"
);
},
{
closed = 1;
nodes = (
"236 115 OFFCURVE",
"232 164 OFFCURVE",
"232 210 CURVE SMOOTH",
"232 600 LINE SMOOTH",
"232 648 OFFCURVE",
"236 695 OFFCURVE",
"292 695 CURVE SMOOTH",
"348 695 OFFCURVE",
"354 648 OFFCURVE",
"354 600 CURVE SMOOTH",
"354 210 LINE SMOOTH",
"354 164 OFFCURVE",
"348 115 OFFCURVE",
"292 115 CURVE SMOOTH"
);
}
);
width = 586;
}
);
leftKerningGroup = O;
rightKerningGroup = O;
unicode = 0051;
userData = {
com.fontlab.hintData = {
hhints = (
{
position = -26;
width = 284;
},
{
position = 1400;
width = 284;
}
);
vhints = (
{
position = 80;
width = 424;
},
{
position = 688;
width = 424;
}
);
};
com.typemytype.robofont.layerData = {
b = {
anchors = (
);
components = (
);
contours = (
);
lib = {
};
name = Q;
unicodes = (
);
width = 1232;
};
};
};
},
{
color = 3;
glyphname = R;
layers = (
{
anchors = (
{
name = bottom;
position = "{254, 0}";
},
{
name = top;
position = "{254, 810}";
}
);
layerId = "FCD7E481-103E-4A6C-AD70-01DA443B2AD0";
paths = (
{
closed = 1;
nodes = (
"129 0 LINE",
"129 408 LINE",
"280 408 LINE",
"406 0 LINE",
"460 0 LINE",
"330 418 LINE",
"428 434 OFFCURVE",
"449 519 OFFCURVE",
"449 610 CURVE SMOOTH",
"449 722 OFFCURVE",
"415 810 OFFCURVE",
"271 810 CURVE SMOOTH",
"75 810 LINE",
"75 0 LINE"
);
},
{
closed = 1;
nodes = (
"129 767 LINE",
"268 767 LINE SMOOTH",
"370 767 OFFCURVE",
"396 713 OFFCURVE",
"396 610 CURVE SMOOTH",
"396 511 OFFCURVE",
"372 450 OFFCURVE",
"269 450 CURVE SMOOTH",
"129 450 LINE"
);
}
);
width = 508;
},
{
associatedMasterId = "FCD7E481-103E-4A6C-AD70-01DA443B2AD0";
layerId = "976C4752-0032-4835-9B72-2CAB36F2192E";
name = b;
width = 628;
},
{
anchors = (
{
name = bottom;
position = "{260, 0}";
},
{
name = top;
position = "{260, 810}";
}
);
layerId = "8AC5A1D3-32A8-4416-86FC-94176A419B8F";
paths = (
{
closed = 1;
nodes = (
"176 0 LINE",
"176 380 LINE",
"264 380 LINE",
"370 0 LINE",
"479 0 LINE",
"364 406 LINE",
"436 430 OFFCURVE",
"464 500 OFFCURVE",
"464 595 CURVE SMOOTH",
"464 749 OFFCURVE",
"388 810 OFFCURVE",
"226 810 CURVE SMOOTH",
"63 810 LINE",
"63 0 LINE"
);
},
{
closed = 1;
nodes = (
"176 729 LINE",
"226 729 LINE SMOOTH",
"329 729 OFFCURVE",
"355 690 OFFCURVE",
"355 595 CURVE SMOOTH",
"355 491 OFFCURVE",
"314 461 OFFCURVE",
"219 461 CURVE SMOOTH",
"176 461 LINE"
);
}
);
width = 519;
},
{
anchors = (
{
name = bottom;
position = "{300, 0}";
},
{
name = top;
position = "{300, 810}";
}
);
layerId = "F66B25F0-8957-42F3-9BF7-6C5DDCB0258B";
paths = (
{
closed = 1;
nodes = (
"239 0 LINE",
"239 363 LINE",
"290 363 LINE",
"379 0 LINE",
"564 0 LINE",
"453 392 LINE",
"533 430 OFFCURVE",
"552 496 OFFCURVE",
"552 596 CURVE SMOOTH",
"552 766 OFFCURVE",
"446 810 OFFCURVE",
"283 810 CURVE SMOOTH",
"60 810 LINE",
"60 0 LINE"
);
},
{
closed = 1;
nodes = (
"239 690 LINE",
"297 690 LINE SMOOTH",
"365 690 OFFCURVE",
"386 649 OFFCURVE",
"386 580 CURVE SMOOTH",
"386 508 OFFCURVE",
"364 466 OFFCURVE",
"289 466 CURVE SMOOTH",
"239 466 LINE"
);
}
);
width = 600;
}
);
leftKerningGroup = H;
rightKerningGroup = R;
unicode = 0052;
userData = {
com.fontlab.hintData = {
vhints = (
{
position = 747;
width = 399;
}
);
};
com.typemytype.robofont.layerData = {
b = {
anchors = (
);
components = (
);
contours = (
);
lib = {
};
name = R;
unicodes = (
);
width = 1286;
};
};
};
},
{
color = 3;
glyphname = S;
layers = (
{
anchors = (
{
name = bottom;
position = "{226, 0}";
},
{
name = top;
position = "{226, 810}";
}
);
layerId = "FCD7E481-103E-4A6C-AD70-01DA443B2AD0";
paths = (
{
closed = 1;
nodes = (
"343 -10 OFFCURVE",
"418 46 OFFCURVE",
"418 168 CURVE SMOOTH",
"418 254 OFFCURVE",
"363 326 OFFCURVE",
"298 390 CURVE SMOOTH",
"152 534 LINE SMOOTH",
"107 579 OFFCURVE",
"93 616 OFFCURVE",
"93 657 CURVE SMOOTH",
"93 739 OFFCURVE",
"148 775 OFFCURVE",
"222 775 CURVE SMOOTH",
"319 775 OFFCURVE",
"354 719 OFFCURVE",
"363 605 CURVE",
"409 616 LINE",
"399 769 OFFCURVE",
"331 819 OFFCURVE",
"221 819 CURVE SMOOTH",
"115 819 OFFCURVE",
"43 760 OFFCURVE",
"43 653 CURVE SMOOTH",
"43 600 OFFCURVE",
"64 549 OFFCURVE",
"114 499 CURVE SMOOTH",
"262 352 LINE SMOOTH",
"328 286 OFFCURVE",
"367 236 OFFCURVE",
"367 165 CURVE SMOOTH",
"367 72 OFFCURVE",
"318 35 OFFCURVE",
"238 35 CURVE SMOOTH",
"132 35 OFFCURVE",
"103 108 OFFCURVE",
"89 215 CURVE",
"42 200 LINE",
"52 72 OFFCURVE",
"109 -10 OFFCURVE",
"237 -10 CURVE SMOOTH"
);
}
);
width = 452;
},
{
associatedMasterId = "FCD7E481-103E-4A6C-AD70-01DA443B2AD0";
layerId = "73FD5D31-99F3-4634-B1A8-937133ED0A47";
name = b;
width = 528;
},
{
anchors = (
{
name = bottom;
position = "{237, 0}";
},
{
name = top;
position = "{237, 810}";
}
);
layerId = "8AC5A1D3-32A8-4416-86FC-94176A419B8F";
paths = (
{
closed = 1;
nodes = (
"367 -9 OFFCURVE",
"448 64 OFFCURVE",
"448 184 CURVE SMOOTH",
"448 285 OFFCURVE",
"393 357 OFFCURVE",
"332 411 CURVE SMOOTH",
"195 531 LINE SMOOTH",
"157 564 OFFCURVE",
"142 592 OFFCURVE",
"142 641 CURVE SMOOTH",
"142 700 OFFCURVE",
"175 730 OFFCURVE",
"231 730 CURVE SMOOTH",
"315 730 OFFCURVE",
"333 662 OFFCURVE",
"339 582 CURVE",
"435 608 LINE",
"422 750 OFFCURVE",
"360 817 OFFCURVE",
"231 817 CURVE SMOOTH",
"114 817 OFFCURVE",
"41 749 OFFCURVE",
"41 630 CURVE SMOOTH",
"41 549 OFFCURVE",
"65 498 OFFCURVE",
"119 451 CURVE SMOOTH",
"255 331 LINE SMOOTH",
"306 286 OFFCURVE",
"343 248 OFFCURVE",
"343 175 CURVE SMOOTH",
"343 113 OFFCURVE",
"312 80 OFFCURVE",
"254 80 CURVE SMOOTH",
"167 80 OFFCURVE",
"145 167 OFFCURVE",
"139 254 CURVE",
"39 227 LINE",
"47 87 OFFCURVE",
"113 -9 OFFCURVE",
"254 -9 CURVE SMOOTH"
);
}
);
width = 473;
},
{
anchors = (
{
name = bottom;
position = "{257, 0}";
},
{
name = top;
position = "{257, 810}";
}
);
layerId = "F66B25F0-8957-42F3-9BF7-6C5DDCB0258B";
paths = (
{
closed = 1;
nodes = (
"404 -12 OFFCURVE",
"487 77 OFFCURVE",
"487 192 CURVE SMOOTH",
"487 304 OFFCURVE",
"431 375 OFFCURVE",
"361 435 CURVE SMOOTH",
"294 494 LINE SMOOTH",
"247 535 OFFCURVE",
"216 567 OFFCURVE",
"216 627 CURVE SMOOTH",
"216 655 OFFCURVE",
"231 690 OFFCURVE",
"264 690 CURVE SMOOTH",
"310 690 OFFCURVE",
"315 644 OFFCURVE",
"317 572 CURVE",
"471 591 LINE",
"468 686 OFFCURVE",
"443 821 OFFCURVE",
"270 821 CURVE SMOOTH",
"130 821 OFFCURVE",
"43 746 OFFCURVE",
"43 609 CURVE SMOOTH",
"43 511 OFFCURVE",
"90 450 OFFCURVE",
"152 398 CURVE SMOOTH",
"222 337 LINE SMOOTH",
"277 290 OFFCURVE",
"311 250 OFFCURVE",
"311 183 CURVE SMOOTH",
"311 155 OFFCURVE",
"303 124 OFFCURVE",
"266 124 CURVE SMOOTH",
"221 124 OFFCURVE",
"197 163 OFFCURVE",
"195 268 CURVE",
"42 245 LINE",
"48 65 OFFCURVE",
"122 -12 OFFCURVE",
"275 -12 CURVE SMOOTH"
);
}
);
width = 514;
}
);
leftKerningGroup = S;
rightKerningGroup = S;
unicode = 0053;
userData = {
com.fontlab.hintData = {
hhints = (
{
position = -26;
width = 310;
},
{
position = 1387;
width = 297;
}
);
vhints = (
{
position = 32;
width = 404;
},
{
position = 32;
width = 350;
},
{
position = 558;
width = 409;
},
{
position = 576;
width = 358;
}
);
};
com.typemytype.robofont.layerData = {
b = {
anchors = (
);
components = (
);
contours = (
);
lib = {
};
name = S;
unicodes = (
);
width = 1081;
};
};
};
},
{
glyphname = Germandbls;
layers = (
{
layerId = "FCD7E481-103E-4A6C-AD70-01DA443B2AD0";
paths = (
{
closed = 1;
nodes = (
"274 -9 LINE SMOOTH",
"395 -9 OFFCURVE",
"462 72 OFFCURVE",
"462 230 CURVE SMOOTH",
"462 385 OFFCURVE",
"395 469 OFFCURVE",
"258 469 CURVE",
"264 439 LINE",
"446 733 LINE",
"446 778 LINE",
"397 803 OFFCURVE",
"342 819 OFFCURVE",
"270 819 CURVE SMOOTH",
"135 819 OFFCURVE",
"62 733 OFFCURVE",
"62 607 CURVE SMOOTH",
"62 0 LINE",
"117 0 LINE",
"117 612 LINE SMOOTH",
"117 718 OFFCURVE",
"177 774 OFFCURVE",
"275 774 CURVE SMOOTH",
"325 774 OFFCURVE",
"367 763 OFFCURVE",
"400 746 CURVE",
"230 472 LINE",
"230 427 LINE",
"254 427 LINE SMOOTH",
"357 427 OFFCURVE",
"407 370 OFFCURVE",
"407 227 CURVE SMOOTH",
"407 89 OFFCURVE",
"357 36 OFFCURVE",
"254 36 CURVE SMOOTH",
"220 36 LINE",
"220 -9 LINE"
);
}
);
width = 498;
},
{
layerId = "8AC5A1D3-32A8-4416-86FC-94176A419B8F";
paths = (
{
closed = 1;
nodes = (
"308 -9 LINE SMOOTH",
"437 -9 OFFCURVE",
"509 62 OFFCURVE",
"509 230 CURVE SMOOTH",
"509 375 OFFCURVE",
"445 453 OFFCURVE",
"313 453 CURVE",
"328 407 LINE",
"480 687 LINE",
"480 776 LINE",
"431 801 OFFCURVE",
"376 817 OFFCURVE",
"304 817 CURVE SMOOTH",
"132 817 OFFCURVE",
"56 711 OFFCURVE",
"56 557 CURVE SMOOTH",
"56 0 LINE",
"169 0 LINE",
"169 562 LINE SMOOTH",
"169 671 OFFCURVE",
"213 729 OFFCURVE",
"309 729 CURVE SMOOTH",
"344 729 OFFCURVE",
"374 724 OFFCURVE",
"397 716 CURVE",
"264 472 LINE",
"264 386 LINE",
"288 386 LINE SMOOTH",
"364 386 OFFCURVE",
"401 341 OFFCURVE",
"401 227 CURVE SMOOTH",
"401 115 OFFCURVE",
"364 72 OFFCURVE",
"288 72 CURVE SMOOTH",
"254 72 LINE",
"254 -9 LINE"
);
}
);
width = 539;
},
{
layerId = "F66B25F0-8957-42F3-9BF7-6C5DDCB0258B";
paths = (
{
closed = 1;
nodes = (
"331 -12 LINE SMOOTH",
"497 -12 OFFCURVE",
"589 61 OFFCURVE",
"589 235 CURVE SMOOTH",
"589 378 OFFCURVE",
"514 456 OFFCURVE",
"360 456 CURVE",
"419 399 LINE",
"551 647 LINE",
"551 766 LINE",
"489 799 OFFCURVE",
"421 821 OFFCURVE",
"330 821 CURVE SMOOTH",
"139 821 OFFCURVE",
"54 713 OFFCURVE",
"54 557 CURVE SMOOTH",
"54 0 LINE",
"234 0 LINE",
"234 562 LINE SMOOTH",
"234 649 OFFCURVE",
"270 695 OFFCURVE",
"348 695 CURVE SMOOTH",
"377 695 OFFCURVE",
"401 689 OFFCURVE",
"420 680 CURVE",
"311 472 LINE",
"311 354 LINE",
"320 354 LINE SMOOTH",
"387 354 OFFCURVE",
"417 313 OFFCURVE",
"417 232 CURVE SMOOTH",
"417 148 OFFCURVE",
"381 110 OFFCURVE",
"320 110 CURVE SMOOTH",
"301 110 LINE",
"301 -12 LINE"
);
}
);
width = 623;
}
);
unicode = 1E9E;
},
{
color = 3;
glyphname = T;
layers = (
{
anchors = (
{
name = bottom;
position = "{207, 0}";
},
{
name = center;
position = "{207, 405}";
},
{
name = top;
position = "{207, 810}";
}
);
layerId = "FCD7E481-103E-4A6C-AD70-01DA443B2AD0";
paths = (
{
closed = 1;
nodes = (
"236 0 LINE",
"236 766 LINE",
"394 766 LINE",
"394 810 LINE",
"20 810 LINE",
"20 766 LINE",
"182 766 LINE",
"182 0 LINE"
);
}
);
width = 414;
},
{
associatedMasterId = "FCD7E481-103E-4A6C-AD70-01DA443B2AD0";
layerId = "3DFE9A14-98E4-4EE3-BB38-DCEA24441BA9";
name = b;
width = 463;
},
{
anchors = (
{
name = bottom;
position = "{206, 0}";
},
{
name = center;
position = "{206, 405}";
},
{
name = top;
position = "{206, 810}";
}
);
layerId = "8AC5A1D3-32A8-4416-86FC-94176A419B8F";
paths = (
{
closed = 1;
nodes = (
"265 0 LINE",
"265 726 LINE",
"398 726 LINE",
"398 810 LINE",
"15 810 LINE",
"15 726 LINE",
"152 726 LINE",
"152 0 LINE"
);
}
);
width = 413;
},
{
anchors = (
{
name = bottom;
position = "{222, 0}";
},
{
name = center;
position = "{222, 405}";
},
{
name = top;
position = "{222, 810}";
}
);
layerId = "F66B25F0-8957-42F3-9BF7-6C5DDCB0258B";
paths = (
{
closed = 1;
nodes = (
"313 0 LINE",
"313 677 LINE",
"434 677 LINE",
"434 810 LINE",
"11 810 LINE",
"11 677 LINE",
"133 677 LINE",
"133 0 LINE"
);
}
);
width = 445;
}
);
leftKerningGroup = T;
rightKerningGroup = T;
unicode = 0054;
userData = {
com.typemytype.robofont.layerData = {
b = {
anchors = (
);
components = (
);
contours = (
);
lib = {
};
name = T;
unicodes = (
);
width = 948;
};
};
};
},
{
glyphname = Tbar;
layers = (
{
components = (
{
name = T;
}
);
layerId = "FCD7E481-103E-4A6C-AD70-01DA443B2AD0";
paths = (
{
closed = 1;
nodes = (
"354 417 LINE",
"354 454 LINE",
"61 454 LINE",
"61 417 LINE"
);
}
);
width = 414;
},
{
associatedMasterId = "FCD7E481-103E-4A6C-AD70-01DA443B2AD0";
layerId = "896901C8-D66A-4E71-8CF7-DFD7B2B0D626";
name = b;
width = 463;
},
{
components = (
{
name = T;
}
);
layerId = "8AC5A1D3-32A8-4416-86FC-94176A419B8F";
paths = (
{
closed = 1;
nodes = (
"366 391 LINE",
"366 455 LINE",
"48 455 LINE",
"48 391 LINE"
);
}
);
width = 413;
},
{
components = (
{
alignment = -1;
name = T;
}
);
layerId = "F66B25F0-8957-42F3-9BF7-6C5DDCB0258B";
paths = (
{
closed = 1;
nodes = (
"402 369 LINE",
"402 456 LINE",
"42 456 LINE",
"42 369 LINE"
);
}
);
width = 445;
}
);
leftKerningGroup = T;
rightKerningGroup = T;
unicode = 0166;
userData = {
com.typemytype.robofont.layerData = {
b = {
anchors = (
);
components = (
);
contours = (
);
lib = {
};
name = Tbar;
unicodes = (
);
width = 948;
};
};
};
},
{
color = 3;
glyphname = U;
layers = (
{
anchors = (
{
name = bottom;
position = "{267, 0}";
},
{
name = ogonek;
position = "{317, 0}";
},
{
name = top;
position = "{267, 810}";
},
{
name = topright;
position = "{437, 810}";
}
);
layerId = "FCD7E481-103E-4A6C-AD70-01DA443B2AD0";
paths = (
{
closed = 1;
nodes = (
"418 -11 OFFCURVE",
"468 76 OFFCURVE",
"468 190 CURVE SMOOTH",
"468 810 LINE",
"415 810 LINE",
"415 189 LINE SMOOTH",
"415 101 OFFCURVE",
"377 34 OFFCURVE",
"267 34 CURVE SMOOTH",
"150 34 OFFCURVE",
"119 100 OFFCURVE",
"119 189 CURVE SMOOTH",
"119 810 LINE",
"65 810 LINE",
"65 190 LINE SMOOTH",
"65 76 OFFCURVE",
"108 -11 OFFCURVE",
"267 -11 CURVE SMOOTH"
);
}
);
width = 533;
},
{
associatedMasterId = "FCD7E481-103E-4A6C-AD70-01DA443B2AD0";
layerId = "5252F698-2E8D-4428-89F9-8E623A5D3776";
name = b;
width = 603;
},
{
anchors = (
{
name = bottom;
position = "{272, 0}";
},
{
name = ogonek;
position = "{312, 0}";
},
{
name = top;
position = "{272, 810}";
},
{
name = topright;
position = "{422, 810}";
}
);
layerId = "8AC5A1D3-32A8-4416-86FC-94176A419B8F";
paths = (
{
closed = 1;
nodes = (
"448 -9 OFFCURVE",
"487 103 OFFCURVE",
"487 273 CURVE SMOOTH",
"487 810 LINE",
"380 810 LINE",
"380 268 LINE SMOOTH",
"380 163 OFFCURVE",
"367 80 OFFCURVE",
"272 80 CURVE SMOOTH",
"177 80 OFFCURVE",
"164 163 OFFCURVE",
"164 268 CURVE SMOOTH",
"164 810 LINE",
"56 810 LINE",
"56 273 LINE SMOOTH",
"56 103 OFFCURVE",
"95 -9 OFFCURVE",
"272 -9 CURVE SMOOTH"
);
}
);
width = 543;
},
{
anchors = (
{
name = bottom;
position = "{294, 0}";
},
{
name = ogonek;
position = "{319, 0}";
},
{
name = top;
position = "{294, 810}";
},
{
name = topright;
position = "{435, 810}";
}
);
layerId = "F66B25F0-8957-42F3-9BF7-6C5DDCB0258B";
paths = (
{
closed = 1;
nodes = (
"480 -12 OFFCURVE",
"534 81 OFFCURVE",
"534 251 CURVE SMOOTH",
"534 810 LINE",
"356 810 LINE",
"356 224 LINE SMOOTH",
"356 173 OFFCURVE",
"351 117 OFFCURVE",
"294 117 CURVE SMOOTH",
"237 117 OFFCURVE",
"231 173 OFFCURVE",
"231 224 CURVE SMOOTH",
"231 810 LINE",
"54 810 LINE",
"54 251 LINE SMOOTH",
"54 81 OFFCURVE",
"107 -12 OFFCURVE",
"294 -12 CURVE SMOOTH"
);
}
);
width = 588;
}
);
leftKerningGroup = U;
rightKerningGroup = U;
unicode = 0055;
userData = {
com.fontlab.hintData = {
hhints = (
{
position = -26;
width = 293;
}
);
};
com.typemytype.robofont.layerData = {
b = {
anchors = (
);
components = (
);
contours = (
);
lib = {
};
name = U;
unicodes = (
);
width = 1235;
};
};
};
},
{
color = 3;
glyphname = V;
layers = (
{
anchors = (
{
name = bottom;
position = "{240, 0}";
},
{
name = top;
position = "{240, 810}";
}
);
layerId = "FCD7E481-103E-4A6C-AD70-01DA443B2AD0";
paths = (
{
closed = 1;
nodes = (
"271 0 LINE",
"456 810 LINE",
"403 810 LINE",
"246 95 LINE",
"78 810 LINE",
"24 810 LINE",
"220 0 LINE"
);
}
);
width = 480;
},
{
associatedMasterId = "FCD7E481-103E-4A6C-AD70-01DA443B2AD0";
layerId = "25B35F87-EB65-43E6-BCFE-474BD5444AE8";
name = b;
width = 470;
},
{
anchors = (
{
name = bottom;
position = "{253, 0}";
},
{
name = top;
position = "{253, 810}";
}
);
layerId = "8AC5A1D3-32A8-4416-86FC-94176A419B8F";
paths = (
{
closed = 1;
nodes = (
"303 0 LINE",
"482 810 LINE",
"379 810 LINE",
"257 213 LINE",
"129 810 LINE",
"23 810 LINE",
"204 0 LINE"
);
}
);
width = 505;
},
{
anchors = (
{
name = bottom;
position = "{263, 0}";
},
{
name = top;
position = "{263, 810}";
}
);
layerId = "F66B25F0-8957-42F3-9BF7-6C5DDCB0258B";
paths = (
{
closed = 1;
nodes = (
"357 0 LINE",
"505 810 LINE",
"343 810 LINE",
"262 260 LINE",
"175 810 LINE",
"22 810 LINE",
"168 0 LINE"
);
}
);
width = 526;
}
);
unicode = 0056;
userData = {
com.typemytype.robofont.layerData = {
b = {
anchors = (
);
components = (
);
contours = (
);
lib = {
};
name = V;
unicodes = (
);
width = 963;
};
};
};
},
{
color = 3;
glyphname = W;
layers = (
{
anchors = (
{
name = bottom;
position = "{353, 0}";
},
{
name = top;
position = "{353, 810}";
}
);
layerId = "FCD7E481-103E-4A6C-AD70-01DA443B2AD0";
paths = (
{
closed = 1;
nodes = (
"222 0 LINE",
"357 709 LINE",
"495 0 LINE",
"541 0 LINE",
"672 810 LINE",
"625 810 LINE",
"517 107 LINE",
"383 792 LINE",
"331 792 LINE",
"201 107 LINE",
"82 810 LINE",
"34 810 LINE",
"175 0 LINE"
);
}
);
width = 706;
},
{
associatedMasterId = "FCD7E481-103E-4A6C-AD70-01DA443B2AD0";
layerId = "8A9D5D33-8D55-4C17-9E6C-E3F8150AB489";
name = b;
width = 697;
},
{
anchors = (
{
name = bottom;
position = "{365, 0}";
},
{
name = top;
position = "{365, 810}";
}
);
layerId = "8AC5A1D3-32A8-4416-86FC-94176A419B8F";
paths = (
{
closed = 1;
nodes = (
"254 0 LINE",
"368 600 LINE",
"481 0 LINE",
"563 0 LINE",
"693 810 LINE",
"601 810 LINE",
"516 225 LINE",
"406 807 LINE",
"326 807 LINE",
"217 228 LINE",
"130 810 LINE",
"36 810 LINE",
"168 0 LINE"
);
}
);
width = 729;
},
{
anchors = (
{
name = bottom;
position = "{349, 0}";
},
{
name = top;
position = "{349, 810}";
}
);
layerId = "F66B25F0-8957-42F3-9BF7-6C5DDCB0258B";
paths = (
{
closed = 1;
nodes = (
"283 0 LINE",
"348 489 LINE",
"417 0 LINE",
"573 0 LINE",
"670 810 LINE",
"520 810 LINE",
"471 341 LINE",
"407 809 LINE",
"288 809 LINE",
"227 338 LINE",
"179 810 LINE",
"27 810 LINE",
"125 0 LINE"
);
}
);
width = 697;
}
);
leftKerningGroup = W;
rightKerningGroup = W;
unicode = 0057;
userData = {
com.typemytype.robofont.layerData = {
b = {
anchors = (
);
components = (
);
contours = (
);
lib = {
};
name = W;
unicodes = (
);
width = 1427;
};
};
};
},
{
color = 3;
glyphname = X;
layers = (
{
anchors = (
{
name = bottom;
position = "{226, 0}";
},
{
name = top;
position = "{226, 810}";
}
);
layerId = "FCD7E481-103E-4A6C-AD70-01DA443B2AD0";
paths = (
{
closed = 1;
nodes = (
"69 0 LINE",
"218 364 LINE",
"385 0 LINE",
"438 0 LINE",
"249 412 LINE",
"434 810 LINE",
"380 810 LINE",
"225 464 LINE",
"66 810 LINE",
"16 810 LINE",
"193 420 LINE",
"15 0 LINE"
);
}
);
width = 452;
},
{
associatedMasterId = "FCD7E481-103E-4A6C-AD70-01DA443B2AD0";
layerId = "81C1061A-6A9B-494B-9176-00E6D82AA5BD";
name = b;
width = 526;
},
{
anchors = (
{
name = bottom;
position = "{241, 0}";
},
{
name = top;
position = "{241, 810}";
}
);
layerId = "8AC5A1D3-32A8-4416-86FC-94176A419B8F";
paths = (
{
closed = 1;
nodes = (
"118 0 LINE",
"232 305 LINE",
"364 0 LINE",
"469 0 LINE",
"291 415 LINE",
"461 810 LINE",
"356 810 LINE",
"244 524 LINE",
"121 810 LINE",
"16 810 LINE",
"182 424 LINE",
"13 0 LINE"
);
}
);
width = 482;
},
{
anchors = (
{
name = bottom;
position = "{257, 0}";
},
{
name = top;
position = "{257, 810}";
}
);
layerId = "F66B25F0-8957-42F3-9BF7-6C5DDCB0258B";
paths = (
{
closed = 1;
nodes = (
"155 0 LINE",
"242 242 LINE",
"341 0 LINE",
"509 0 LINE",
"351 389 LINE",
"493 810 LINE",
"344 810 LINE",
"272 591 LINE",
"183 810 LINE",
"14 810 LINE",
"164 436 LINE",
"7 0 LINE"
);
}
);
width = 515;
}
);
unicode = 0058;
userData = {
com.typemytype.robofont.layerData = {
b = {
anchors = (
);
components = (
);
contours = (
);
lib = {
};
name = X;
unicodes = (
);
width = 1077;
};
};
};
},
{
color = 3;
glyphname = Y;
layers = (
{
anchors = (
{
name = bottom;
position = "{231, 0}";
},
{
name = top;
position = "{231, 810}";
},
{
name = topleft;
position = "{20, 810}";
}
);
layerId = "FCD7E481-103E-4A6C-AD70-01DA443B2AD0";
paths = (
{
closed = 1;
nodes = (
"261 0 LINE",
"261 259 LINE",
"442 810 LINE",
"386 810 LINE",
"235 324 LINE",
"76 810 LINE",
"20 810 LINE",
"207 259 LINE",
"207 0 LINE"
);
}
);
width = 462;
},
{
associatedMasterId = "FCD7E481-103E-4A6C-AD70-01DA443B2AD0";
layerId = "F41A3D51-BC81-427C-8AAA-BE79254EB3CC";
name = b;
width = 454;
},
{
anchors = (
{
name = bottom;
position = "{241, 0}";
},
{
name = top;
position = "{241, 810}";
},
{
name = topleft;
position = "{20, 810}";
}
);
layerId = "8AC5A1D3-32A8-4416-86FC-94176A419B8F";
paths = (
{
closed = 1;
nodes = (
"295 0 LINE",
"295 286 LINE",
"469 810 LINE",
"363 810 LINE",
"241 419 LINE",
"117 810 LINE",
"12 810 LINE",
"187 286 LINE",
"187 0 LINE"
);
}
);
width = 481;
},
{
anchors = (
{
name = bottom;
position = "{247, 0}";
},
{
name = top;
position = "{247, 810}";
},
{
name = topleft;
position = "{20, 810}";
}
);
layerId = "F66B25F0-8957-42F3-9BF7-6C5DDCB0258B";
paths = (
{
closed = 1;
nodes = (
"334 0 LINE",
"334 331 LINE",
"485 810 LINE",
"323 810 LINE",
"254 554 LINE",
"177 810 LINE",
"8 810 LINE",
"162 331 LINE",
"162 0 LINE"
);
}
);
width = 493;
}
);
leftKerningGroup = Y;
rightKerningGroup = Y;
unicode = 0059;
userData = {
com.typemytype.robofont.layerData = {
b = {
anchors = (
);
components = (
);
contours = (
);
lib = {
};
name = Y;
unicodes = (
);
width = 930;
};
};
};
},
{
color = 3;
glyphname = Z;
layers = (
{
anchors = (
{
name = bottom;
position = "{201, 0}";
},
{
name = top;
position = "{213, 810}";
}
);
layerId = "FCD7E481-103E-4A6C-AD70-01DA443B2AD0";
paths = (
{
closed = 1;
nodes = (
"382 0 LINE",
"382 43 LINE",
"87 43 LINE",
"381 776 LINE",
"381 810 LINE",
"57 810 LINE",
"57 767 LINE",
"322 767 LINE",
"31 43 LINE",
"31 0 LINE"
);
}
);
width = 401;
},
{
associatedMasterId = "FCD7E481-103E-4A6C-AD70-01DA443B2AD0";
layerId = "BCAAF822-A4E2-402C-8F8F-43D45829B4EB";
name = b;
width = 438;
},
{
anchors = (
{
name = bottom;
position = "{209, 0}";
},
{
name = top;
position = "{219, 810}";
}
);
layerId = "8AC5A1D3-32A8-4416-86FC-94176A419B8F";
paths = (
{
closed = 1;
nodes = (
"396 0 LINE",
"396 81 LINE",
"145 81 LINE",
"396 761 LINE",
"396 810 LINE",
"53 810 LINE",
"53 729 LINE",
"276 729 LINE",
"38 81 LINE",
"38 0 LINE"
);
}
);
width = 417;
},
{
anchors = (
{
name = bottom;
position = "{217, 0}";
},
{
name = top;
position = "{217, 810}";
}
);
layerId = "F66B25F0-8957-42F3-9BF7-6C5DDCB0258B";
paths = (
{
closed = 1;
nodes = (
"405 0 LINE",
"405 121 LINE",
"202 121 LINE",
"403 709 LINE",
"403 810 LINE",
"38 810 LINE",
"38 689 LINE",
"227 689 LINE",
"29 108 LINE",
"29 0 LINE"
);
}
);
width = 433;
}
);
leftKerningGroup = Z;
rightKerningGroup = Z;
unicode = 005A;
userData = {
com.typemytype.robofont.layerData = {
b = {
anchors = (
);
components = (
);
contours = (
);
lib = {
};
name = Z;
unicodes = (
);
width = 896;
};
};
};
},
{
color = 3;
glyphname = a;
layers = (
{
anchors = (
{
name = bottom;
position = "{182, 0}";
},
{
name = ogonek;
position = "{300, 0}";
},
{
name = top;
position = "{187, 578}";
}
);
layerId = "FCD7E481-103E-4A6C-AD70-01DA443B2AD0";
paths = (
{
closed = 1;
nodes = (
"204 -9 OFFCURVE",
"250 29 OFFCURVE",
"267 77 CURVE",
"268 64 OFFCURVE",
"273 28 OFFCURVE",
"276 0 CURVE",
"322 0 LINE",
"320 11 OFFCURVE",
"319 85 OFFCURVE",
"319 101 CURVE SMOOTH",
"319 392 LINE SMOOTH",
"319 529 OFFCURVE",
"285 587 OFFCURVE",
"188 587 CURVE SMOOTH",
"82 587 OFFCURVE",
"42 533 OFFCURVE",
"42 423 CURVE",
"94 423 LINE",
"94 438 LINE",
"94 530 OFFCURVE",
"140 547 OFFCURVE",
"186 547 CURVE SMOOTH",
"245 547 OFFCURVE",
"266 512 OFFCURVE",
"266 386 CURVE SMOOTH",
"266 345 LINE",
"69 252 OFFCURVE",
"30 216 OFFCURVE",
"30 117 CURVE SMOOTH",
"30 42 OFFCURVE",
"76 -9 OFFCURVE",
"146 -9 CURVE"
);
},
{
closed = 1;
nodes = (
"122 35 OFFCURVE",
"83 56 OFFCURVE",
"83 125 CURVE SMOOTH",
"83 211 OFFCURVE",
"124 232 OFFCURVE",
"266 306 CURVE",
"266 116 LINE",
"245 73 OFFCURVE",
"208 35 OFFCURVE",
"159 35 CURVE SMOOTH"
);
}
);
width = 371;
},
{
associatedMasterId = "FCD7E481-103E-4A6C-AD70-01DA443B2AD0";
layerId = "282618B7-8C23-48BF-9B85-1F597464C782";
name = b;
width = 494;
},
{
anchors = (
{
name = bottom;
position = "{196, 0}";
},
{
name = ogonek;
position = "{326, 0}";
},
{
name = top;
position = "{202, 578}";
}
);
layerId = "8AC5A1D3-32A8-4416-86FC-94176A419B8F";
paths = (
{
closed = 1;
nodes = (
"207 -8 OFFCURVE",
"244 40 OFFCURVE",
"258 85 CURVE",
"261 58 OFFCURVE",
"268 21 OFFCURVE",
"272 0 CURVE",
"370 0 LINE",
"365 37 OFFCURVE",
"360 85 OFFCURVE",
"360 139 CURVE SMOOTH",
"360 403 LINE SMOOTH",
"360 522 OFFCURVE",
"316 586 OFFCURVE",
"202 586 CURVE SMOOTH",
"84 586 OFFCURVE",
"30 527 OFFCURVE",
"28 399 CURVE",
"134 395 LINE",
"134 424 LINE SMOOTH",
"134 474 OFFCURVE",
"151 506 OFFCURVE",
"195 506 CURVE SMOOTH",
"245 506 OFFCURVE",
"253 472 OFFCURVE",
"253 402 CURVE SMOOTH",
"253 361 LINE",
"129 312 OFFCURVE",
"25 270 OFFCURVE",
"25 126 CURVE SMOOTH",
"25 58 OFFCURVE",
"73 -8 OFFCURVE",
"141 -8 CURVE"
);
},
{
closed = 1;
nodes = (
"150 84 OFFCURVE",
"132 112 OFFCURVE",
"132 159 CURVE SMOOTH",
"132 226 OFFCURVE",
"187 258 OFFCURVE",
"253 296 CURVE",
"253 132 LINE",
"244 117 OFFCURVE",
"214 84 OFFCURVE",
"183 84 CURVE SMOOTH"
);
}
);
width = 409;
},
{
anchors = (
{
name = bottom;
position = "{213, 0}";
},
{
name = ogonek;
position = "{343, 0}";
},
{
name = top;
position = "{219, 578}";
}
);
associatedMasterId = "8AC5A1D3-32A8-4416-86FC-94176A419B8F";
layerId = "FF8DF415-A6F0-4E8B-B81F-CAB18DFAD95D";
name = "Sep 22 17, 11:08";
paths = (
{
closed = 1;
nodes = (
"224 -8 OFFCURVE",
"261 40 OFFCURVE",
"275 85 CURVE",
"278 58 OFFCURVE",
"285 21 OFFCURVE",
"289 0 CURVE",
"387 0 LINE",
"382 37 OFFCURVE",
"377 85 OFFCURVE",
"377 139 CURVE SMOOTH",
"377 403 LINE SMOOTH",
"377 522 OFFCURVE",
"333 586 OFFCURVE",
"219 586 CURVE SMOOTH",
"114 586 OFFCURVE",
"53 539 OFFCURVE",
"46 420 CURVE SMOOTH",
"46 414 OFFCURVE",
"45 406 OFFCURVE",
"45 399 CURVE",
"151 395 LINE",
"151 424 LINE",
"151 474 OFFCURVE",
"168 506 OFFCURVE",
"212 506 CURVE SMOOTH",
"262 506 OFFCURVE",
"270 472 OFFCURVE",
"270 402 CURVE SMOOTH",
"270 361 LINE",
"146 312 OFFCURVE",
"42 270 OFFCURVE",
"42 126 CURVE SMOOTH",
"42 58 OFFCURVE",
"90 -8 OFFCURVE",
"158 -8 CURVE"
);
},
{
closed = 1;
nodes = (
"167 84 OFFCURVE",
"149 112 OFFCURVE",
"149 159 CURVE SMOOTH",
"149 226 OFFCURVE",
"204 258 OFFCURVE",
"270 296 CURVE",
"270 132 LINE",
"261 117 OFFCURVE",
"231 84 OFFCURVE",
"200 84 CURVE SMOOTH"
);
}
);
width = 426;
},
{
anchors = (
{
name = bottom;
position = "{190, 0}";
},
{
name = ogonek;
position = "{308, 0}";
},
{
name = top;
position = "{195, 578}";
}
);
associatedMasterId = "FCD7E481-103E-4A6C-AD70-01DA443B2AD0";
layerId = "6222981D-4DA5-4C65-98CC-1AB4E26E3B3A";
name = "Sep 22 17, 11:08";
paths = (
{
closed = 1;
nodes = (
"212 -9 OFFCURVE",
"258 29 OFFCURVE",
"275 77 CURVE",
"276 64 OFFCURVE",
"281 28 OFFCURVE",
"284 0 CURVE",
"330 0 LINE",
"328 11 OFFCURVE",
"327 85 OFFCURVE",
"327 101 CURVE SMOOTH",
"327 392 LINE SMOOTH",
"327 529 OFFCURVE",
"293 587 OFFCURVE",
"196 587 CURVE SMOOTH",
"104 587 OFFCURVE",
"53 546 OFFCURVE",
"50 438 CURVE SMOOTH",
"50 437 OFFCURVE",
"50 425 OFFCURVE",
"50 423 CURVE",
"102 423 LINE",
"102 438 LINE",
"102 530 OFFCURVE",
"148 547 OFFCURVE",
"194 547 CURVE SMOOTH",
"253 547 OFFCURVE",
"274 512 OFFCURVE",
"274 386 CURVE SMOOTH",
"274 345 LINE",
"77 252 OFFCURVE",
"38 216 OFFCURVE",
"38 117 CURVE SMOOTH",
"38 42 OFFCURVE",
"84 -9 OFFCURVE",
"154 -9 CURVE"
);
},
{
closed = 1;
nodes = (
"130 35 OFFCURVE",
"91 56 OFFCURVE",
"91 125 CURVE SMOOTH",
"91 211 OFFCURVE",
"132 232 OFFCURVE",
"274 306 CURVE",
"274 116 LINE",
"253 73 OFFCURVE",
"216 35 OFFCURVE",
"167 35 CURVE SMOOTH"
);
}
);
visible = 1;
width = 379;
},
{
anchors = (
{
name = bottom;
position = "{223, 0}";
},
{
name = ogonek;
position = "{357, 0}";
},
{
name = top;
position = "{238, 578}";
}
);
layerId = "F66B25F0-8957-42F3-9BF7-6C5DDCB0258B";
paths = (
{
closed = 1;
nodes = (
"215 -10 OFFCURVE",
"251 34 OFFCURVE",
"265 82 CURVE",
"267 75 OFFCURVE",
"274 31 OFFCURVE",
"278 0 CURVE",
"424 0 LINE",
"419 28 OFFCURVE",
"414 72 OFFCURVE",
"414 144 CURVE SMOOTH",
"414 414 LINE SMOOTH",
"414 516 OFFCURVE",
"356 588 OFFCURVE",
"239 588 CURVE SMOOTH",
"104 588 OFFCURVE",
"38 524 OFFCURVE",
"32 385 CURVE",
"184 379 LINE",
"188 421 LINE SMOOTH",
"189 447 OFFCURVE",
"196 467 OFFCURVE",
"224 467 CURVE SMOOTH",
"251 467 OFFCURVE",
"258 446 OFFCURVE",
"258 416 CURVE SMOOTH",
"258 358 LINE",
"149 320 OFFCURVE",
"20 275 OFFCURVE",
"20 131 CURVE SMOOTH",
"20 63 OFFCURVE",
"66 -10 OFFCURVE",
"154 -10 CURVE"
);
},
{
closed = 1;
nodes = (
"184 100 OFFCURVE",
"167 124 OFFCURVE",
"167 163 CURVE SMOOTH",
"167 221 OFFCURVE",
"204 256 OFFCURVE",
"258 287 CURVE",
"258 129 LINE",
"247 114 OFFCURVE",
"232 100 OFFCURVE",
"212 100 CURVE SMOOTH"
);
}
);
width = 460;
}
);
leftKerningGroup = a;
rightKerningGroup = a;
unicode = 0061;
userData = {
com.fontlab.hintData = {
};
com.typemytype.robofont.layerData = {
b = {
anchors = (
);
components = (
);
contours = (
);
lib = {
};
name = a;
unicodes = (
);
width = 1011;
};
};
hhints = {
};
position = 564;
vhints = {
};
width = 64;
};
},
{
glyphname = ae;
layers = (
{
anchors = (
{
name = bottom;
position = "{290, 0}";
},
{
name = top;
position = "{290, 578}";
}
);
layerId = "FCD7E481-103E-4A6C-AD70-01DA443B2AD0";
paths = (
{
closed = 1;
nodes = (
"197 -9 OFFCURVE",
"264 16 OFFCURVE",
"286 107 CURVE",
"298 19 OFFCURVE",
"354 -9 OFFCURVE",
"413 -9 CURVE SMOOTH",
"521 -9 OFFCURVE",
"553 58 OFFCURVE",
"553 157 CURVE SMOOTH",
"553 195 LINE",
"501 195 LINE",
"501 155 LINE SMOOTH",
"501 44 OFFCURVE",
"454 33 OFFCURVE",
"413 33 CURVE SMOOTH",
"346 33 OFFCURVE",
"320 84 OFFCURVE",
"320 223 CURVE SMOOTH",
"320 300 LINE",
"431 338 LINE SMOOTH",
"507 364 OFFCURVE",
"549 396 OFFCURVE",
"549 471 CURVE SMOOTH",
"549 537 OFFCURVE",
"508 587 OFFCURVE",
"423 587 CURVE SMOOTH",
"359 587 OFFCURVE",
"291 556 OFFCURVE",
"291 454 CURVE",
"298 454 LINE",
"298 542 OFFCURVE",
"251 587 OFFCURVE",
"174 587 CURVE SMOOTH",
"90 587 OFFCURVE",
"40 538 OFFCURVE",
"40 435 CURVE",
"91 433 LINE",
"91 523 OFFCURVE",
"133 546 OFFCURVE",
"176 546 CURVE SMOOTH",
"239 546 OFFCURVE",
"266 516 OFFCURVE",
"266 409 CURVE SMOOTH",
"266 323 LINE",
"179 293 LINE SMOOTH",
"45 247 OFFCURVE",
"30 187 OFFCURVE",
"30 117 CURVE SMOOTH",
"30 42 OFFCURVE",
"76 -9 OFFCURVE",
"146 -9 CURVE SMOOTH"
);
},
{
closed = 1;
nodes = (
"124 32 OFFCURVE",
"82 53 OFFCURVE",
"82 122 CURVE SMOOTH",
"82 180 OFFCURVE",
"89 218 OFFCURVE",
"193 259 CURVE SMOOTH",
"266 288 LINE",
"266 217 LINE SMOOTH",
"266 73 OFFCURVE",
"210 32 OFFCURVE",
"158 32 CURVE SMOOTH"
);
},
{
closed = 1;
nodes = (
"320 384 LINE SMOOTH",
"320 510 OFFCURVE",
"357 545 OFFCURVE",
"419 545 CURVE SMOOTH",
"479 545 OFFCURVE",
"500 506 OFFCURVE",
"500 467 CURVE SMOOTH",
"500 415 OFFCURVE",
"480 392 OFFCURVE",
"422 371 CURVE SMOOTH",
"320 335 LINE"
);
}
);
width = 596;
},
{
anchors = (
{
name = bottom;
position = "{308, 0}";
},
{
name = top;
position = "{308, 578}";
}
);
layerId = "8AC5A1D3-32A8-4416-86FC-94176A419B8F";
paths = (
{
closed = 1;
nodes = (
"240 -8 OFFCURVE",
"280 38 OFFCURVE",
"297 109 CURVE",
"308 39 OFFCURVE",
"345 -8 OFFCURVE",
"437 -8 CURVE SMOOTH",
"544 -8 OFFCURVE",
"591 62 OFFCURVE",
"591 177 CURVE SMOOTH",
"591 201 LINE",
"484 201 LINE",
"484 176 LINE SMOOTH",
"484 120 OFFCURVE",
"472 77 OFFCURVE",
"423 77 CURVE SMOOTH",
"376 77 OFFCURVE",
"364 112 OFFCURVE",
"364 155 CURVE SMOOTH",
"364 282 LINE",
"435 297 LINE SMOOTH",
"513 314 OFFCURVE",
"586 341 OFFCURVE",
"586 453 CURVE SMOOTH",
"586 534 OFFCURVE",
"540 586 OFFCURVE",
"445 586 CURVE SMOOTH",
"368 586 OFFCURVE",
"311 542 OFFCURVE",
"301 486 CURVE",
"316 486 LINE",
"306 542 OFFCURVE",
"265 586 OFFCURVE",
"196 586 CURVE SMOOTH",
"89 586 OFFCURVE",
"28 517 OFFCURVE",
"27 409 CURVE",
"133 409 LINE",
"133 465 OFFCURVE",
"149 504 OFFCURVE",
"196 504 CURVE SMOOTH",
"246 504 OFFCURVE",
"257 463 OFFCURVE",
"257 402 CURVE SMOOTH",
"257 327 LINE",
"179 306 LINE SMOOTH",
"84 280 OFFCURVE",
"25 231 OFFCURVE",
"25 126 CURVE SMOOTH",
"25 50 OFFCURVE",
"69 -8 OFFCURVE",
"163 -8 CURVE SMOOTH"
);
},
{
closed = 1;
nodes = (
"150 75 OFFCURVE",
"132 106 OFFCURVE",
"132 149 CURVE SMOOTH",
"132 201 OFFCURVE",
"160 233 OFFCURVE",
"211 250 CURVE SMOOTH",
"257 265 LINE",
"257 171 LINE SMOOTH",
"257 107 OFFCURVE",
"235 75 OFFCURVE",
"190 75 CURVE SMOOTH"
);
},
{
closed = 1;
nodes = (
"364 397 LINE SMOOTH",
"364 458 OFFCURVE",
"379 499 OFFCURVE",
"429 499 CURVE SMOOTH",
"473 499 OFFCURVE",
"488 470 OFFCURVE",
"488 436 CURVE SMOOTH",
"488 384 OFFCURVE",
"466 364 OFFCURVE",
"419 353 CURVE SMOOTH",
"364 340 LINE"
);
}
);
width = 634;
},
{
anchors = (
{
name = bottom;
position = "{327, 0}";
},
{
name = top;
position = "{327, 578}";
}
);
associatedMasterId = "8AC5A1D3-32A8-4416-86FC-94176A419B8F";
layerId = "D3EF0F27-29E0-4E8F-BC91-F7684267E6ED";
name = "Sep 22 17, 11:10";
paths = (
{
closed = 1;
nodes = (
"253 -8 OFFCURVE",
"292 39 OFFCURVE",
"315 109 CURVE",
"325 39 OFFCURVE",
"374 -8 OFFCURVE",
"444 -8 CURVE SMOOTH",
"559 -8 OFFCURVE",
"609 62 OFFCURVE",
"609 177 CURVE SMOOTH",
"609 201 LINE",
"502 201 LINE",
"502 176 LINE SMOOTH",
"502 120 OFFCURVE",
"491 77 OFFCURVE",
"445 77 CURVE SMOOTH",
"379 77 OFFCURVE",
"382 138 OFFCURVE",
"382 185 CURVE SMOOTH",
"382 282 LINE",
"453 297 LINE SMOOTH",
"531 314 OFFCURVE",
"604 338 OFFCURVE",
"604 443 CURVE SMOOTH",
"604 530 OFFCURVE",
"558 586 OFFCURVE",
"463 586 CURVE SMOOTH",
"386 586 OFFCURVE",
"329 542 OFFCURVE",
"319 486 CURVE",
"334 486 LINE",
"324 542 OFFCURVE",
"283 586 OFFCURVE",
"214 586 CURVE SMOOTH",
"107 586 OFFCURVE",
"46 517 OFFCURVE",
"45 409 CURVE",
"151 409 LINE",
"151 465 OFFCURVE",
"167 504 OFFCURVE",
"214 504 CURVE SMOOTH",
"264 504 OFFCURVE",
"275 463 OFFCURVE",
"275 402 CURVE SMOOTH",
"275 327 LINE",
"197 306 LINE SMOOTH",
"102 280 OFFCURVE",
"43 231 OFFCURVE",
"43 126 CURVE SMOOTH",
"43 50 OFFCURVE",
"89 -8 OFFCURVE",
"168 -8 CURVE SMOOTH"
);
},
{
closed = 1;
nodes = (
"168 75 OFFCURVE",
"150 106 OFFCURVE",
"150 149 CURVE SMOOTH",
"150 201 OFFCURVE",
"178 233 OFFCURVE",
"229 250 CURVE SMOOTH",
"275 265 LINE",
"275 171 LINE SMOOTH",
"275 107 OFFCURVE",
"253 75 OFFCURVE",
"208 75 CURVE SMOOTH"
);
},
{
closed = 1;
nodes = (
"382 397 LINE SMOOTH",
"382 458 OFFCURVE",
"397 499 OFFCURVE",
"447 499 CURVE SMOOTH",
"491 499 OFFCURVE",
"506 470 OFFCURVE",
"506 436 CURVE SMOOTH",
"506 384 OFFCURVE",
"484 364 OFFCURVE",
"437 353 CURVE SMOOTH",
"382 340 LINE"
);
}
);
visible = 1;
width = 653;
},
{
anchors = (
{
name = bottom;
position = "{326, 0}";
},
{
name = top;
position = "{326, 578}";
}
);
associatedMasterId = "8AC5A1D3-32A8-4416-86FC-94176A419B8F";
layerId = "7F372203-C061-4E0D-96A2-54059A3DC5BB";
name = "Sep 22 17, 11:18";
paths = (
{
closed = 1;
nodes = (
"351 491 LINE",
"337 550 OFFCURVE",
"296 586 OFFCURVE",
"220 586 CURVE SMOOTH",
"102 586 OFFCURVE",
"47 527 OFFCURVE",
"45 399 CURVE",
"151 395 LINE",
"151 424 LINE SMOOTH",
"151 474 OFFCURVE",
"168 506 OFFCURVE",
"212 506 CURVE SMOOTH",
"262 506 OFFCURVE",
"270 472 OFFCURVE",
"270 402 CURVE SMOOTH",
"270 326 LINE",
"140 283 OFFCURVE",
"42 240 OFFCURVE",
"42 118 CURVE SMOOTH",
"42 37 OFFCURVE",
"92 -8 OFFCURVE",
"162 -8 CURVE SMOOTH",
"244 -8 OFFCURVE",
"290 55 OFFCURVE",
"308 115 CURVE",
"284 110 LINE",
"301 35 OFFCURVE",
"346 -8 OFFCURVE",
"441 -8 CURVE SMOOTH",
"562 -8 OFFCURVE",
"608 63 OFFCURVE",
"608 179 CURVE SMOOTH",
"608 201 LINE",
"504 201 LINE",
"504 166 LINE SMOOTH",
"504 108 OFFCURVE",
"494 71 OFFCURVE",
"446 71 CURVE SMOOTH",
"400 71 OFFCURVE",
"381 101 OFFCURVE",
"381 171 CURVE SMOOTH",
"381 287 LINE",
"469 315 OFFCURVE",
"609 324 OFFCURVE",
"609 461 CURVE SMOOTH",
"609 525 OFFCURVE",
"568 586 OFFCURVE",
"463 586 CURVE SMOOTH",
"382 586 OFFCURVE",
"333 558 OFFCURVE",
"320 491 CURVE"
);
},
{
closed = 1;
nodes = (
"167 84 OFFCURVE",
"149 106 OFFCURVE",
"149 144 CURVE SMOOTH",
"149 203 OFFCURVE",
"201 241 OFFCURVE",
"270 264 CURVE",
"270 132 LINE",
"261 117 OFFCURVE",
"231 84 OFFCURVE",
"200 84 CURVE SMOOTH"
);
},
{
closed = 1;
nodes = (
"381 436 LINE SMOOTH",
"381 486 OFFCURVE",
"404 507 OFFCURVE",
"448 507 CURVE SMOOTH",
"491 507 OFFCURVE",
"504 480 OFFCURVE",
"504 452 CURVE SMOOTH",
"504 390 OFFCURVE",
"459 369 OFFCURVE",
"381 351 CURVE"
);
}
);
width = 652;
},
{
anchors = (
{
name = bottom;
position = "{325, 0}";
},
{
name = top;
position = "{325, 578}";
}
);
layerId = "F66B25F0-8957-42F3-9BF7-6C5DDCB0258B";
paths = (
{
closed = 1;
nodes = (
"234 -12 OFFCURVE",
"296 21 OFFCURVE",
"319 83 CURVE",
"332 20 OFFCURVE",
"397 -12 OFFCURVE",
"455 -12 CURVE SMOOTH",
"562 -12 OFFCURVE",
"619 49 OFFCURVE",
"619 155 CURVE SMOOTH",
"619 202 LINE",
"469 202 LINE",
"469 164 LINE SMOOTH",
"469 129 OFFCURVE",
"466 104 OFFCURVE",
"439 104 CURVE SMOOTH",
"412 104 OFFCURVE",
"408 128 OFFCURVE",
"408 168 CURVE SMOOTH",
"408 282 LINE",
"474 297 LINE SMOOTH",
"560 317 OFFCURVE",
"624 352 OFFCURVE",
"624 449 CURVE SMOOTH",
"624 529 OFFCURVE",
"574 588 OFFCURVE",
"466 588 CURVE SMOOTH",
"387 588 OFFCURVE",
"325 550 OFFCURVE",
"319 503 CURVE",
"336 503 LINE",
"329 550 OFFCURVE",
"284 588 OFFCURVE",
"203 588 CURVE SMOOTH",
"78 588 OFFCURVE",
"22 516 OFFCURVE",
"22 387 CURVE",
"180 382 LINE",
"180 449 OFFCURVE",
"193 467 OFFCURVE",
"219 467 CURVE SMOOTH",
"242 467 OFFCURVE",
"253 452 OFFCURVE",
"253 410 CURVE SMOOTH",
"253 329 LINE",
"193 315 LINE SMOOTH",
"101 293 OFFCURVE",
"20 247 OFFCURVE",
"20 133 CURVE SMOOTH",
"20 43 OFFCURVE",
"80 -12 OFFCURVE",
"173 -12 CURVE SMOOTH"
);
},
{
closed = 1;
nodes = (
"177 98 OFFCURVE",
"163 124 OFFCURVE",
"163 158 CURVE SMOOTH",
"163 199 OFFCURVE",
"180 225 OFFCURVE",
"222 244 CURVE SMOOTH",
"253 257 LINE",
"253 160 LINE SMOOTH",
"253 116 OFFCURVE",
"236 98 OFFCURVE",
"209 98 CURVE SMOOTH"
);
},
{
closed = 1;
nodes = (
"407 414 LINE SMOOTH",
"407 451 OFFCURVE",
"420 470 OFFCURVE",
"450 470 CURVE SMOOTH",
"476 470 OFFCURVE",
"489 450 OFFCURVE",
"489 424 CURVE SMOOTH",
"489 387 OFFCURVE",
"468 368 OFFCURVE",
"423 359 CURVE SMOOTH",
"407 356 LINE"
);
}
);
width = 662;
}
);
leftKerningGroup = a;
leftMetricsKey = a;
rightKerningGroup = e;
rightMetricsKey = e;
unicode = 00E6;
userData = {
com.fontlab.hintData = {
hhints = (
{
position = -27;
width = 245;
},
{
position = 603;
width = 161;
},
{
position = 1016;
width = 229;
}
);
vhints = (
{
position = 50;
width = 318;
},
{
position = 529;
width = 347;
},
{
position = 1014;
width = 303;
}
);
};
};
},
{
color = 3;
glyphname = b;
layers = (
{
anchors = (
{
name = bottom;
position = "{199, 0}";
},
{
name = top;
position = "{84, 810}";
}
);
layerId = "FCD7E481-103E-4A6C-AD70-01DA443B2AD0";
paths = (
{
closed = 1;
nodes = (
"320 -9 OFFCURVE",
"352 76 OFFCURVE",
"352 238 CURVE SMOOTH",
"352 349 LINE SMOOTH",
"352 494 OFFCURVE",
"328 587 OFFCURVE",
"221 587 CURVE SMOOTH",
"168 587 OFFCURVE",
"131 557 OFFCURVE",
"110 529 CURVE",
"110 810 LINE",
"57 810 LINE",
"57 0 LINE",
"110 0 LINE",
"110 48 LINE",
"131 22 OFFCURVE",
"166 -9 OFFCURVE",
"216 -9 CURVE SMOOTH"
);
},
{
closed = 1;
nodes = (
"167 32 OFFCURVE",
"133 57 OFFCURVE",
"110 84 CURVE",
"110 492 LINE",
"131 515 OFFCURVE",
"167 546 OFFCURVE",
"210 546 CURVE SMOOTH",
"285 546 OFFCURVE",
"298 487 OFFCURVE",
"298 349 CURVE SMOOTH",
"298 236 LINE SMOOTH",
"298 95 OFFCURVE",
"282 32 OFFCURVE",
"209 32 CURVE SMOOTH"
);
}
);
width = 397;
},
{
associatedMasterId = "FCD7E481-103E-4A6C-AD70-01DA443B2AD0";
layerId = "7299F130-3C4F-4A39-8F64-121A1F638363";
name = b;
width = 526;
},
{
anchors = (
{
name = bottom;
position = "{224, 0}";
},
{
name = top;
position = "{110, 810}";
}
);
layerId = "8AC5A1D3-32A8-4416-86FC-94176A419B8F";
paths = (
{
closed = 1;
nodes = (
"375 -8 OFFCURVE",
"404 106 OFFCURVE",
"404 229 CURVE SMOOTH",
"404 369 LINE SMOOTH",
"404 438 OFFCURVE",
"393 586 OFFCURVE",
"272 586 CURVE SMOOTH",
"223 586 OFFCURVE",
"188 561 OFFCURVE",
"163 532 CURVE",
"163 810 LINE",
"56 810 LINE",
"56 0 LINE",
"163 0 LINE",
"163 42 LINE",
"187 16 OFFCURVE",
"220 -8 OFFCURVE",
"261 -8 CURVE SMOOTH"
);
},
{
closed = 1;
nodes = (
"208 76 OFFCURVE",
"182 87 OFFCURVE",
"163 102 CURVE",
"163 473 LINE",
"182 488 OFFCURVE",
"207 502 OFFCURVE",
"235 502 CURVE SMOOTH",
"290 502 OFFCURVE",
"297 441 OFFCURVE",
"297 369 CURVE SMOOTH",
"297 229 LINE SMOOTH",
"297 144 OFFCURVE",
"294 76 OFFCURVE",
"239 76 CURVE SMOOTH"
);
}
);
width = 447;
},
{
anchors = (
{
name = bottom;
position = "{253, 0}";
},
{
name = top;
position = "{133, 810}";
}
);
layerId = "F66B25F0-8957-42F3-9BF7-6C5DDCB0258B";
paths = (
{
closed = 1;
nodes = (
"420 -10 OFFCURVE",
"464 61 OFFCURVE",
"464 169 CURVE SMOOTH",
"464 418 LINE SMOOTH",
"464 512 OFFCURVE",
"428 588 OFFCURVE",
"340 588 CURVE SMOOTH",
"299 588 OFFCURVE",
"254 571 OFFCURVE",
"214 536 CURVE",
"214 810 LINE",
"51 810 LINE",
"51 0 LINE",
"214 0 LINE",
"214 44 LINE",
"252 11 OFFCURVE",
"295 -10 OFFCURVE",
"338 -10 CURVE SMOOTH"
);
},
{
closed = 1;
nodes = (
"244 95 OFFCURVE",
"228 101 OFFCURVE",
"214 111 CURVE",
"214 471 LINE",
"228 482 OFFCURVE",
"243 490 OFFCURVE",
"261 490 CURVE SMOOTH",
"290 490 OFFCURVE",
"301 463 OFFCURVE",
"301 430 CURVE SMOOTH",
"301 160 LINE SMOOTH",
"301 124 OFFCURVE",
"290 95 OFFCURVE",
"259 95 CURVE SMOOTH"
);
}
);
width = 506;
}
);
leftKerningGroup = h;
rightKerningGroup = o;
unicode = 0062;
userData = {
com.typemytype.robofont.layerData = {
b = {
anchors = (
);
components = (
);
contours = (
);
lib = {
};
name = b;
unicodes = (
);
width = 1077;
};
};
};
},
{
color = 3;
glyphname = c;
layers = (
{
anchors = (
{
name = bottom;
position = "{188, 0}";
},
{
name = top;
position = "{188, 578}";
}
);
layerId = "FCD7E481-103E-4A6C-AD70-01DA443B2AD0";
paths = (
{
closed = 1;
nodes = (
"318 -9 OFFCURVE",
"333 79 OFFCURVE",
"333 195 CURVE SMOOTH",
"333 216 LINE",
"283 216 LINE",
"283 194 LINE SMOOTH",
"283 79 OFFCURVE",
"271 31 OFFCURVE",
"193 31 CURVE SMOOTH",
"117 31 OFFCURVE",
"99 83 OFFCURVE",
"99 209 CURVE SMOOTH",
"99 359 LINE SMOOTH",
"99 496 OFFCURVE",
"114 547 OFFCURVE",
"192 547 CURVE SMOOTH",
"256 547 OFFCURVE",
"283 517 OFFCURVE",
"283 400 CURVE SMOOTH",
"283 377 LINE",
"333 377 LINE",
"333 400 LINE SMOOTH",
"333 506 OFFCURVE",
"312 587 OFFCURVE",
"192 587 CURVE SMOOTH",
"79 587 OFFCURVE",
"46 523 OFFCURVE",
"46 353 CURVE SMOOTH",
"46 217 LINE SMOOTH",
"46 91 OFFCURVE",
"62 -9 OFFCURVE",
"192 -9 CURVE SMOOTH"
);
}
);
width = 375;
},
{
associatedMasterId = "FCD7E481-103E-4A6C-AD70-01DA443B2AD0";
layerId = "AD89B645-3C04-4879-83D0-D43B0945470C";
name = b;
width = 488;
},
{
anchors = (
{
name = bottom;
position = "{206, 0}";
},
{
name = top;
position = "{206, 578}";
}
);
layerId = "8AC5A1D3-32A8-4416-86FC-94176A419B8F";
paths = (
{
closed = 1;
nodes = (
"336 -8 OFFCURVE",
"370 61 OFFCURVE",
"370 178 CURVE SMOOTH",
"370 218 LINE",
"273 218 LINE",
"273 171 LINE SMOOTH",
"273 112 OFFCURVE",
"267 71 OFFCURVE",
"214 71 CURVE SMOOTH",
"166 71 OFFCURVE",
"150 96 OFFCURVE",
"150 195 CURVE SMOOTH",
"150 377 LINE SMOOTH",
"150 475 OFFCURVE",
"160 507 OFFCURVE",
"213 507 CURVE SMOOTH",
"260 507 OFFCURVE",
"273 480 OFFCURVE",
"273 405 CURVE SMOOTH",
"273 370 LINE",
"370 370 LINE",
"370 404 LINE SMOOTH",
"370 523 OFFCURVE",
"338 586 OFFCURVE",
"212 586 CURVE SMOOTH",
"72 586 OFFCURVE",
"43 500 OFFCURVE",
"43 355 CURVE SMOOTH",
"43 222 LINE SMOOTH",
"43 83 OFFCURVE",
"70 -8 OFFCURVE",
"212 -8 CURVE SMOOTH"
);
}
);
width = 411;
},
{
anchors = (
{
name = bottom;
position = "{235, 0}";
},
{
name = top;
position = "{235, 578}";
}
);
layerId = "F66B25F0-8957-42F3-9BF7-6C5DDCB0258B";
paths = (
{
closed = 1;
nodes = (
"361 -10 OFFCURVE",
"434 49 OFFCURVE",
"434 166 CURVE SMOOTH",
"434 236 LINE",
"277 236 LINE",
"277 159 LINE SMOOTH",
"277 117 OFFCURVE",
"265 102 OFFCURVE",
"240 102 CURVE SMOOTH",
"216 102 OFFCURVE",
"203 117 OFFCURVE",
"203 169 CURVE SMOOTH",
"203 409 LINE SMOOTH",
"203 460 OFFCURVE",
"215 477 OFFCURVE",
"239 477 CURVE SMOOTH",
"263 477 OFFCURVE",
"277 465 OFFCURVE",
"277 419 CURVE SMOOTH",
"277 353 LINE",
"434 353 LINE",
"434 414 LINE SMOOTH",
"434 531 OFFCURVE",
"362 588 OFFCURVE",
"239 588 CURVE SMOOTH",
"113 588 OFFCURVE",
"39 518 OFFCURVE",
"39 395 CURVE SMOOTH",
"39 183 LINE SMOOTH",
"39 62 OFFCURVE",
"113 -10 OFFCURVE",
"239 -10 CURVE SMOOTH"
);
}
);
width = 468;
}
);
leftKerningGroup = o;
rightKerningGroup = c;
unicode = 0063;
userData = {
com.fontlab.hintData = {
hhints = (
{
position = -22;
width = 263;
},
{
position = 945;
width = 261;
}
);
vhints = (
{
position = 72;
width = 374;
}
);
};
com.typemytype.robofont.layerData = {
b = {
anchors = (
);
components = (
);
contours = (
);
lib = {
};
name = c;
unicodes = (
);
width = 1000;
};
};
};
},
{
color = 3;
glyphname = d;
layers = (
{
anchors = (
{
name = bottom;
position = "{198, 0}";
},
{
name = center;
position = "{198, 289}";
},
{
name = top;
position = "{311, 810}";
},
{
name = topright;
position = "{392, 810}";
}
);
layerId = "FCD7E481-103E-4A6C-AD70-01DA443B2AD0";
paths = (
{
closed = 1;
nodes = (
"229 -9 OFFCURVE",
"263 19 OFFCURVE",
"284 44 CURVE",
"284 0 LINE",
"337 0 LINE",
"337 810 LINE",
"284 810 LINE",
"284 534 LINE",
"263 560 OFFCURVE",
"228 587 OFFCURVE",
"179 587 CURVE SMOOTH",
"73 587 OFFCURVE",
"46 503 OFFCURVE",
"46 340 CURVE SMOOTH",
"46 237 LINE SMOOTH",
"46 62 OFFCURVE",
"82 -9 OFFCURVE",
"182 -9 CURVE SMOOTH"
);
},
{
closed = 1;
nodes = (
"117 32 OFFCURVE",
"99 93 OFFCURVE",
"99 233 CURVE SMOOTH",
"99 353 LINE SMOOTH",
"99 488 OFFCURVE",
"114 546 OFFCURVE",
"188 546 CURVE SMOOTH",
"229 546 OFFCURVE",
"263 517 OFFCURVE",
"284 496 CURVE",
"284 81 LINE",
"261 55 OFFCURVE",
"227 32 OFFCURVE",
"189 32 CURVE SMOOTH"
);
}
);
width = 395;
},
{
associatedMasterId = "FCD7E481-103E-4A6C-AD70-01DA443B2AD0";
layerId = "0C242771-698E-4ECF-88BF-BA92679E2B8D";
name = b;
width = 524;
},
{
anchors = (
{
name = bottom;
position = "{221, 0}";
},
{
name = center;
position = "{221, 289}";
},
{
name = top;
position = "{335, 810}";
},
{
name = topright;
position = "{436, 810}";
}
);
layerId = "8AC5A1D3-32A8-4416-86FC-94176A419B8F";
paths = (
{
closed = 1;
nodes = (
"226 -8 OFFCURVE",
"256 10 OFFCURVE",
"281 37 CURVE",
"281 0 LINE",
"388 0 LINE",
"388 810 LINE",
"281 810 LINE",
"281 541 LINE",
"256 566 OFFCURVE",
"224 586 OFFCURVE",
"185 586 CURVE SMOOTH",
"67 586 OFFCURVE",
"43 471 OFFCURVE",
"43 339 CURVE SMOOTH",
"43 227 LINE SMOOTH",
"43 56 OFFCURVE",
"90 -8 OFFCURVE",
"188 -8 CURVE SMOOTH"
);
},
{
closed = 1;
nodes = (
"158 76 OFFCURVE",
"150 137 OFFCURVE",
"150 218 CURVE SMOOTH",
"150 381 LINE SMOOTH",
"150 447 OFFCURVE",
"163 502 OFFCURVE",
"213 502 CURVE SMOOTH",
"239 502 OFFCURVE",
"262 490 OFFCURVE",
"281 477 CURVE",
"281 98 LINE",
"258 83 OFFCURVE",
"235 76 OFFCURVE",
"215 76 CURVE SMOOTH"
);
}
);
width = 442;
},
{
anchors = (
{
name = bottom;
position = "{252, 0}";
},
{
name = center;
position = "{252, 289}";
},
{
name = top;
position = "{371, 810}";
},
{
name = topright;
position = "{503, 810}";
}
);
layerId = "F66B25F0-8957-42F3-9BF7-6C5DDCB0258B";
paths = (
{
closed = 1;
nodes = (
"215 -10 OFFCURVE",
"254 10 OFFCURVE",
"290 45 CURVE",
"290 0 LINE",
"453 0 LINE",
"453 810 LINE",
"290 810 LINE",
"290 542 LINE",
"258 570 OFFCURVE",
"219 588 OFFCURVE",
"176 588 CURVE SMOOTH",
"87 588 OFFCURVE",
"42 514 OFFCURVE",
"42 407 CURVE SMOOTH",
"42 168 LINE SMOOTH",
"42 50 OFFCURVE",
"90 -10 OFFCURVE",
"176 -10 CURVE SMOOTH"
);
},
{
closed = 1;
nodes = (
"217 94 OFFCURVE",
"206 122 OFFCURVE",
"206 158 CURVE SMOOTH",
"206 424 LINE SMOOTH",
"206 459 OFFCURVE",
"218 487 OFFCURVE",
"248 487 CURVE SMOOTH",
"261 487 OFFCURVE",
"277 481 OFFCURVE",
"290 474 CURVE",
"290 109 LINE",
"274 99 OFFCURVE",
"258 94 OFFCURVE",
"247 94 CURVE SMOOTH"
);
}
);
width = 503;
}
);
leftKerningGroup = o;
rightKerningGroup = d;
unicode = 0064;
userData = {
com.fontlab.hintData = {
hhints = (
{
position = -22;
width = 226;
},
{
position = 986;
width = 220;
}
);
};
com.typemytype.robofont.layerData = {
b = {
anchors = (
);
components = (
);
contours = (
);
lib = {
};
name = d;
unicodes = (
);
width = 1074;
};
};
};
},
{
glyphname = dcroat;
layers = (
{
layerId = "FCD7E481-103E-4A6C-AD70-01DA443B2AD0";
paths = (
{
closed = 1;
nodes = (
"229 -9 OFFCURVE",
"263 19 OFFCURVE",
"284 44 CURVE",
"284 0 LINE",
"337 0 LINE",
"337 690 LINE",
"394 690 LINE",
"394 725 LINE",
"337 725 LINE",
"337 810 LINE",
"284 810 LINE",
"284 725 LINE",
"200 725 LINE",
"200 690 LINE",
"284 690 LINE",
"284 534 LINE",
"263 560 OFFCURVE",
"228 587 OFFCURVE",
"179 587 CURVE SMOOTH",
"73 587 OFFCURVE",
"46 503 OFFCURVE",
"46 340 CURVE SMOOTH",
"46 237 LINE SMOOTH",
"46 62 OFFCURVE",
"82 -9 OFFCURVE",
"182 -9 CURVE SMOOTH"
);
},
{
closed = 1;
nodes = (
"117 32 OFFCURVE",
"99 93 OFFCURVE",
"99 233 CURVE SMOOTH",
"99 353 LINE SMOOTH",
"99 488 OFFCURVE",
"114 546 OFFCURVE",
"188 546 CURVE SMOOTH",
"229 546 OFFCURVE",
"263 517 OFFCURVE",
"284 496 CURVE",
"284 81 LINE",
"261 55 OFFCURVE",
"227 32 OFFCURVE",
"189 32 CURVE SMOOTH"
);
}
);
width = 410;
},
{
associatedMasterId = "FCD7E481-103E-4A6C-AD70-01DA443B2AD0";
layerId = "4A8C991C-2B0D-4517-B7B2-82E8361DA185";
name = b;
width = 515;
},
{
layerId = "8AC5A1D3-32A8-4416-86FC-94176A419B8F";
paths = (
{
closed = 1;
nodes = (
"226 -8 OFFCURVE",
"256 10 OFFCURVE",
"281 37 CURVE",
"281 0 LINE",
"388 0 LINE",
"388 679 LINE",
"447 679 LINE",
"447 738 LINE",
"388 738 LINE",
"388 810 LINE",
"281 810 LINE",
"281 738 LINE",
"169 738 LINE",
"169 679 LINE",
"281 679 LINE",
"281 541 LINE",
"256 566 OFFCURVE",
"224 586 OFFCURVE",
"185 586 CURVE SMOOTH",
"67 586 OFFCURVE",
"43 471 OFFCURVE",
"43 339 CURVE SMOOTH",
"43 227 LINE SMOOTH",
"43 56 OFFCURVE",
"90 -8 OFFCURVE",
"188 -8 CURVE SMOOTH"
);
},
{
closed = 1;
nodes = (
"158 76 OFFCURVE",
"150 137 OFFCURVE",
"150 218 CURVE SMOOTH",
"150 381 LINE SMOOTH",
"150 447 OFFCURVE",
"163 502 OFFCURVE",
"213 502 CURVE SMOOTH",
"239 502 OFFCURVE",
"262 490 OFFCURVE",
"281 477 CURVE",
"281 98 LINE",
"258 83 OFFCURVE",
"235 76 OFFCURVE",
"215 76 CURVE SMOOTH"
);
}
);
width = 454;
},
{
layerId = "F66B25F0-8957-42F3-9BF7-6C5DDCB0258B";
paths = (
{
closed = 1;
nodes = (
"213 -10 OFFCURVE",
"251 10 OFFCURVE",
"285 45 CURVE",
"285 0 LINE",
"448 0 LINE",
"448 681 LINE",
"497 681 LINE",
"497 747 LINE",
"448 747 LINE",
"448 810 LINE",
"285 810 LINE",
"285 747 LINE",
"151 747 LINE",
"151 681 LINE",
"285 681 LINE",
"285 542 LINE",
"253 570 OFFCURVE",
"215 588 OFFCURVE",
"173 588 CURVE SMOOTH",
"84 588 OFFCURVE",
"39 514 OFFCURVE",
"39 407 CURVE SMOOTH",
"39 168 LINE SMOOTH",
"39 50 OFFCURVE",
"87 -10 OFFCURVE",
"173 -10 CURVE SMOOTH"
);
},
{
closed = 1;
nodes = (
"214 94 OFFCURVE",
"203 122 OFFCURVE",
"203 158 CURVE SMOOTH",
"203 424 LINE SMOOTH",
"203 459 OFFCURVE",
"215 487 OFFCURVE",
"245 487 CURVE SMOOTH",
"258 487 OFFCURVE",
"272 481 OFFCURVE",
"285 474 CURVE",
"285 109 LINE",
"270 99 OFFCURVE",
"255 94 OFFCURVE",
"244 94 CURVE SMOOTH"
);
}
);
width = 500;
}
);
leftKerningGroup = o;
rightKerningGroup = d;
unicode = 0111;
userData = {
com.fontlab.hintData = {
hhints = (
{
position = -22;
width = 226;
},
{
position = 986;
width = 220;
}
);
};
com.typemytype.robofont.layerData = {
b = {
anchors = (
);
components = (
);
contours = (
);
lib = {
};
name = dcroat;
unicodes = (
);
width = 1055;
};
};
};
},
{
glyphname = eth;
layers = (
{
layerId = "FCD7E481-103E-4A6C-AD70-01DA443B2AD0";
paths = (
{
closed = 1;
nodes = (
"337 -11 OFFCURVE",
"370 79 OFFCURVE",
"370 248 CURVE SMOOTH",
"370 332 LINE SMOOTH",
"370 503 OFFCURVE",
"331 638 OFFCURVE",
"313 679 CURVE",
"380 697 LINE",
"380 730 LINE",
"299 709 LINE",
"258 793 OFFCURVE",
"183 822 OFFCURVE",
"84 828 CURVE",
"81 791 LINE",
"170 783 OFFCURVE",
"228 754 OFFCURVE",
"256 695 CURVE",
"168 671 LINE",
"168 638 LINE",
"271 666 LINE",
"287 635 OFFCURVE",
"299 575 OFFCURVE",
"306 529 CURVE",
"276 545 OFFCURVE",
"243 556 OFFCURVE",
"208 556 CURVE SMOOTH",
"110 556 OFFCURVE",
"56 477 OFFCURVE",
"55 302 CURVE SMOOTH",
"55 223 LINE SMOOTH",
"55 79 OFFCURVE",
"97 -11 OFFCURVE",
"215 -11 CURVE SMOOTH"
);
},
{
closed = 1;
nodes = (
"141 32 OFFCURVE",
"107 103 OFFCURVE",
"107 257 CURVE SMOOTH",
"107 448 OFFCURVE",
"146 514 OFFCURVE",
"220 514 CURVE SMOOTH",
"252 514 OFFCURVE",
"281 502 OFFCURVE",
"308 489 CURVE",
"310 480 OFFCURVE",
"318 335 OFFCURVE",
"318 283 CURVE SMOOTH",
"318 101 OFFCURVE",
"305 32 OFFCURVE",
"217 32 CURVE SMOOTH"
);
}
);
width = 430;
},
{
associatedMasterId = "FCD7E481-103E-4A6C-AD70-01DA443B2AD0";
layerId = "6E2118F9-BBA8-48C2-BC42-30B97830501D";
name = b;
paths = (
{
closed = 1;
nodes = (
"197 15 CURVE SMOOTH",
"134 15 OFFCURVE",
"86 71 OFFCURVE",
"86 246 CURVE SMOOTH",
"86 440 OFFCURVE",
"129 489 OFFCURVE",
"216 489 CURVE SMOOTH",
"243 489 OFFCURVE",
"280 481 OFFCURVE",
"308 466 CURVE",
"311 455 OFFCURVE",
"322 380 OFFCURVE",
"322 309 CURVE SMOOTH",
"322 87 OFFCURVE",
"291 15 OFFCURVE"
);
},
{
closed = 1;
nodes = (
"196 -12 CURVE SMOOTH",
"310 -12 OFFCURVE",
"351 83 OFFCURVE",
"351 260 CURVE SMOOTH",
"351 303 LINE SMOOTH",
"351 471 OFFCURVE",
"297 643 OFFCURVE",
"284 676 CURVE",
"354 694 LINE",
"354 719 LINE",
"274 698 LINE",
"233 791 OFFCURVE",
"171 824 OFFCURVE",
"85 831 CURVE",
"82 808 LINE",
"169 797 OFFCURVE",
"218 761 OFFCURVE",
"247 689 CURVE",
"175 671 LINE",
"175 646 LINE",
"258 667 LINE",
"275 626 OFFCURVE",
"293 561 OFFCURVE",
"306 489 CURVE",
"274 507 OFFCURVE",
"240 515 OFFCURVE",
"212 515 CURVE SMOOTH",
"120 514 OFFCURVE",
"51 459 OFFCURVE",
"55 262 CURVE SMOOTH",
"56 223 LINE SMOOTH",
"60 79 OFFCURVE",
"102 -12 OFFCURVE"
);
}
);
width = 413;
},
{
layerId = "8AC5A1D3-32A8-4416-86FC-94176A419B8F";
paths = (
{
closed = 1;
nodes = (
"369 -9 OFFCURVE",
"416 88 OFFCURVE",
"416 237 CURVE SMOOTH",
"416 377 LINE SMOOTH",
"416 501 OFFCURVE",
"395 588 OFFCURVE",
"353 681 CURVE",
"442 705 LINE",
"442 759 LINE",
"326 725 LINE",
"282 789 OFFCURVE",
"211 818 OFFCURVE",
"82 819 CURVE",
"77 749 LINE",
"172 748 OFFCURVE",
"214 730 OFFCURVE",
"242 698 CURVE",
"152 672 LINE",
"152 618 LINE",
"271 655 LINE",
"290 626 OFFCURVE",
"301 573 OFFCURVE",
"306 521 CURVE",
"287 538 OFFCURVE",
"255 557 OFFCURVE",
"209 557 CURVE SMOOTH",
"77 557 OFFCURVE",
"52 438 OFFCURVE",
"52 292 CURVE SMOOTH",
"52 225 LINE SMOOTH",
"52 80 OFFCURVE",
"112 -9 OFFCURVE",
"237 -9 CURVE SMOOTH"
);
},
{
closed = 1;
nodes = (
"165 76 OFFCURVE",
"159 147 OFFCURVE",
"159 284 CURVE SMOOTH",
"159 410 OFFCURVE",
"176 469 OFFCURVE",
"236 469 CURVE SMOOTH",
"266 469 OFFCURVE",
"290 452 OFFCURVE",
"308 436 CURVE",
"308 364 OFFCURVE",
"308 291 OFFCURVE",
"308 219 CURVE SMOOTH",
"308 133 OFFCURVE",
"295 76 OFFCURVE",
"237 76 CURVE SMOOTH"
);
}
);
width = 471;
},
{
associatedMasterId = "8AC5A1D3-32A8-4416-86FC-94176A419B8F";
layerId = "C302B57D-4511-4125-9800-54048E6D8BDD";
name = "Sep 22 17, 11:23";
paths = (
{
closed = 1;
nodes = (
"366 -9 OFFCURVE",
"416 88 OFFCURVE",
"416 237 CURVE SMOOTH",
"416 377 LINE SMOOTH",
"416 501 OFFCURVE",
"395 588 OFFCURVE",
"353 681 CURVE",
"442 705 LINE",
"442 759 LINE",
"326 725 LINE",
"282 789 OFFCURVE",
"211 818 OFFCURVE",
"82 819 CURVE",
"77 749 LINE",
"172 748 OFFCURVE",
"214 730 OFFCURVE",
"242 698 CURVE",
"152 672 LINE",
"152 618 LINE",
"271 655 LINE",
"290 626 OFFCURVE",
"301 573 OFFCURVE",
"306 521 CURVE",
"287 538 OFFCURVE",
"255 557 OFFCURVE",
"209 557 CURVE SMOOTH",
"77 557 OFFCURVE",
"52 438 OFFCURVE",
"52 292 CURVE SMOOTH",
"52 225 LINE SMOOTH",
"52 80 OFFCURVE",
"79 -9 OFFCURVE",
"227 -9 CURVE SMOOTH"
);
},
{
closed = 1;
nodes = (
"144 76 OFFCURVE",
"159 181 OFFCURVE",
"159 284 CURVE SMOOTH",
"159 410 OFFCURVE",
"176 469 OFFCURVE",
"236 469 CURVE SMOOTH",
"266 469 OFFCURVE",
"290 452 OFFCURVE",
"308 436 CURVE",
"308 364 OFFCURVE",
"308 291 OFFCURVE",
"308 219 CURVE SMOOTH",
"308 133 OFFCURVE",
"300 76 OFFCURVE",
"230 76 CURVE SMOOTH"
);
}
);
visible = 1;
width = 471;
},
{
layerId = "F66B25F0-8957-42F3-9BF7-6C5DDCB0258B";
paths = (
{
closed = 1;
nodes = (
"376 -14 OFFCURVE",
"469 35 OFFCURVE",
"469 215 CURVE SMOOTH",
"469 443 LINE SMOOTH",
"469 608 OFFCURVE",
"430 693 OFFCURVE",
"402 741 CURVE",
"477 782 LINE",
"459 823 LINE",
"373 776 LINE",
"332 820 OFFCURVE",
"257 844 OFFCURVE",
"143 844 CURVE",
"136 742 LINE",
"201 742 OFFCURVE",
"242 729 OFFCURVE",
"256 710 CURVE",
"177 668 LINE",
"195 627 LINE",
"282 673 LINE",
"294 657 OFFCURVE",
"305 616 OFFCURVE",
"306 564 CURVE",
"287 574 OFFCURVE",
"261 582 OFFCURVE",
"230 582 CURVE SMOOTH",
"134 582 OFFCURVE",
"54 505 OFFCURVE",
"54 380 CURVE SMOOTH",
"54 211 LINE SMOOTH",
"54 51 OFFCURVE",
"148 -14 OFFCURVE",
"262 -14 CURVE SMOOTH"
);
},
{
closed = 1;
nodes = (
"217 94 OFFCURVE",
"213 144 OFFCURVE",
"213 289 CURVE SMOOTH",
"213 434 OFFCURVE",
"223 477 OFFCURVE",
"269 477 CURVE SMOOTH",
"283 477 OFFCURVE",
"295 471 OFFCURVE",
"306 465 CURVE",
"306 368 OFFCURVE",
"306 271 OFFCURVE",
"306 173 CURVE SMOOTH",
"306 124 OFFCURVE",
"297 94 OFFCURVE",
"266 94 CURVE SMOOTH"
);
}
);
width = 520;
}
);
leftKerningGroup = o;
unicode = 00F0;
userData = {
com.fontlab.hintData = {
hhints = (
{
position = -34;
width = 238;
},
{
position = 986;
width = 220;
},
{
position = 1486;
width = 259;
}
);
vhints = (
{
position = 72;
width = 364;
},
{
position = 588;
width = 372;
}
);
};
com.typemytype.robofont.layerData = {
b = {
anchors = (
);
components = (
);
contours = (
{
points = (
{
segmentType = curve;
smooth = 1;
x = 402.50049;
y = 30;
},
{
smooth = 0;
x = 273.50049;
y = 30;
},
{
smooth = 0;
x = 175.5005;
y = 146;
},
{
segmentType = curve;
smooth = 1;
x = 175.5005;
y = 504;
},
{
smooth = 0;
x = 175.5005;
y = 902;
},
{
smooth = 0;
x = 264;
y = 1001;
},
{
segmentType = curve;
smooth = 1;
x = 442;
y = 1001;
},
{
smooth = 0;
x = 497;
y = 1001;
},
{
smooth = 0;
x = 573;
y = 985;
},
{
segmentType = curve;
smooth = 0;
x = 631;
y = 955;
},
{
smooth = 0;
x = 636;
y = 931;
},
{
smooth = 0;
x = 658.50049;
y = 778;
},
{
segmentType = curve;
smooth = 1;
x = 658.50049;
y = 633;
},
{
smooth = 0;
x = 658.50049;
y = 178;
},
{
smooth = 0;
x = 596.50049;
y = 30;
}
);
},
{
points = (
{
segmentType = curve;
smooth = 1;
x = 400.50049;
y = -24;
},
{
smooth = 0;
x = 635.50049;
y = -24;
},
{
smooth = 0;
x = 718.50049;
y = 169;
},
{
segmentType = curve;
smooth = 1;
x = 718.50049;
y = 533;
},
{
segmentType = line;
smooth = 1;
x = 718.50049;
y = 621;
},
{
smooth = 0;
x = 718.50049;
y = 965;
},
{
smooth = 0;
x = 608.78748;
y = 1316.63;
},
{
segmentType = curve;
smooth = 0;
x = 581.50049;
y = 1384;
},
{
segmentType = line;
smooth = 0;
x = 725.50049;
y = 1421;
},
{
segmentType = line;
smooth = 0;
x = 725.50049;
y = 1472;
},
{
segmentType = line;
smooth = 0;
x = 560.50049;
y = 1430;
},
{
smooth = 0;
x = 477.50049;
y = 1620;
},
{
smooth = 0;
x = 349.50049;
y = 1687;
},
{
segmentType = curve;
smooth = 0;
x = 173.5005;
y = 1702;
},
{
segmentType = line;
smooth = 0;
x = 168.5005;
y = 1655;
},
{
smooth = 0;
x = 346.50049;
y = 1632;
},
{
smooth = 0;
x = 446.50049;
y = 1558;
},
{
segmentType = curve;
smooth = 0;
x = 505.50049;
y = 1412;
},
{
segmentType = line;
smooth = 0;
x = 358.50049;
y = 1374;
},
{
segmentType = line;
smooth = 0;
x = 358.50049;
y = 1324;
},
{
segmentType = line;
smooth = 0;
x = 528.50049;
y = 1367;
},
{
smooth = 0;
x = 562.50049;
y = 1282;
},
{
smooth = 0;
x = 601;
y = 1148;
},
{
segmentType = curve;
smooth = 0;
x = 626;
y = 1001;
},
{
smooth = 0;
x = 562;
y = 1038;
},
{
smooth = 0;
x = 491;
y = 1055;
},
{
segmentType = curve;
smooth = 1;
x = 434;
y = 1055;
},
{
smooth = 0;
x = 245;
y = 1053;
},
{
smooth = 0;
x = 103.5005;
y = 941;
},
{
segmentType = curve;
smooth = 1;
x = 113.5005;
y = 536;
},
{
segmentType = line;
smooth = 1;
x = 115.5005;
y = 456;
},
{
smooth = 0;
x = 122.5005;
y = 161;
},
{
smooth = 0;
x = 208.8085;
y = -24;
}
);
}
);
lib = {
};
name = eth;
unicodes = (
);
width = 845;
};
};
};
},
{
color = 3;
glyphname = e;
layers = (
{
anchors = (
{
name = bottom;
position = "{190, 0}";
},
{
name = ogonek;
position = "{231, 10}";
},
{
name = top;
position = "{190, 578}";
}
);
layerId = "FCD7E481-103E-4A6C-AD70-01DA443B2AD0";
paths = (
{
closed = 1;
nodes = (
"302 -9 OFFCURVE",
"336 58 OFFCURVE",
"336 157 CURVE SMOOTH",
"336 195 LINE",
"284 195 LINE",
"284 152 LINE SMOOTH",
"284 41 OFFCURVE",
"235 31 OFFCURVE",
"193 31 CURVE SMOOTH",
"126 31 OFFCURVE",
"99 71 OFFCURVE",
"99 210 CURVE SMOOTH",
"99 302 LINE",
"336 302 LINE",
"336 357 LINE SMOOTH",
"336 523 OFFCURVE",
"302 587 OFFCURVE",
"194 587 CURVE SMOOTH",
"103 587 OFFCURVE",
"46 549 OFFCURVE",
"46 368 CURVE SMOOTH",
"46 214 LINE SMOOTH",
"46 35 OFFCURVE",
"101 -9 OFFCURVE",
"193 -9 CURVE SMOOTH"
);
},
{
closed = 1;
nodes = (
"99 378 LINE SMOOTH",
"99 515 OFFCURVE",
"129 547 OFFCURVE",
"194 547 CURVE SMOOTH",
"275 547 OFFCURVE",
"284 482 OFFCURVE",
"284 379 CURVE SMOOTH",
"284 334 LINE",
"99 334 LINE"
);
}
);
width = 379;
},
{
associatedMasterId = "FCD7E481-103E-4A6C-AD70-01DA443B2AD0";
layerId = "00D77B0C-9F53-4E0E-8749-E1E3D46765C9";
name = b;
width = 486;
},
{
anchors = (
{
name = bottom;
position = "{211, 0}";
},
{
name = ogonek;
position = "{249, 10}";
},
{
name = top;
position = "{211, 578}";
}
);
layerId = "8AC5A1D3-32A8-4416-86FC-94176A419B8F";
paths = (
{
closed = 1;
nodes = (
"332 -8 OFFCURVE",
"377 63 OFFCURVE",
"377 179 CURVE SMOOTH",
"377 201 LINE",
"273 201 LINE",
"273 166 LINE SMOOTH",
"273 108 OFFCURVE",
"263 71 OFFCURVE",
"215 71 CURVE SMOOTH",
"169 71 OFFCURVE",
"150 101 OFFCURVE",
"150 171 CURVE SMOOTH",
"150 287 LINE",
"378 287 LINE",
"378 334 LINE SMOOTH",
"378 492 OFFCURVE",
"359 586 OFFCURVE",
"214 586 CURVE SMOOTH",
"81 586 OFFCURVE",
"43 508 OFFCURVE",
"43 355 CURVE SMOOTH",
"43 223 LINE SMOOTH",
"43 72 OFFCURVE",
"78 -8 OFFCURVE",
"214 -8 CURVE SMOOTH"
);
},
{
closed = 1;
nodes = (
"150 376 LINE SMOOTH",
"150 476 OFFCURVE",
"161 507 OFFCURVE",
"213 507 CURVE SMOOTH",
"266 507 OFFCURVE",
"273 468 OFFCURVE",
"273 397 CURVE SMOOTH",
"273 345 LINE",
"150 345 LINE"
);
}
);
width = 421;
},
{
anchors = (
{
name = bottom;
position = "{211, 0}";
},
{
name = ogonek;
position = "{249, 10}";
},
{
name = top;
position = "{211, 578}";
}
);
associatedMasterId = "8AC5A1D3-32A8-4416-86FC-94176A419B8F";
layerId = "9B5F88BA-9BDD-490A-9416-77A90CB6AE2A";
name = "Sep 22 17, 11:11";
paths = (
{
closed = 1;
nodes = (
"332 -8 OFFCURVE",
"377 63 OFFCURVE",
"377 179 CURVE SMOOTH",
"377 201 LINE",
"273 201 LINE",
"273 166 LINE SMOOTH",
"273 108 OFFCURVE",
"263 71 OFFCURVE",
"213 71 CURVE SMOOTH",
"148 71 OFFCURVE",
"150 133 OFFCURVE",
"150 210 CURVE SMOOTH",
"150 287 LINE",
"378 287 LINE",
"378 334 LINE SMOOTH",
"378 492 OFFCURVE",
"359 586 OFFCURVE",
"214 586 CURVE SMOOTH",
"81 586 OFFCURVE",
"43 508 OFFCURVE",
"43 355 CURVE SMOOTH",
"43 223 LINE SMOOTH",
"43 72 OFFCURVE",
"78 -8 OFFCURVE",
"214 -8 CURVE SMOOTH"
);
},
{
closed = 1;
nodes = (
"150 376 LINE SMOOTH",
"150 476 OFFCURVE",
"161 507 OFFCURVE",
"213 507 CURVE SMOOTH",
"266 507 OFFCURVE",
"273 468 OFFCURVE",
"273 397 CURVE SMOOTH",
"273 345 LINE",
"150 345 LINE"
);
}
);
visible = 1;
width = 421;
},
{
anchors = (
{
name = bottom;
position = "{235, 0}";
},
{
name = ogonek;
position = "{270, 10}";
},
{
name = top;
position = "{238, 578}";
}
);
layerId = "F66B25F0-8957-42F3-9BF7-6C5DDCB0258B";
paths = (
{
closed = 1;
nodes = (
"360 -10 OFFCURVE",
"432 50 OFFCURVE",
"432 167 CURVE SMOOTH",
"432 223 LINE",
"282 223 LINE",
"282 162 LINE SMOOTH",
"282 120 OFFCURVE",
"264 106 OFFCURVE",
"240 106 CURVE SMOOTH",
"216 106 OFFCURVE",
"200 123 OFFCURVE",
"200 168 CURVE SMOOTH",
"200 279 LINE",
"432 279 LINE",
"432 395 LINE SMOOTH",
"432 521 OFFCURVE",
"368 588 OFFCURVE",
"240 588 CURVE SMOOTH",
"115 588 OFFCURVE",
"39 519 OFFCURVE",
"39 395 CURVE SMOOTH",
"39 183 LINE SMOOTH",
"39 60 OFFCURVE",
"114 -10 OFFCURVE",
"240 -10 CURVE SMOOTH"
);
},
{
closed = 1;
nodes = (
"200 404 LINE SMOOTH",
"200 457 OFFCURVE",
"215 472 OFFCURVE",
"239 472 CURVE SMOOTH",
"264 472 OFFCURVE",
"282 459 OFFCURVE",
"282 413 CURVE SMOOTH",
"282 355 LINE",
"200 355 LINE"
);
}
);
width = 470;
}
);
leftKerningGroup = o;
rightKerningGroup = e;
unicode = 0065;
userData = {
com.fontlab.hintData = {
hhints = (
{
position = -22;
width = 263;
},
{
position = 943;
width = 263;
}
);
vhints = (
{
position = 72;
width = 368;
}
);
};
com.typemytype.robofont.layerData = {
b = {
anchors = (
);
components = (
);
contours = (
);
lib = {
};
name = e;
unicodes = (
);
width = 996;
};
};
};
},
{
glyphname = schwa;
layers = (
{
layerId = "FCD7E481-103E-4A6C-AD70-01DA443B2AD0";
paths = (
{
closed = 1;
nodes = (
"276 -11 OFFCURVE",
"333 27 OFFCURVE",
"333 208 CURVE SMOOTH",
"333 364 LINE SMOOTH",
"333 543 OFFCURVE",
"278 587 OFFCURVE",
"186 587 CURVE SMOOTH",
"77 587 OFFCURVE",
"43 520 OFFCURVE",
"43 421 CURVE SMOOTH",
"43 383 LINE",
"95 383 LINE",
"95 426 LINE SMOOTH",
"95 537 OFFCURVE",
"144 547 OFFCURVE",
"186 547 CURVE SMOOTH",
"253 547 OFFCURVE",
"280 507 OFFCURVE",
"280 368 CURVE SMOOTH",
"280 274 LINE",
"43 274 LINE",
"43 219 LINE SMOOTH",
"43 53 OFFCURVE",
"77 -11 OFFCURVE",
"185 -11 CURVE SMOOTH"
);
},
{
closed = 1;
nodes = (
"104 29 OFFCURVE",
"95 94 OFFCURVE",
"95 197 CURVE SMOOTH",
"95 242 LINE",
"280 242 LINE",
"280 198 LINE SMOOTH",
"280 61 OFFCURVE",
"250 29 OFFCURVE",
"185 29 CURVE SMOOTH"
);
}
);
width = 379;
},
{
layerId = "8AC5A1D3-32A8-4416-86FC-94176A419B8F";
paths = (
{
closed = 1;
nodes = (
"340 -9 OFFCURVE",
"378 69 OFFCURVE",
"378 222 CURVE SMOOTH",
"378 356 LINE SMOOTH",
"378 506 OFFCURVE",
"343 586 OFFCURVE",
"207 586 CURVE SMOOTH",
"89 586 OFFCURVE",
"44 515 OFFCURVE",
"44 400 CURVE SMOOTH",
"44 378 LINE",
"148 378 LINE",
"148 413 LINE SMOOTH",
"148 470 OFFCURVE",
"158 507 OFFCURVE",
"208 507 CURVE SMOOTH",
"263 507 OFFCURVE",
"271 460 OFFCURVE",
"271 402 CURVE SMOOTH",
"271 290 LINE",
"43 290 LINE",
"43 243 LINE SMOOTH",
"43 85 OFFCURVE",
"62 -9 OFFCURVE",
"207 -9 CURVE SMOOTH"
);
},
{
closed = 1;
nodes = (
"155 70 OFFCURVE",
"148 109 OFFCURVE",
"148 180 CURVE SMOOTH",
"148 232 LINE",
"271 232 LINE",
"271 201 LINE SMOOTH",
"271 101 OFFCURVE",
"260 70 OFFCURVE",
"208 70 CURVE SMOOTH"
);
}
);
width = 421;
},
{
associatedMasterId = "8AC5A1D3-32A8-4416-86FC-94176A419B8F";
layerId = "37A2F74A-D599-44A0-86ED-269CFA9CA59C";
name = "Sep 22 17, 11:24";
paths = (
{
closed = 1;
nodes = (
"340 -9 OFFCURVE",
"378 69 OFFCURVE",
"378 222 CURVE SMOOTH",
"378 356 LINE SMOOTH",
"378 506 OFFCURVE",
"343 586 OFFCURVE",
"207 586 CURVE SMOOTH",
"89 586 OFFCURVE",
"44 515 OFFCURVE",
"44 400 CURVE SMOOTH",
"44 378 LINE",
"148 378 LINE",
"148 413 LINE SMOOTH",
"148 470 OFFCURVE",
"158 507 OFFCURVE",
"208 507 CURVE SMOOTH",
"273 507 OFFCURVE",
"271 445 OFFCURVE",
"271 369 CURVE SMOOTH",
"271 290 LINE",
"43 290 LINE",
"43 243 LINE SMOOTH",
"43 85 OFFCURVE",
"62 -9 OFFCURVE",
"207 -9 CURVE SMOOTH"
);
},
{
closed = 1;
nodes = (
"155 70 OFFCURVE",
"148 109 OFFCURVE",
"148 180 CURVE SMOOTH",
"148 232 LINE",
"271 232 LINE",
"271 201 LINE SMOOTH",
"271 101 OFFCURVE",
"260 70 OFFCURVE",
"208 70 CURVE SMOOTH"
);
}
);
visible = 1;
width = 421;
},
{
layerId = "F66B25F0-8957-42F3-9BF7-6C5DDCB0258B";
paths = (
{
closed = 1;
nodes = (
"355 -12 OFFCURVE",
"431 57 OFFCURVE",
"431 182 CURVE SMOOTH",
"431 395 LINE SMOOTH",
"431 518 OFFCURVE",
"355 588 OFFCURVE",
"230 588 CURVE SMOOTH",
"110 588 OFFCURVE",
"38 528 OFFCURVE",
"38 412 CURVE SMOOTH",
"38 355 LINE",
"188 355 LINE",
"188 416 LINE SMOOTH",
"188 458 OFFCURVE",
"206 472 OFFCURVE",
"230 472 CURVE SMOOTH",
"256 472 OFFCURVE",
"269 451 OFFCURVE",
"269 409 CURVE SMOOTH",
"269 297 LINE",
"38 297 LINE",
"38 181 LINE SMOOTH",
"38 55 OFFCURVE",
"102 -12 OFFCURVE",
"230 -12 CURVE SMOOTH"
);
},
{
closed = 1;
nodes = (
"205 104 OFFCURVE",
"188 118 OFFCURVE",
"188 164 CURVE SMOOTH",
"188 221 LINE",
"269 221 LINE",
"269 172 LINE SMOOTH",
"269 120 OFFCURVE",
"255 104 OFFCURVE",
"230 104 CURVE SMOOTH"
);
}
);
width = 470;
}
);
leftMetricsKey = "=|e";
rightKerningGroup = o;
rightMetricsKey = "=|e";
unicode = 0259;
},
{
color = 4;
glyphname = ezh;
layers = (
{
anchors = (
{
name = bottom;
position = "{200, 0}";
},
{
name = top;
position = "{200, 578}";
}
);
layerId = "FCD7E481-103E-4A6C-AD70-01DA443B2AD0";
paths = (
{
closed = 1;
nodes = (
"319 -196 OFFCURVE",
"373 -102 OFFCURVE",
"373 31 CURVE SMOOTH",
"373 189 OFFCURVE",
"318 280 OFFCURVE",
"175 280 CURVE SMOOTH",
"129 280 LINE",
"135 262 LINE",
"338 543 LINE",
"338 578 LINE",
"49 578 LINE",
"49 537 LINE",
"329 537 LINE",
"305 573 LINE",
"88 274 LINE",
"88 233 LINE",
"188 233 LINE SMOOTH",
"284 233 OFFCURVE",
"318 156 OFFCURVE",
"318 30 CURVE SMOOTH",
"318 -114 OFFCURVE",
"260 -153 OFFCURVE",
"185 -153 CURVE SMOOTH",
"100 -153 OFFCURVE",
"65 -100 OFFCURVE",
"65 -6 CURVE SMOOTH",
"65 -4 OFFCURVE",
"65 8 OFFCURVE",
"65 10 CURVE",
"15 10 LINE",
"15 -5 LINE SMOOTH",
"15 -120 OFFCURVE",
"63 -196 OFFCURVE",
"185 -196 CURVE SMOOTH"
);
}
);
width = 400;
},
{
anchors = (
{
name = bottom;
position = "{229, 0}";
},
{
name = top;
position = "{229, 578}";
}
);
layerId = "8AC5A1D3-32A8-4416-86FC-94176A419B8F";
paths = (
{
closed = 1;
nodes = (
"370 -196 OFFCURVE",
"428 -102 OFFCURVE",
"428 42 CURVE SMOOTH",
"428 184 OFFCURVE",
"379 291 OFFCURVE",
"228 291 CURVE SMOOTH",
"167 291 LINE",
"199 264 LINE",
"385 520 LINE",
"385 578 LINE",
"62 578 LINE",
"62 498 LINE",
"322 498 LINE",
"282 533 LINE",
"97 288 LINE",
"97 219 LINE",
"198 219 LINE SMOOTH",
"297 219 OFFCURVE",
"321 155 OFFCURVE",
"321 42 CURVE SMOOTH",
"321 -47 OFFCURVE",
"305 -107 OFFCURVE",
"228 -107 CURVE SMOOTH",
"154 -107 OFFCURVE",
"136 -52 OFFCURVE",
"136 21 CURVE SMOOTH",
"136 27 OFFCURVE",
"136 34 OFFCURVE",
"136 39 CURVE",
"30 39 LINE",
"30 12 LINE SMOOTH",
"30 -117 OFFCURVE",
"96 -196 OFFCURVE",
"228 -196 CURVE SMOOTH"
);
}
);
width = 458;
},
{
anchors = (
{
name = bottom;
position = "{243, 0}";
},
{
name = top;
position = "{243, 578}";
}
);
layerId = "F66B25F0-8957-42F3-9BF7-6C5DDCB0258B";
paths = (
{
closed = 1;
nodes = (
"400 -205 OFFCURVE",
"458 -100 OFFCURVE",
"458 49 CURVE SMOOTH",
"458 207 OFFCURVE",
"411 297 OFFCURVE",
"238 297 CURVE SMOOTH",
"189 297 LINE",
"238 261 LINE",
"413 479 LINE",
"413 578 LINE",
"57 578 LINE",
"57 459 LINE",
"290 459 LINE",
"270 493 LINE",
"121 306 LINE",
"121 211 LINE",
"185 211 LINE SMOOTH",
"277 211 OFFCURVE",
"295 167 OFFCURVE",
"295 44 CURVE SMOOTH",
"295 -49 OFFCURVE",
"286 -91 OFFCURVE",
"240 -91 CURVE SMOOTH",
"195 -91 OFFCURVE",
"182 -53 OFFCURVE",
"182 50 CURVE SMOOTH",
"182 61 OFFCURVE",
"182 77 OFFCURVE",
"182 79 CURVE",
"22 79 LINE",
"22 50 LINE SMOOTH",
"22 -101 OFFCURVE",
"76 -205 OFFCURVE",
"238 -205 CURVE SMOOTH"
);
}
);
width = 485;
}
);
leftKerningGroup = ezh;
rightKerningGroup = ezh;
unicode = 0292;
},
{
color = 3;
glyphname = f;
layers = (
{
anchors = (
{
name = bottom;
position = "{128, 0}";
},
{
name = top;
position = "{170, 780}";
}
);
layerId = "FCD7E481-103E-4A6C-AD70-01DA443B2AD0";
paths = (
{
closed = 1;
nodes = (
"148 0 LINE",
"148 541 LINE",
"245 541 LINE",
"245 578 LINE",
"148 578 LINE",
"148 657 LINE SMOOTH",
"148 720 OFFCURVE",
"155 746 OFFCURVE",
"200 746 CURVE SMOOTH",
"212 746 OFFCURVE",
"229 744 OFFCURVE",
"242 740 CURVE",
"242 780 LINE",
"226 785 OFFCURVE",
"206 787 OFFCURVE",
"189 787 CURVE SMOOTH",
"102 787 OFFCURVE",
"95 729 OFFCURVE",
"95 656 CURVE SMOOTH",
"95 578 LINE",
"17 578 LINE",
"17 541 LINE",
"95 541 LINE",
"95 0 LINE"
);
}
);
width = 256;
},
{
associatedMasterId = "FCD7E481-103E-4A6C-AD70-01DA443B2AD0";
layerId = "93ADD118-AC46-4D1F-A501-A5E32E8290F7";
name = b;
width = 332;
},
{
anchors = (
{
name = bottom;
position = "{144, 0}";
},
{
name = top;
position = "{196, 776}";
}
);
layerId = "8AC5A1D3-32A8-4416-86FC-94176A419B8F";
paths = (
{
closed = 1;
nodes = (
"195 0 LINE",
"195 499 LINE",
"283 499 LINE",
"283 578 LINE",
"195 578 LINE",
"195 626 LINE SMOOTH",
"195 671 OFFCURVE",
"201 701 OFFCURVE",
"243 701 CURVE SMOOTH",
"255 701 OFFCURVE",
"271 699 OFFCURVE",
"283 696 CURVE",
"283 774 LINE",
"258 779 OFFCURVE",
"240 781 OFFCURVE",
"213 781 CURVE SMOOTH",
"104 781 OFFCURVE",
"88 715 OFFCURVE",
"88 608 CURVE SMOOTH",
"88 578 LINE",
"19 578 LINE",
"19 499 LINE",
"88 499 LINE",
"88 0 LINE"
);
}
);
width = 287;
},
{
anchors = (
{
name = bottom;
position = "{160, 0}";
},
{
name = top;
position = "{196, 785}";
}
);
layerId = "F66B25F0-8957-42F3-9BF7-6C5DDCB0258B";
paths = (
{
closed = 1;
nodes = (
"235 0 LINE",
"235 468 LINE",
"308 468 LINE",
"308 578 LINE",
"235 578 LINE",
"235 624 LINE SMOOTH",
"235 656 OFFCURVE",
"249 669 OFFCURVE",
"273 669 CURVE SMOOTH",
"285 669 OFFCURVE",
"299 666 OFFCURVE",
"308 664 CURVE",
"308 785 LINE",
"279 789 OFFCURVE",
"255 790 OFFCURVE",
"230 790 CURVE SMOOTH",
"90 790 OFFCURVE",
"72 723 OFFCURVE",
"72 621 CURVE SMOOTH",
"72 578 LINE",
"17 578 LINE",
"17 468 LINE",
"72 468 LINE",
"72 0 LINE"
);
}
);
width = 320;
}
);
leftKerningGroup = f;
rightKerningGroup = f;
unicode = 0066;
userData = {
com.fontlab.hintData = {
hhints = (
{
position = 1348;
width = 277;
}
);
vhints = (
{
position = 16;
width = 615;
}
);
};
com.typemytype.robofont.layerData = {
b = {
anchors = (
);
components = (
);
contours = (
);
lib = {
};
name = f;
unicodes = (
);
width = 679;
};
};
};
},
{
color = 3;
glyphname = g;
layers = (
{
anchors = (
{
name = bottom;
position = "{215, 0}";
},
{
name = top;
position = "{215, 578}";
}
);
layerId = "FCD7E481-103E-4A6C-AD70-01DA443B2AD0";
paths = (
{
closed = 1;
nodes = (
"301 -196 OFFCURVE",
"388 -159 OFFCURVE",
"388 -68 CURVE SMOOTH",
"388 6 OFFCURVE",
"330 44 OFFCURVE",
"236 61 CURVE SMOOTH",
"142 78 LINE SMOOTH",
"108 84 OFFCURVE",
"94 94 OFFCURVE",
"94 115 CURVE SMOOTH",
"94 142 OFFCURVE",
"123 172 OFFCURVE",
"151 200 CURVE",
"127 215 LINE",
"80 176 OFFCURVE",
"48 144 OFFCURVE",
"48 105 CURVE SMOOTH",
"48 69 OFFCURVE",
"72 50 OFFCURVE",
"132 38 CURVE SMOOTH",
"216 21 LINE SMOOTH",
"323 2 OFFCURVE",
"343 -27 OFFCURVE",
"343 -69 CURVE SMOOTH",
"343 -128 OFFCURVE",
"280 -153 OFFCURVE",
"202 -153 CURVE SMOOTH",
"111 -153 OFFCURVE",
"61 -132 OFFCURVE",
"61 -81 CURVE SMOOTH",
"61 -23 OFFCURVE",
"126 16 OFFCURVE",
"159 35 CURVE",
"126 45 LINE",
"74 20 OFFCURVE",
"15 -32 OFFCURVE",
"15 -94 CURVE SMOOTH",
"15 -163 OFFCURVE",
"81 -196 OFFCURVE",
"202 -196 CURVE SMOOTH"
);
},
{
closed = 1;
nodes = (
"320 184 OFFCURVE",
"366 272 OFFCURVE",
"366 387 CURVE SMOOTH",
"366 489 OFFCURVE",
"313 587 OFFCURVE",
"205 587 CURVE SMOOTH",
"91 587 OFFCURVE",
"44 483 OFFCURVE",
"44 388 CURVE SMOOTH",
"44 276 OFFCURVE",
"94 184 OFFCURVE",
"207 184 CURVE SMOOTH"
);
},
{
closed = 1;
nodes = (
"108 223 OFFCURVE",
"93 326 OFFCURVE",
"93 388 CURVE SMOOTH",
"93 442 OFFCURVE",
"113 548 OFFCURVE",
"206 548 CURVE SMOOTH",
"298 548 OFFCURVE",
"317 449 OFFCURVE",
"317 388 CURVE SMOOTH",
"317 324 OFFCURVE",
"306 223 OFFCURVE",
"207 223 CURVE SMOOTH"
);
},
{
closed = 1;
nodes = (
"362 507 OFFCURVE",
"403 534 OFFCURVE",
"440 543 CURVE",
"425 583 LINE",
"378 566 OFFCURVE",
"345 537 OFFCURVE",
"331 505 CURVE",
"343 480 LINE"
);
}
);
width = 429;
},
{
anchors = (
{
name = bottom;
position = "{221, 0}";
},
{
name = top;
position = "{221, 578}";
}
);
layerId = "8AC5A1D3-32A8-4416-86FC-94176A419B8F";
paths = (
{
closed = 1;
nodes = (
"346 -181 OFFCURVE",
"412 -131 OFFCURVE",
"412 -34 CURVE SMOOTH",
"412 52 OFFCURVE",
"369 99 OFFCURVE",
"278 107 CURVE SMOOTH",
"181 116 LINE SMOOTH",
"147 119 OFFCURVE",
"133 128 OFFCURVE",
"133 143 CURVE SMOOTH",
"133 161 OFFCURVE",
"149 183 OFFCURVE",
"157 194 CURVE",
"121 222 LINE",
"74 180 OFFCURVE",
"45 153 OFFCURVE",
"45 105 CURVE SMOOTH",
"45 73 OFFCURVE",
"70 43 OFFCURVE",
"122 36 CURVE SMOOTH",
"248 20 LINE SMOOTH",
"311 14 OFFCURVE",
"328 -3 OFFCURVE",
"328 -38 CURVE SMOOTH",
"328 -77 OFFCURVE",
"292 -94 OFFCURVE",
"216 -94 CURVE SMOOTH",
"138 -94 OFFCURVE",
"113 -77 OFFCURVE",
"113 -42 CURVE SMOOTH",
"113 -10 OFFCURVE",
"140 13 OFFCURVE",
"166 38 CURVE",
"116 45 LINE",
"67 26 OFFCURVE",
"20 -11 OFFCURVE",
"20 -71 CURVE SMOOTH",
"20 -149 OFFCURVE",
"100 -181 OFFCURVE",
"207 -181 CURVE SMOOTH"
);
},
{
closed = 1;
nodes = (
"333 178 OFFCURVE",
"374 259 OFFCURVE",
"374 378 CURVE SMOOTH",
"374 491 OFFCURVE",
"324 586 OFFCURVE",
"211 586 CURVE SMOOTH",
"101 586 OFFCURVE",
"43 515 OFFCURVE",
"43 381 CURVE SMOOTH",
"43 262 OFFCURVE",
"93 178 OFFCURVE",
"211 178 CURVE SMOOTH"
);
},
{
closed = 1;
nodes = (
"153 255 OFFCURVE",
"143 308 OFFCURVE",
"143 381 CURVE SMOOTH",
"143 464 OFFCURVE",
"154 510 OFFCURVE",
"212 510 CURVE SMOOTH",
"269 510 OFFCURVE",
"277 461 OFFCURVE",
"277 381 CURVE SMOOTH",
"277 300 OFFCURVE",
"269 255 OFFCURVE",
"211 255 CURVE SMOOTH"
);
},
{
closed = 1;
nodes = (
"354 489 OFFCURVE",
"425 515 OFFCURVE",
"453 521 CURVE",
"425 591 LINE",
"382 572 OFFCURVE",
"339 540 OFFCURVE",
"329 521 CURVE",
"354 481 LINE"
);
}
);
width = 441;
},
{
anchors = (
{
name = bottom;
position = "{251, 0}";
},
{
name = top;
position = "{251, 578}";
}
);
layerId = "F66B25F0-8957-42F3-9BF7-6C5DDCB0258B";
paths = (
{
closed = 1;
nodes = (
"419 -200 OFFCURVE",
"488 -141 OFFCURVE",
"488 -29 CURVE SMOOTH",
"488 55 OFFCURVE",
"444 111 OFFCURVE",
"345 123 CURVE SMOOTH",
"208 141 LINE SMOOTH",
"167 146 OFFCURVE",
"153 155 OFFCURVE",
"153 171 CURVE SMOOTH",
"153 188 OFFCURVE",
"163 201 OFFCURVE",
"179 217 CURVE",
"122 249 LINE",
"75 210 OFFCURVE",
"44 171 OFFCURVE",
"44 125 CURVE SMOOTH",
"44 71 OFFCURVE",
"82 33 OFFCURVE",
"144 25 CURVE SMOOTH",
"288 7 LINE SMOOTH",
"344 0 OFFCURVE",
"362 -9 OFFCURVE",
"362 -36 CURVE SMOOTH",
"362 -69 OFFCURVE",
"325 -78 OFFCURVE",
"261 -78 CURVE SMOOTH",
"183 -78 OFFCURVE",
"153 -64 OFFCURVE",
"153 -34 CURVE SMOOTH",
"153 -7 OFFCURVE",
"173 11 OFFCURVE",
"195 29 CURVE",
"132 40 LINE",
"69 16 OFFCURVE",
"25 -23 OFFCURVE",
"25 -83 CURVE SMOOTH",
"25 -162 OFFCURVE",
"109 -200 OFFCURVE",
"240 -200 CURVE SMOOTH"
);
},
{
closed = 1;
nodes = (
"382 187 OFFCURVE",
"449 261 OFFCURVE",
"449 387 CURVE SMOOTH",
"449 514 OFFCURVE",
"377 588 OFFCURVE",
"250 588 CURVE SMOOTH",
"116 588 OFFCURVE",
"42 517 OFFCURVE",
"42 387 CURVE SMOOTH",
"42 261 OFFCURVE",
"114 187 OFFCURVE",
"250 187 CURVE SMOOTH"
);
},
{
closed = 1;
nodes = (
"213 284 OFFCURVE",
"205 313 OFFCURVE",
"205 387 CURVE SMOOTH",
"205 464 OFFCURVE",
"214 491 OFFCURVE",
"250 491 CURVE SMOOTH",
"286 491 OFFCURVE",
"294 463 OFFCURVE",
"294 387 CURVE SMOOTH",
"294 311 OFFCURVE",
"286 284 OFFCURVE",
"250 284 CURVE SMOOTH"
);
},
{
closed = 1;
nodes = (
"440 503 OFFCURVE",
"496 528 OFFCURVE",
"517 535 CURVE",
"478 613 LINE",
"427 589 OFFCURVE",
"400 570 OFFCURVE",
"380 531 CURVE",
"414 487 LINE"
);
}
);
width = 502;
}
);
leftKerningGroup = g;
rightKerningGroup = g;
unicode = 0067;
userData = {
com.fontlab.hintData = {
hhints = (
{
position = -352;
width = 217;
},
{
position = 368;
width = 213;
},
{
position = 992;
width = 214;
}
);
vhints = (
{
position = 42;
width = 353;
},
{
position = 73;
width = 378;
},
{
position = 602;
width = 358;
}
);
};
com.typemytype.robofont.layerData = {
b = {
anchors = (
);
components = (
);
contours = (
);
lib = {
};
name = g;
unicodes = (
);
width = 873;
};
};
};
},
{
color = 4;
glyphname = gstroke;
layers = (
{
anchors = (
{
name = bottom;
position = "{215, 0}";
},
{
name = top;
position = "{215, 578}";
}
);
layerId = "FCD7E481-103E-4A6C-AD70-01DA443B2AD0";
paths = (
{
closed = 1;
nodes = (
"301 -196 OFFCURVE",
"388 -159 OFFCURVE",
"388 -68 CURVE SMOOTH",
"388 6 OFFCURVE",
"330 44 OFFCURVE",
"236 61 CURVE SMOOTH",
"142 78 LINE SMOOTH",
"108 84 OFFCURVE",
"94 94 OFFCURVE",
"94 115 CURVE SMOOTH",
"94 140 OFFCURVE",
"119 168 OFFCURVE",
"145 194 CURVE",
"159 188 OFFCURVE",
"185 184 OFFCURVE",
"207 184 CURVE SMOOTH",
"320 184 OFFCURVE",
"366 272 OFFCURVE",
"366 387 CURVE SMOOTH",
"366 411 OFFCURVE",
"357 459 OFFCURVE",
"347 485 CURVE",
"367 510 OFFCURVE",
"405 535 OFFCURVE",
"440 543 CURVE",
"425 583 LINE",
"411 578 LINE SMOOTH",
"379 567 OFFCURVE",
"346 535 OFFCURVE",
"333 510 CURVE",
"312 549 OFFCURVE",
"276 587 OFFCURVE",
"205 587 CURVE SMOOTH",
"91 587 OFFCURVE",
"44 483 OFFCURVE",
"44 388 CURVE SMOOTH",
"44 316 OFFCURVE",
"63 250 OFFCURVE",
"120 209 CURVE",
"77 173 OFFCURVE",
"48 142 OFFCURVE",
"48 105 CURVE SMOOTH",
"48 72 OFFCURVE",
"68 54 OFFCURVE",
"118 41 CURVE",
"68 15 OFFCURVE",
"15 -35 OFFCURVE",
"15 -94 CURVE SMOOTH",
"15 -163 OFFCURVE",
"81 -196 OFFCURVE",
"202 -196 CURVE SMOOTH"
);
},
{
closed = 1;
nodes = (
"419 -79 LINE",
"419 -42 LINE",
"-19 -42 LINE",
"-19 -79 LINE"
);
},
{
closed = 1;
nodes = (
"111 -153 OFFCURVE",
"61 -132 OFFCURVE",
"61 -81 CURVE SMOOTH",
"61 -26 OFFCURVE",
"119 12 OFFCURVE",
"153 32 CURVE",
"216 21 LINE SMOOTH",
"323 2 OFFCURVE",
"343 -27 OFFCURVE",
"343 -69 CURVE SMOOTH",
"343 -128 OFFCURVE",
"280 -153 OFFCURVE",
"202 -153 CURVE SMOOTH"
);
},
{
closed = 1;
nodes = (
"108 223 OFFCURVE",
"93 326 OFFCURVE",
"93 388 CURVE SMOOTH",
"93 442 OFFCURVE",
"113 548 OFFCURVE",
"206 548 CURVE SMOOTH",
"298 548 OFFCURVE",
"317 449 OFFCURVE",
"317 388 CURVE SMOOTH",
"317 324 OFFCURVE",
"306 223 OFFCURVE",
"207 223 CURVE SMOOTH"
);
}
);
width = 429;
},
{
anchors = (
{
name = bottom;
position = "{218, 0}";
},
{
name = top;
position = "{218, 578}";
}
);
layerId = "8AC5A1D3-32A8-4416-86FC-94176A419B8F";
paths = (
{
closed = 1;
nodes = (
"339 -179 OFFCURVE",
"405 -130 OFFCURVE",
"405 -35 CURVE SMOOTH",
"405 52 OFFCURVE",
"362 98 OFFCURVE",
"271 106 CURVE SMOOTH",
"181 114 LINE SMOOTH",
"147 117 OFFCURVE",
"133 125 OFFCURVE",
"133 140 CURVE SMOOTH",
"133 155 OFFCURVE",
"144 172 OFFCURVE",
"152 184 CURVE",
"168 180 OFFCURVE",
"190 177 OFFCURVE",
"207 177 CURVE SMOOTH",
"328 177 OFFCURVE",
"367 259 OFFCURVE",
"367 377 CURVE SMOOTH",
"367 410 OFFCURVE",
"358 460 OFFCURVE",
"349 483 CURVE",
"359 492 OFFCURVE",
"421 515 OFFCURVE",
"447 520 CURVE",
"420 589 LINE",
"404 582 LINE",
"365 564 OFFCURVE",
"333 532 OFFCURVE",
"326 522 CURVE",
"306 564 OFFCURVE",
"269 586 OFFCURVE",
"207 586 CURVE SMOOTH",
"100 586 OFFCURVE",
"44 515 OFFCURVE",
"44 380 CURVE SMOOTH",
"44 288 OFFCURVE",
"67 241 OFFCURVE",
"111 208 CURVE",
"71 172 OFFCURVE",
"47 146 OFFCURVE",
"47 103 CURVE SMOOTH",
"47 77 OFFCURVE",
"65 52 OFFCURVE",
"103 41 CURVE",
"60 21 OFFCURVE",
"20 -15 OFFCURVE",
"20 -70 CURVE SMOOTH",
"20 -148 OFFCURVE",
"99 -179 OFFCURVE",
"204 -179 CURVE SMOOTH"
);
},
{
closed = 1;
nodes = (
"440 -62 LINE",
"440 -11 LINE",
"-15 -11 LINE",
"-15 -62 LINE"
);
},
{
closed = 1;
nodes = (
"134 -95 OFFCURVE",
"110 -78 OFFCURVE",
"110 -43 CURVE SMOOTH",
"110 -15 OFFCURVE",
"131 7 OFFCURVE",
"153 29 CURVE",
"244 21 LINE SMOOTH",
"307 15 OFFCURVE",
"323 -3 OFFCURVE",
"323 -38 CURVE SMOOTH",
"323 -78 OFFCURVE",
"288 -95 OFFCURVE",
"212 -95 CURVE SMOOTH"
);
},
{
closed = 1;
nodes = (
"147 252 OFFCURVE",
"137 308 OFFCURVE",
"137 380 CURVE SMOOTH",
"137 464 OFFCURVE",
"148 512 OFFCURVE",
"208 512 CURVE SMOOTH",
"268 512 OFFCURVE",
"276 461 OFFCURVE",
"276 380 CURVE SMOOTH",
"276 299 OFFCURVE",
"268 252 OFFCURVE",
"207 252 CURVE SMOOTH"
);
}
);
width = 435;
},
{
anchors = (
{
name = bottom;
position = "{251, 0}";
},
{
name = top;
position = "{251, 578}";
}
);
layerId = "F66B25F0-8957-42F3-9BF7-6C5DDCB0258B";
paths = (
{
closed = 1;
nodes = (
"417 -200 OFFCURVE",
"486 -141 OFFCURVE",
"486 -30 CURVE SMOOTH",
"486 71 OFFCURVE",
"441 125 OFFCURVE",
"342 136 CURVE SMOOTH",
"190 154 LINE SMOOTH",
"149 158 OFFCURVE",
"135 162 OFFCURVE",
"135 175 CURVE SMOOTH",
"135 185 OFFCURVE",
"142 194 OFFCURVE",
"150 203 CURVE",
"178 193 OFFCURVE",
"212 187 OFFCURVE",
"249 187 CURVE SMOOTH",
"381 187 OFFCURVE",
"448 261 OFFCURVE",
"448 386 CURVE SMOOTH",
"448 426 OFFCURVE",
"439 465 OFFCURVE",
"425 494 CURVE",
"452 509 OFFCURVE",
"497 529 OFFCURVE",
"515 535 CURVE",
"477 613 LINE",
"456 603 LINE",
"425 588 OFFCURVE",
"400 566 OFFCURVE",
"386 543 CURVE",
"354 573 OFFCURVE",
"309 588 OFFCURVE",
"249 588 CURVE SMOOTH",
"116 588 OFFCURVE",
"42 517 OFFCURVE",
"42 387 CURVE SMOOTH",
"42 318 OFFCURVE",
"62 270 OFFCURVE",
"99 237 CURVE",
"59 202 OFFCURVE",
"35 171 OFFCURVE",
"35 125 CURVE SMOOTH",
"35 91 OFFCURVE",
"63 62 OFFCURVE",
"113 47 CURVE",
"60 23 OFFCURVE",
"25 -17 OFFCURVE",
"25 -72 CURVE SMOOTH",
"25 -162 OFFCURVE",
"109 -200 OFFCURVE",
"239 -200 CURVE SMOOTH"
);
},
{
closed = 1;
nodes = (
"522 -53 LINE",
"522 -2 LINE",
"-9 -2 LINE",
"-9 -53 LINE"
);
},
{
closed = 1;
nodes = (
"166 -89 OFFCURVE",
"140 -66 OFFCURVE",
"140 -26 CURVE SMOOTH",
"140 -1 OFFCURVE",
"159 19 OFFCURVE",
"180 35 CURVE",
"287 24 LINE SMOOTH",
"354 17 OFFCURVE",
"374 8 OFFCURVE",
"374 -28 CURVE SMOOTH",
"374 -73 OFFCURVE",
"339 -89 OFFCURVE",
"260 -89 CURVE SMOOTH"
);
},
{
closed = 1;
nodes = (
"212 284 OFFCURVE",
"204 313 OFFCURVE",
"204 387 CURVE SMOOTH",
"204 464 OFFCURVE",
"212 491 OFFCURVE",
"249 491 CURVE SMOOTH",
"286 491 OFFCURVE",
"294 463 OFFCURVE",
"294 387 CURVE SMOOTH",
"294 311 OFFCURVE",
"286 284 OFFCURVE",
"249 284 CURVE SMOOTH"
);
}
);
width = 501;
}
);
leftKerningGroup = g;
rightKerningGroup = g;
unicode = 01E5;
},
{
color = 3;
glyphname = h;
layers = (
{
anchors = (
{
name = bottom;
position = "{196, 0}";
},
{
name = center;
position = "{196, 289}";
},
{
name = top;
position = "{83, 810}";
}
);
layerId = "FCD7E481-103E-4A6C-AD70-01DA443B2AD0";
paths = (
{
closed = 1;
nodes = (
"110 0 LINE",
"110 482 LINE",
"145 520 OFFCURVE",
"186 546 OFFCURVE",
"225 546 CURVE SMOOTH",
"262 546 OFFCURVE",
"285 526 OFFCURVE",
"285 455 CURVE SMOOTH",
"285 0 LINE",
"339 0 LINE",
"339 461 LINE SMOOTH",
"339 553 OFFCURVE",
"299 587 OFFCURVE",
"248 587 CURVE SMOOTH",
"195 587 OFFCURVE",
"147 559 OFFCURVE",
"110 517 CURVE",
"110 810 LINE",
"57 810 LINE",
"57 0 LINE"
);
}
);
width = 392;
},
{
associatedMasterId = "FCD7E481-103E-4A6C-AD70-01DA443B2AD0";
layerId = "0B3A8EAD-9463-4001-8320-4ED4E0BE02A9";
name = b;
width = 531;
},
{
anchors = (
{
name = bottom;
position = "{223, 0}";
},
{
name = center;
position = "{223, 289}";
},
{
name = top;
position = "{111, 810}";
}
);
layerId = "8AC5A1D3-32A8-4416-86FC-94176A419B8F";
paths = (
{
closed = 1;
nodes = (
"164 0 LINE",
"164 464 LINE",
"188 485 OFFCURVE",
"217 502 OFFCURVE",
"242 502 CURVE SMOOTH",
"279 502 OFFCURVE",
"288 478 OFFCURVE",
"288 437 CURVE SMOOTH",
"288 0 LINE",
"395 0 LINE",
"395 468 LINE SMOOTH",
"395 524 OFFCURVE",
"377 586 OFFCURVE",
"309 586 CURVE SMOOTH",
"250 586 OFFCURVE",
"203 555 OFFCURVE",
"164 518 CURVE",
"164 810 LINE",
"57 810 LINE",
"57 0 LINE"
);
}
);
width = 445;
},
{
anchors = (
{
name = bottom;
position = "{255, 0}";
},
{
name = center;
position = "{255, 289}";
},
{
name = top;
position = "{133, 810}";
}
);
layerId = "F66B25F0-8957-42F3-9BF7-6C5DDCB0258B";
paths = (
{
closed = 1;
nodes = (
"214 0 LINE",
"214 452 LINE",
"234 465 OFFCURVE",
"253 473 OFFCURVE",
"267 473 CURVE SMOOTH",
"292 473 OFFCURVE",
"300 458 OFFCURVE",
"300 430 CURVE SMOOTH",
"300 0 LINE",
"462 0 LINE",
"462 453 LINE SMOOTH",
"462 530 OFFCURVE",
"425 588 OFFCURVE",
"356 588 CURVE SMOOTH",
"303 588 OFFCURVE",
"257 570 OFFCURVE",
"214 527 CURVE",
"214 810 LINE",
"52 810 LINE",
"52 0 LINE"
);
}
);
width = 509;
}
);
leftKerningGroup = h;
rightKerningGroup = n;
unicode = 0068;
userData = {
com.typemytype.robofont.layerData = {
b = {
anchors = (
);
components = (
);
contours = (
);
lib = {
};
name = h;
unicodes = (
);
width = 1087;
};
};
};
},
{
glyphname = hbar;
layers = (
{
layerId = "FCD7E481-103E-4A6C-AD70-01DA443B2AD0";
paths = (
{
closed = 1;
nodes = (
"110 0 LINE",
"110 482 LINE",
"144 520 OFFCURVE",
"185 546 OFFCURVE",
"224 546 CURVE SMOOTH",
"261 546 OFFCURVE",
"285 526 OFFCURVE",
"285 455 CURVE SMOOTH",
"285 0 LINE",
"338 0 LINE",
"338 461 LINE SMOOTH",
"338 553 OFFCURVE",
"298 587 OFFCURVE",
"247 587 CURVE SMOOTH",
"194 587 OFFCURVE",
"146 559 OFFCURVE",
"110 517 CURVE",
"110 701 LINE",
"228 701 LINE",
"228 735 LINE",
"110 735 LINE",
"110 810 LINE",
"57 810 LINE",
"57 735 LINE",
"-9 735 LINE",
"-9 701 LINE",
"57 701 LINE",
"57 0 LINE"
);
}
);
width = 391;
},
{
associatedMasterId = "FCD7E481-103E-4A6C-AD70-01DA443B2AD0";
layerId = "96324D6F-9FAD-426A-A417-8F462CF01042";
name = b;
width = 532;
},
{
layerId = "8AC5A1D3-32A8-4416-86FC-94176A419B8F";
paths = (
{
closed = 1;
nodes = (
"164 0 LINE",
"164 464 LINE",
"188 485 OFFCURVE",
"217 502 OFFCURVE",
"242 502 CURVE SMOOTH",
"279 502 OFFCURVE",
"288 478 OFFCURVE",
"288 437 CURVE SMOOTH",
"288 0 LINE",
"395 0 LINE",
"395 468 LINE SMOOTH",
"395 524 OFFCURVE",
"377 586 OFFCURVE",
"308 586 CURVE SMOOTH",
"250 586 OFFCURVE",
"202 555 OFFCURVE",
"164 518 CURVE",
"164 690 LINE",
"286 690 LINE",
"286 750 LINE",
"164 750 LINE",
"164 810 LINE",
"57 810 LINE",
"57 750 LINE",
"-6 750 LINE",
"-6 690 LINE",
"57 690 LINE",
"57 0 LINE"
);
}
);
width = 445;
},
{
layerId = "F66B25F0-8957-42F3-9BF7-6C5DDCB0258B";
paths = (
{
closed = 1;
nodes = (
"215 0 LINE",
"215 452 LINE",
"235 465 OFFCURVE",
"253 473 OFFCURVE",
"268 473 CURVE SMOOTH",
"293 473 OFFCURVE",
"300 458 OFFCURVE",
"300 430 CURVE SMOOTH",
"300 0 LINE",
"462 0 LINE",
"462 453 LINE SMOOTH",
"462 530 OFFCURVE",
"426 588 OFFCURVE",
"356 588 CURVE SMOOTH",
"304 588 OFFCURVE",
"258 570 OFFCURVE",
"215 527 CURVE",
"215 671 LINE",
"333 671 LINE",
"333 746 LINE",
"215 746 LINE",
"215 810 LINE",
"52 810 LINE",
"52 746 LINE",
"6 746 LINE",
"6 671 LINE",
"52 671 LINE",
"52 0 LINE"
);
}
);
width = 510;
}
);
leftKerningGroup = h;
rightKerningGroup = n;
unicode = 0127;
userData = {
com.typemytype.robofont.layerData = {
b = {
anchors = (
);
components = (
);
contours = (
);
lib = {
};
name = hbar;
unicodes = (
);
width = 1089;
};
};
};
},
{
color = 3;
glyphname = i;
layers = (
{
anchors = (
{
name = bottom;
position = "{95, 0}";
},
{
name = ogonek;
position = "{92, 0}";
}
);
layerId = "FCD7E481-103E-4A6C-AD70-01DA443B2AD0";
paths = (
{
closed = 1;
nodes = (
"119 0 LINE",
"119 578 LINE",
"65 578 LINE",
"65 0 LINE"
);
},
{
closed = 1;
nodes = (
"119 654 LINE",
"119 746 LINE",
"65 746 LINE",
"65 654 LINE"
);
}
);
width = 189;
},
{
associatedMasterId = "FCD7E481-103E-4A6C-AD70-01DA443B2AD0";
layerId = "2AF6B5B3-4A77-4AFD-8D99-6C7C98E4A942";
name = b;
width = 278;
},
{
anchors = (
{
name = bottom;
position = "{115, 0}";
},
{
name = ogonek;
position = "{115, 0}";
}
);
layerId = "8AC5A1D3-32A8-4416-86FC-94176A419B8F";
paths = (
{
closed = 1;
nodes = (
"168 0 LINE",
"168 578 LINE",
"61 578 LINE",
"61 0 LINE"
);
},
{
closed = 1;
nodes = (
"168 664 LINE",
"168 776 LINE",
"61 776 LINE",
"61 664 LINE"
);
}
);
width = 229;
},
{
anchors = (
{
name = bottom;
position = "{133, 0}";
},
{
name = ogonek;
position = "{134, 0}";
}
);
layerId = "F66B25F0-8957-42F3-9BF7-6C5DDCB0258B";
paths = (
{
closed = 1;
nodes = (
"215 0 LINE",
"215 578 LINE",
"52 578 LINE",
"52 0 LINE"
);
},
{
closed = 1;
nodes = (
"215 676 LINE",
"215 789 LINE",
"51 789 LINE",
"51 676 LINE"
);
}
);
width = 265;
}
);
leftKerningGroup = i;
rightKerningGroup = i;
unicode = 0069;
userData = {
com.typemytype.robofont.layerData = {
b = {
anchors = (
);
components = (
);
contours = (
);
lib = {
};
name = i;
unicodes = (
);
width = 570;
};
};
};
},
{
glyphname = idotless;
layers = (
{
anchors = (
{
name = bottom;
position = "{92, 0}";
},
{
name = ogonek;
position = "{92, 0}";
},
{
name = top;
position = "{92, 578}";
}
);
layerId = "FCD7E481-103E-4A6C-AD70-01DA443B2AD0";
paths = (
{
closed = 1;
nodes = (
"118 0 LINE",
"118 578 LINE",
"65 578 LINE",
"65 0 LINE"
);
}
);
width = 182;
},
{
anchors = (
{
name = bottom;
position = "{115, 0}";
},
{
name = ogonek;
position = "{115, 0}";
},
{
name = top;
position = "{115, 578}";
}
);
layerId = "8AC5A1D3-32A8-4416-86FC-94176A419B8F";
paths = (
{
closed = 1;
nodes = (
"168 0 LINE",
"168 578 LINE",
"61 578 LINE",
"61 0 LINE"
);
}
);
width = 224;
},
{
anchors = (
{
name = bottom;
position = "{141, 0}";
},
{
name = ogonek;
position = "{147, 0}";
},
{
name = top;
position = "{141, 578}";
}
);
layerId = "F66B25F0-8957-42F3-9BF7-6C5DDCB0258B";
paths = (
{
closed = 1;
nodes = (
"222 0 LINE",
"222 578 LINE",
"59 578 LINE",
"59 0 LINE"
);
}
);
width = 280;
}
);
leftKerningGroup = i;
rightKerningGroup = i;
unicode = 0131;
userData = {
com.fontlab.hintData = {
vhints = (
{
position = 120;
width = 372;
}
);
};
};
},
{
color = 3;
glyphname = j;
layers = (
{
layerId = "FCD7E481-103E-4A6C-AD70-01DA443B2AD0";
paths = (
{
closed = 1;
nodes = (
"89 -155 OFFCURVE",
"134 -121 OFFCURVE",
"134 -28 CURVE SMOOTH",
"134 578 LINE",
"81 578 LINE",
"81 -25 LINE SMOOTH",
"81 -67 OFFCURVE",
"78 -111 OFFCURVE",
"8 -111 CURVE SMOOTH",
"5 -111 OFFCURVE",
"-14 -111 OFFCURVE",
"-16 -110 CURVE",
"-16 -153 LINE",
"-12 -154 OFFCURVE",
"9 -155 OFFCURVE",
"14 -155 CURVE SMOOTH"
);
},
{
closed = 1;
nodes = (
"134 654 LINE",
"134 746 LINE",
"81 746 LINE",
"81 654 LINE"
);
}
);
width = 202;
},
{
associatedMasterId = "FCD7E481-103E-4A6C-AD70-01DA443B2AD0";
layerId = "085BC3EB-CEAC-4DBF-B190-8A801A1D6A32";
name = b;
width = 292;
},
{
layerId = "8AC5A1D3-32A8-4416-86FC-94176A419B8F";
paths = (
{
closed = 1;
nodes = (
"123 -146 OFFCURVE",
"176 -97 OFFCURVE",
"176 -6 CURVE SMOOTH",
"176 578 LINE",
"69 578 LINE",
"69 5 LINE SMOOTH",
"69 -36 OFFCURVE",
"55 -65 OFFCURVE",
"9 -65 CURVE SMOOTH",
"2 -65 OFFCURVE",
"-12 -63 OFFCURVE",
"-19 -62 CURVE",
"-19 -139 LINE",
"-5 -145 OFFCURVE",
"18 -146 OFFCURVE",
"36 -146 CURVE SMOOTH"
);
},
{
closed = 1;
nodes = (
"177 664 LINE",
"177 776 LINE",
"69 776 LINE",
"69 664 LINE"
);
}
);
width = 230;
},
{
layerId = "F66B25F0-8957-42F3-9BF7-6C5DDCB0258B";
paths = (
{
closed = 1;
nodes = (
"169 -180 OFFCURVE",
"219 -116 OFFCURVE",
"219 -25 CURVE SMOOTH",
"219 578 LINE",
"57 578 LINE",
"57 -5 LINE SMOOTH",
"57 -41 OFFCURVE",
"40 -54 OFFCURVE",
"12 -54 CURVE SMOOTH",
"4 -54 OFFCURVE",
"-7 -52 OFFCURVE",
"-17 -50 CURVE",
"-17 -167 LINE",
"10 -175 OFFCURVE",
"40 -180 OFFCURVE",
"70 -180 CURVE SMOOTH"
);
},
{
closed = 1;
nodes = (
"220 676 LINE",
"220 789 LINE",
"56 789 LINE",
"56 676 LINE"
);
}
);
width = 269;
}
);
leftKerningGroup = j;
rightKerningGroup = j;
unicode = 006A;
userData = {
com.fontlab.hintData = {
hhints = (
{
position = -393;
width = 289;
}
);
};
com.typemytype.robofont.layerData = {
b = {
anchors = (
);
components = (
);
contours = (
);
lib = {
};
name = j;
unicodes = (
);
width = 598;
};
};
};
},
{
glyphname = jdotless;
layers = (
{
anchors = (
{
name = bottom;
position = "{108, -155}";
},
{
name = top;
position = "{108, 578}";
}
);
layerId = "FCD7E481-103E-4A6C-AD70-01DA443B2AD0";
paths = (
{
closed = 1;
nodes = (
"89 -155 OFFCURVE",
"134 -121 OFFCURVE",
"134 -28 CURVE SMOOTH",
"134 578 LINE",
"81 578 LINE",
"81 -25 LINE SMOOTH",
"81 -67 OFFCURVE",
"78 -111 OFFCURVE",
"8 -111 CURVE SMOOTH",
"5 -111 OFFCURVE",
"-14 -111 OFFCURVE",
"-16 -110 CURVE",
"-16 -153 LINE",
"-12 -154 OFFCURVE",
"9 -155 OFFCURVE",
"14 -155 CURVE SMOOTH"
);
}
);
width = 202;
},
{
anchors = (
{
name = bottom;
position = "{123, -190}";
},
{
name = top;
position = "{123, 578}";
}
);
layerId = "8AC5A1D3-32A8-4416-86FC-94176A419B8F";
paths = (
{
closed = 1;
nodes = (
"123 -146 OFFCURVE",
"176 -97 OFFCURVE",
"176 -6 CURVE SMOOTH",
"176 578 LINE",
"69 578 LINE",
"69 5 LINE SMOOTH",
"69 -36 OFFCURVE",
"55 -65 OFFCURVE",
"9 -65 CURVE SMOOTH",
"2 -65 OFFCURVE",
"-12 -63 OFFCURVE",
"-19 -62 CURVE",
"-19 -139 LINE",
"-5 -145 OFFCURVE",
"18 -146 OFFCURVE",
"36 -146 CURVE SMOOTH"
);
}
);
width = 230;
},
{
anchors = (
{
name = bottom;
position = "{146, -190}";
},
{
name = top;
position = "{146, 578}";
}
);
layerId = "F66B25F0-8957-42F3-9BF7-6C5DDCB0258B";
paths = (
{
closed = 1;
nodes = (
"176 -180 OFFCURVE",
"227 -116 OFFCURVE",
"227 -25 CURVE SMOOTH",
"227 578 LINE",
"64 578 LINE",
"64 -5 LINE SMOOTH",
"64 -41 OFFCURVE",
"47 -54 OFFCURVE",
"20 -54 CURVE SMOOTH",
"11 -54 OFFCURVE",
"0 -52 OFFCURVE",
"-9 -50 CURVE",
"-9 -167 LINE",
"17 -175 OFFCURVE",
"47 -180 OFFCURVE",
"78 -180 CURVE SMOOTH"
);
}
);
width = 277;
}
);
leftKerningGroup = j;
rightKerningGroup = j;
unicode = 0237;
},
{
color = 3;
glyphname = k;
layers = (
{
anchors = (
{
name = bottom;
position = "{192, 0}";
},
{
name = top;
position = "{230, 740}";
}
);
layerId = "FCD7E481-103E-4A6C-AD70-01DA443B2AD0";
paths = (
{
closed = 1;
nodes = (
"110 0 LINE",
"110 217 LINE",
"190 325 LINE",
"320 0 LINE",
"374 0 LINE",
"230 357 LINE",
"382 578 LINE",
"325 578 LINE",
"110 276 LINE",
"110 810 LINE",
"57 810 LINE",
"57 0 LINE"
);
}
);
width = 383;
},
{
associatedMasterId = "FCD7E481-103E-4A6C-AD70-01DA443B2AD0";
layerId = "E70678F0-92C3-450C-B581-0AD31B345CD8";
name = b;
width = 580;
},
{
anchors = (
{
name = bottom;
position = "{215, 0}";
},
{
name = top;
position = "{284, 759}";
}
);
layerId = "8AC5A1D3-32A8-4416-86FC-94176A419B8F";
paths = (
{
closed = 1;
nodes = (
"163 1 LINE",
"163 222 LINE",
"212 296 LINE",
"320 0 LINE",
"427 0 LINE",
"295 352 LINE",
"431 578 LINE",
"319 578 LINE",
"163 328 LINE",
"163 811 LINE",
"56 811 LINE",
"56 1 LINE"
);
}
);
width = 429;
},
{
anchors = (
{
name = bottom;
position = "{260, 0}";
},
{
name = top;
position = "{331, 751}";
}
);
layerId = "F66B25F0-8957-42F3-9BF7-6C5DDCB0258B";
paths = (
{
closed = 1;
nodes = (
"208 0 LINE",
"208 220 LINE",
"244 275 LINE",
"330 0 LINE",
"506 0 LINE",
"368 341 LINE",
"507 578 LINE",
"326 578 LINE",
"208 361 LINE",
"208 810 LINE",
"51 810 LINE",
"51 0 LINE"
);
}
);
width = 510;
}
);
leftKerningGroup = h;
rightKerningGroup = k;
unicode = 006B;
userData = {
com.typemytype.robofont.layerData = {
b = {
anchors = (
);
components = (
);
contours = (
);
lib = {
};
name = k;
unicodes = (
);
width = 1187;
};
};
};
},
{
glyphname = kgreenlandic;
layers = (
{
layerId = "FCD7E481-103E-4A6C-AD70-01DA443B2AD0";
paths = (
{
closed = 1;
nodes = (
"117 0 LINE",
"117 214 LINE",
"189 316 LINE",
"324 0 LINE",
"378 0 LINE",
"227 352 LINE",
"375 578 LINE",
"318 578 LINE",
"117 276 LINE",
"117 578 LINE",
"64 578 LINE",
"64 0 LINE"
);
}
);
width = 411;
},
{
associatedMasterId = "FCD7E481-103E-4A6C-AD70-01DA443B2AD0";
layerId = "755B9717-320A-45E8-A0AA-4C45CBC8FEA1";
name = b;
width = 535;
},
{
layerId = "8AC5A1D3-32A8-4416-86FC-94176A419B8F";
paths = (
{
closed = 1;
nodes = (
"166 0 LINE",
"166 200 LINE",
"222 284 LINE",
"319 0 LINE",
"426 0 LINE",
"294 357 LINE",
"426 578 LINE",
"318 578 LINE",
"166 324 LINE",
"166 578 LINE",
"59 578 LINE",
"59 0 LINE"
);
}
);
width = 430;
},
{
layerId = "F66B25F0-8957-42F3-9BF7-6C5DDCB0258B";
paths = (
{
closed = 1;
nodes = (
"213 0 LINE",
"213 229 LINE",
"239 267 LINE",
"331 0 LINE",
"502 0 LINE",
"382 321 LINE",
"500 578 LINE",
"324 578 LINE",
"213 337 LINE",
"213 578 LINE",
"50 578 LINE",
"50 0 LINE"
);
}
);
width = 508;
}
);
leftKerningGroup = n;
rightKerningGroup = k;
unicode = 0138;
userData = {
com.typemytype.robofont.layerData = {
b = {
anchors = (
);
components = (
);
contours = (
);
lib = {
};
name = kgreenlandic;
unicodes = (
);
width = 1095;
};
};
};
},
{
color = 3;
glyphname = l;
layers = (
{
anchors = (
{
name = bottom;
position = "{94, 0}";
},
{
name = center;
position = "{93, 289}";
},
{
name = top;
position = "{94, 810}";
},
{
name = topright;
position = "{175, 810}";
}
);
layerId = "FCD7E481-103E-4A6C-AD70-01DA443B2AD0";
paths = (
{
closed = 1;
nodes = (
"120 0 LINE",
"120 810 LINE",
"67 810 LINE",
"67 0 LINE"
);
}
);
width = 186;
},
{
associatedMasterId = "FCD7E481-103E-4A6C-AD70-01DA443B2AD0";
layerId = "F1BF985C-30B8-498C-8048-FAC765DB4322";
name = b;
width = 168;
},
{
anchors = (
{
name = bottom;
position = "{118, 0}";
},
{
name = center;
position = "{115, 289}";
},
{
name = top;
position = "{118, 810}";
},
{
name = topright;
position = "{219, 810}";
}
);
layerId = "8AC5A1D3-32A8-4416-86FC-94176A419B8F";
paths = (
{
closed = 1;
nodes = (
"171 0 LINE",
"171 810 LINE",
"64 810 LINE",
"64 0 LINE"
);
}
);
width = 229;
},
{
anchors = (
{
name = bottom;
position = "{139, 0}";
},
{
name = center;
position = "{137, 289}";
},
{
name = top;
position = "{139, 810}";
},
{
name = topright;
position = "{269, 810}";
}
);
layerId = "F66B25F0-8957-42F3-9BF7-6C5DDCB0258B";
paths = (
{
closed = 1;
nodes = (
"220 0 LINE",
"220 810 LINE",
"58 810 LINE",
"58 0 LINE"
);
}
);
width = 274;
}
);
leftKerningGroup = l;
rightKerningGroup = l;
unicode = 006C;
userData = {
com.fontlab.hintData = {
vhints = (
{
position = 88;
width = 372;
}
);
};
com.typemytype.robofont.layerData = {
b = {
anchors = (
);
components = (
);
contours = (
);
lib = {
};
name = l;
unicodes = (
);
width = 344;
};
};
};
},
{
glyphname = lslash;
layers = (
{
layerId = "FCD7E481-103E-4A6C-AD70-01DA443B2AD0";
paths = (
{
closed = 1;
nodes = (
"150 0 LINE",
"150 488 LINE",
"210 521 LINE",
"210 567 LINE",
"150 534 LINE",
"150 810 LINE",
"97 810 LINE",
"97 506 LINE",
"35 473 LINE",
"35 426 LINE",
"97 460 LINE",
"97 0 LINE"
);
}
);
width = 247;
},
{
layerId = "8AC5A1D3-32A8-4416-86FC-94176A419B8F";
paths = (
{
closed = 1;
nodes = (
"192 0 LINE",
"192 465 LINE",
"253 495 LINE",
"253 578 LINE",
"192 548 LINE",
"192 810 LINE",
"85 810 LINE",
"85 499 LINE",
"17 467 LINE",
"17 383 LINE",
"85 416 LINE",
"85 0 LINE"
);
}
);
width = 267;
},
{
layerId = "F66B25F0-8957-42F3-9BF7-6C5DDCB0258B";
paths = (
{
closed = 1;
nodes = (
"249 0 LINE",
"249 484 LINE",
"326 516 LINE",
"326 607 LINE",
"249 574 LINE",
"249 810 LINE",
"87 810 LINE",
"87 505 LINE",
"20 476 LINE",
"20 385 LINE",
"87 414 LINE",
"87 0 LINE"
);
}
);
width = 334;
}
);
leftKerningGroup = l;
unicode = 0142;
userData = {
com.fontlab.hintData = {
vhints = (
{
position = 44;
width = 673;
}
);
};
};
},
{
color = 3;
glyphname = m;
layers = (
{
anchors = (
{
name = bottom;
position = "{312, 0}";
},
{
name = top;
position = "{312, 578}";
}
);
layerId = "FCD7E481-103E-4A6C-AD70-01DA443B2AD0";
paths = (
{
closed = 1;
nodes = (
"107 0 LINE",
"107 483 LINE",
"143 523 OFFCURVE",
"186 550 OFFCURVE",
"226 550 CURVE SMOOTH",
"261 550 OFFCURVE",
"288 533 OFFCURVE",
"288 458 CURVE SMOOTH",
"288 0 LINE",
"339 0 LINE",
"339 457 LINE SMOOTH",
"339 466 OFFCURVE",
"338 475 OFFCURVE",
"337 482 CURVE",
"373 523 OFFCURVE",
"416 550 OFFCURVE",
"457 550 CURVE SMOOTH",
"492 550 OFFCURVE",
"519 533 OFFCURVE",
"519 458 CURVE SMOOTH",
"519 0 LINE",
"570 0 LINE",
"570 457 LINE SMOOTH",
"570 561 OFFCURVE",
"522 588 OFFCURVE",
"474 588 CURVE SMOOTH",
"421 588 OFFCURVE",
"371 560 OFFCURVE",
"333 511 CURVE",
"319 571 OFFCURVE",
"281 588 OFFCURVE",
"243 588 CURVE SMOOTH",
"192 588 OFFCURVE",
"144 562 OFFCURVE",
"107 517 CURVE",
"107 578 LINE",
"57 578 LINE",
"57 0 LINE"
);
}
);
width = 623;
},
{
associatedMasterId = "FCD7E481-103E-4A6C-AD70-01DA443B2AD0";
layerId = "C6FAC1BE-CCAC-4BBC-A9CE-EB3A7D35CEFB";
name = b;
width = 778;
},
{
anchors = (
{
name = bottom;
position = "{340, 0}";
},
{
name = top;
position = "{340, 578}";
}
);
layerId = "8AC5A1D3-32A8-4416-86FC-94176A419B8F";
paths = (
{
closed = 1;
nodes = (
"153 0 LINE",
"153 471 LINE",
"181 500 OFFCURVE",
"214 518 OFFCURVE",
"243 518 CURVE SMOOTH",
"273 518 OFFCURVE",
"293 503 OFFCURVE",
"293 447 CURVE SMOOTH",
"293 0 LINE",
"391 0 LINE",
"391 454 LINE SMOOTH",
"391 460 OFFCURVE",
"391 465 OFFCURVE",
"391 471 CURVE",
"418 500 OFFCURVE",
"452 518 OFFCURVE",
"481 518 CURVE SMOOTH",
"511 518 OFFCURVE",
"531 503 OFFCURVE",
"531 447 CURVE SMOOTH",
"531 0 LINE",
"629 0 LINE",
"629 454 LINE SMOOTH",
"629 550 OFFCURVE",
"583 588 OFFCURVE",
"527 588 CURVE SMOOTH",
"474 588 OFFCURVE",
"424 565 OFFCURVE",
"383 515 CURVE",
"368 569 OFFCURVE",
"331 588 OFFCURVE",
"289 588 CURVE SMOOTH",
"240 588 OFFCURVE",
"192 567 OFFCURVE",
"153 523 CURVE",
"153 578 LINE",
"54 578 LINE",
"54 0 LINE"
);
}
);
width = 680;
},
{
anchors = (
{
name = bottom;
position = "{376, 0}";
},
{
name = top;
position = "{376, 578}";
}
);
layerId = "F66B25F0-8957-42F3-9BF7-6C5DDCB0258B";
paths = (
{
closed = 1;
nodes = (
"211 0 LINE",
"211 456 LINE",
"230 469 OFFCURVE",
"250 477 OFFCURVE",
"265 477 CURVE SMOOTH",
"288 477 OFFCURVE",
"300 464 OFFCURVE",
"300 432 CURVE SMOOTH",
"300 0 LINE",
"458 0 LINE",
"458 449 LINE SMOOTH",
"458 451 OFFCURVE",
"458 453 OFFCURVE",
"458 456 CURVE",
"476 469 OFFCURVE",
"498 477 OFFCURVE",
"512 477 CURVE SMOOTH",
"535 477 OFFCURVE",
"546 464 OFFCURVE",
"546 432 CURVE SMOOTH",
"546 0 LINE",
"706 0 LINE",
"706 449 LINE SMOOTH",
"706 537 OFFCURVE",
"662 589 OFFCURVE",
"594 589 CURVE SMOOTH",
"543 589 OFFCURVE",
"492 571 OFFCURVE",
"447 520 CURVE",
"429 565 OFFCURVE",
"394 589 OFFCURVE",
"348 589 CURVE SMOOTH",
"300 589 OFFCURVE",
"253 573 OFFCURVE",
"211 532 CURVE",
"211 578 LINE",
"51 578 LINE",
"51 0 LINE"
);
}
);
width = 753;
}
);
leftKerningGroup = n;
rightKerningGroup = n;
unicode = 006D;
userData = {
com.typemytype.robofont.layerData = {
b = {
anchors = (
);
components = (
);
contours = (
);
lib = {
};
name = m;
unicodes = (
);
width = 1593;
};
};
};
},
{
color = 3;
glyphname = n;
layers = (
{
anchors = (
{
name = bottom;
position = "{196, 0}";
},
{
name = top;
position = "{196, 578}";
}
);
layerId = "FCD7E481-103E-4A6C-AD70-01DA443B2AD0";
paths = (
{
closed = 1;
nodes = (
"110 0 LINE",
"110 482 LINE",
"144 520 OFFCURVE",
"185 546 OFFCURVE",
"224 546 CURVE SMOOTH",
"261 546 OFFCURVE",
"285 526 OFFCURVE",
"285 455 CURVE SMOOTH",
"285 0 LINE",
"338 0 LINE",
"338 461 LINE SMOOTH",
"338 553 OFFCURVE",
"298 587 OFFCURVE",
"247 587 CURVE SMOOTH",
"194 587 OFFCURVE",
"146 559 OFFCURVE",
"110 516 CURVE",
"110 578 LINE",
"57 578 LINE",
"57 0 LINE"
);
}
);
width = 391;
},
{
associatedMasterId = "FCD7E481-103E-4A6C-AD70-01DA443B2AD0";
layerId = "90730BB9-A166-4B05-9450-8E246BC158DC";
name = b;
width = 531;
},
{
anchors = (
{
name = bottom;
position = "{220, 0}";
},
{
name = top;
position = "{220, 578}";
}
);
layerId = "8AC5A1D3-32A8-4416-86FC-94176A419B8F";
paths = (
{
closed = 1;
nodes = (
"161 0 LINE",
"161 466 LINE",
"185 486 OFFCURVE",
"212 502 OFFCURVE",
"236 502 CURVE SMOOTH",
"273 502 OFFCURVE",
"282 478 OFFCURVE",
"282 437 CURVE SMOOTH",
"282 0 LINE",
"389 0 LINE",
"389 468 LINE SMOOTH",
"389 524 OFFCURVE",
"371 586 OFFCURVE",
"302 586 CURVE SMOOTH",
"246 586 OFFCURVE",
"199 557 OFFCURVE",
"161 521 CURVE",
"161 578 LINE",
"54 578 LINE",
"54 0 LINE"
);
}
);
width = 439;
},
{
anchors = (
{
name = bottom;
position = "{254, 0}";
},
{
name = top;
position = "{254, 578}";
}
);
layerId = "F66B25F0-8957-42F3-9BF7-6C5DDCB0258B";
paths = (
{
closed = 1;
nodes = (
"214 0 LINE",
"214 452 LINE",
"233 465 OFFCURVE",
"252 473 OFFCURVE",
"265 473 CURVE SMOOTH",
"290 473 OFFCURVE",
"298 458 OFFCURVE",
"298 430 CURVE SMOOTH",
"298 0 LINE",
"460 0 LINE",
"460 453 LINE SMOOTH",
"460 530 OFFCURVE",
"424 588 OFFCURVE",
"353 588 CURVE SMOOTH",
"302 588 OFFCURVE",
"256 562 OFFCURVE",
"214 520 CURVE",
"214 578 LINE",
"51 578 LINE",
"51 0 LINE"
);
}
);
width = 507;
}
);
leftKerningGroup = n;
rightKerningGroup = n;
unicode = 006E;
userData = {
com.fontlab.hintData = {
};
com.typemytype.robofont.layerData = {
b = {
anchors = (
);
components = (
);
contours = (
);
lib = {
};
name = n;
unicodes = (
);
width = 1087;
};
};
hhints = {
};
position = 585;
vhints = {
};
width = 65;
};
},
{
glyphname = eng;
layers = (
{
layerId = "FCD7E481-103E-4A6C-AD70-01DA443B2AD0";
paths = (
{
closed = 1;
nodes = (
"177 -156 LINE SMOOTH",
"261 -156 OFFCURVE",
"335 -125 OFFCURVE",
"335 -6 CURVE SMOOTH",
"335 461 LINE SMOOTH",
"335 553 OFFCURVE",
"296 587 OFFCURVE",
"244 587 CURVE SMOOTH",
"191 587 OFFCURVE",
"144 559 OFFCURVE",
"107 516 CURVE",
"107 578 LINE",
"54 578 LINE",
"54 0 LINE",
"107 0 LINE",
"107 482 LINE",
"141 520 OFFCURVE",
"182 546 OFFCURVE",
"221 546 CURVE SMOOTH",
"258 546 OFFCURVE",
"282 526 OFFCURVE",
"282 455 CURVE SMOOTH",
"282 -5 LINE SMOOTH",
"282 -71 OFFCURVE",
"263 -113 OFFCURVE",
"164 -113 CURVE",
"164 -156 LINE"
);
}
);
width = 388;
},
{
layerId = "8AC5A1D3-32A8-4416-86FC-94176A419B8F";
paths = (
{
closed = 1;
nodes = (
"186 -184 LINE SMOOTH",
"300 -184 OFFCURVE",
"379 -125 OFFCURVE",
"379 -6 CURVE SMOOTH",
"379 468 LINE SMOOTH",
"379 524 OFFCURVE",
"361 586 OFFCURVE",
"293 586 CURVE SMOOTH",
"236 586 OFFCURVE",
"189 557 OFFCURVE",
"151 521 CURVE",
"151 578 LINE",
"44 578 LINE",
"44 0 LINE",
"151 0 LINE",
"151 466 LINE",
"175 486 OFFCURVE",
"202 502 OFFCURVE",
"226 502 CURVE SMOOTH",
"264 502 OFFCURVE",
"272 478 OFFCURVE",
"272 437 CURVE SMOOTH",
"272 -5 LINE SMOOTH",
"272 -71 OFFCURVE",
"253 -103 OFFCURVE",
"154 -103 CURVE",
"154 -184 LINE"
);
}
);
width = 388;
},
{
layerId = "F66B25F0-8957-42F3-9BF7-6C5DDCB0258B";
paths = (
{
closed = 1;
nodes = (
"237 -195 LINE SMOOTH",
"398 -195 OFFCURVE",
"452 -142 OFFCURVE",
"452 -6 CURVE SMOOTH",
"452 453 LINE SMOOTH",
"452 530 OFFCURVE",
"415 588 OFFCURVE",
"345 588 CURVE SMOOTH",
"293 588 OFFCURVE",
"248 570 OFFCURVE",
"205 527 CURVE",
"205 578 LINE",
"42 578 LINE",
"42 0 LINE",
"205 0 LINE",
"205 452 LINE",
"224 465 OFFCURVE",
"242 473 OFFCURVE",
"257 473 CURVE SMOOTH",
"282 473 OFFCURVE",
"289 458 OFFCURVE",
"289 430 CURVE SMOOTH",
"289 -5 LINE SMOOTH",
"289 -73 OFFCURVE",
"270 -92 OFFCURVE",
"178 -92 CURVE",
"178 -195 LINE"
);
}
);
width = 476;
}
);
leftKerningGroup = n;
rightKerningGroup = j;
unicode = 014B;
userData = {
com.fontlab.hintData = {
};
hhints = {
};
position = -406;
width = 237;
};
},
{
color = 3;
glyphname = o;
layers = (
{
anchors = (
{
name = bottom;
position = "{192, 0}";
},
{
name = center;
position = "{192, 289}";
},
{
name = ogonek;
position = "{225, 0}";
},
{
name = top;
position = "{192, 578}";
},
{
name = topright;
position = "{242, 578}";
}
);
guideLines = (
{
angle = 90;
position = "{337, 512}";
}
);
layerId = "FCD7E481-103E-4A6C-AD70-01DA443B2AD0";
paths = (
{
closed = 1;
nodes = (
"307 -9 OFFCURVE",
"337 66 OFFCURVE",
"337 211 CURVE SMOOTH",
"337 367 LINE SMOOTH",
"337 512 OFFCURVE",
"307 587 OFFCURVE",
"191 587 CURVE SMOOTH",
"76 587 OFFCURVE",
"46 511 OFFCURVE",
"46 367 CURVE SMOOTH",
"46 211 LINE SMOOTH",
"46 66 OFFCURVE",
"76 -9 OFFCURVE",
"191 -9 CURVE SMOOTH"
);
},
{
closed = 1;
nodes = (
"107 31 OFFCURVE",
"99 98 OFFCURVE",
"99 209 CURVE SMOOTH",
"99 369 LINE SMOOTH",
"99 480 OFFCURVE",
"107 547 OFFCURVE",
"191 547 CURVE SMOOTH",
"275 547 OFFCURVE",
"284 480 OFFCURVE",
"284 369 CURVE SMOOTH",
"284 209 LINE SMOOTH",
"284 98 OFFCURVE",
"275 31 OFFCURVE",
"191 31 CURVE SMOOTH"
);
}
);
width = 383;
},
{
associatedMasterId = "FCD7E481-103E-4A6C-AD70-01DA443B2AD0";
layerId = "38290473-242E-4E3A-816A-4CC36D58C6CA";
name = b;
width = 503;
},
{
anchors = (
{
name = bottom;
position = "{213, 0}";
},
{
name = center;
position = "{213, 289}";
},
{
name = ogonek;
position = "{263, 8}";
},
{
name = top;
position = "{213, 578}";
},
{
name = topright;
position = "{244, 578}";
}
);
guideLines = (
{
angle = 90;
position = "{381, 503}";
}
);
layerId = "8AC5A1D3-32A8-4416-86FC-94176A419B8F";
paths = (
{
closed = 1;
nodes = (
"341 -8 OFFCURVE",
"381 75 OFFCURVE",
"381 205 CURVE SMOOTH",
"381 373 LINE SMOOTH",
"381 503 OFFCURVE",
"341 586 OFFCURVE",
"213 586 CURVE SMOOTH",
"84 586 OFFCURVE",
"44 503 OFFCURVE",
"44 373 CURVE SMOOTH",
"44 205 LINE SMOOTH",
"44 75 OFFCURVE",
"84 -8 OFFCURVE",
"213 -8 CURVE SMOOTH"
);
},
{
closed = 1;
nodes = (
"151 71 OFFCURVE",
"151 133 OFFCURVE",
"151 198 CURVE SMOOTH",
"151 379 LINE SMOOTH",
"151 444 OFFCURVE",
"151 507 OFFCURVE",
"213 507 CURVE SMOOTH",
"274 507 OFFCURVE",
"274 444 OFFCURVE",
"274 379 CURVE SMOOTH",
"274 198 LINE SMOOTH",
"274 133 OFFCURVE",
"274 71 OFFCURVE",
"213 71 CURVE SMOOTH"
);
}
);
width = 425;
},
{
anchors = (
{
name = bottom;
position = "{242, 0}";
},
{
name = center;
position = "{242, 289}";
},
{
name = ogonek;
position = "{276, 2}";
},
{
name = top;
position = "{241, 578}";
},
{
name = topright;
position = "{276, 578}";
}
);
layerId = "F66B25F0-8957-42F3-9BF7-6C5DDCB0258B";
paths = (
{
closed = 1;
nodes = (
"364 -10 OFFCURVE",
"444 53 OFFCURVE",
"444 179 CURVE SMOOTH",
"444 399 LINE SMOOTH",
"444 525 OFFCURVE",
"364 588 OFFCURVE",
"241 588 CURVE SMOOTH",
"117 588 OFFCURVE",
"39 525 OFFCURVE",
"39 399 CURVE SMOOTH",
"39 179 LINE SMOOTH",
"39 53 OFFCURVE",
"117 -10 OFFCURVE",
"241 -10 CURVE SMOOTH"
);
},
{
closed = 1;
nodes = (
"210 98 OFFCURVE",
"200 124 OFFCURVE",
"200 168 CURVE SMOOTH",
"200 410 LINE SMOOTH",
"200 453 OFFCURVE",
"210 480 OFFCURVE",
"242 480 CURVE SMOOTH",
"274 480 OFFCURVE",
"283 454 OFFCURVE",
"283 410 CURVE SMOOTH",
"283 168 LINE SMOOTH",
"283 124 OFFCURVE",
"274 98 OFFCURVE",
"242 98 CURVE SMOOTH"
);
}
);
width = 483;
}
);
leftKerningGroup = o;
rightKerningGroup = o;
unicode = 006F;
userData = {
com.fontlab.hintData = {
};
com.typemytype.robofont.layerData = {
b = {
anchors = (
);
components = (
);
contours = (
);
lib = {
};
name = o;
unicodes = (
);
width = 1031;
};
};
hhints = {
};
position = 590;
vhints = {
};
width = 64;
};
},
{
glyphname = oslash;
layers = (
{
anchors = (
{
name = top;
position = "{192, 578}";
}
);
components = (
{
name = o;
}
);
layerId = "FCD7E481-103E-4A6C-AD70-01DA443B2AD0";
paths = (
{
closed = 1;
nodes = (
"335 625 LINE",
"314 634 LINE",
"58 -58 LINE",
"78 -65 LINE"
);
}
);
width = 383;
},
{
associatedMasterId = "FCD7E481-103E-4A6C-AD70-01DA443B2AD0";
layerId = "7AB7A3CF-2DAC-4880-ACAF-DA04C91D11B0";
name = b;
width = 366;
},
{
anchors = (
{
name = top;
position = "{212, 578}";
}
);
components = (
{
name = o;
}
);
layerId = "8AC5A1D3-32A8-4416-86FC-94176A419B8F";
paths = (
{
closed = 1;
nodes = (
"367 656 LINE",
"330 668 LINE",
"64 -84 LINE",
"96 -95 LINE"
);
}
);
width = 424;
},
{
anchors = (
{
name = top;
position = "{239, 578}";
}
);
components = (
{
alignment = -1;
name = o;
}
);
layerId = "F66B25F0-8957-42F3-9BF7-6C5DDCB0258B";
paths = (
{
closed = 1;
nodes = (
"406 657 LINE",
"367 673 LINE",
"67 -73 LINE",
"104 -89 LINE"
);
}
);
width = 477;
}
);
leftKerningGroup = o;
rightKerningGroup = o;
unicode = 00F8;
userData = {
com.fontlab.hintData = {
hhints = (
{
position = -22;
width = 263;
},
{
position = 943;
width = 263;
}
);
vhints = (
{
position = 72;
width = 366;
}
);
};
com.typemytype.robofont.layerData = {
b = {
anchors = (
);
components = (
);
contours = (
);
lib = {
};
name = oslash;
unicodes = (
);
width = 750;
};
};
};
},
{
glyphname = oe;
layers = (
{
anchors = (
{
name = bottom;
position = "{314, 0}";
},
{
name = top;
position = "{314, 578}";
}
);
layerId = "FCD7E481-103E-4A6C-AD70-01DA443B2AD0";
paths = (
{
closed = 1;
nodes = (
"262 -9 OFFCURVE",
"301 22 OFFCURVE",
"316 85 CURVE",
"335 15 OFFCURVE",
"385 -9 OFFCURVE",
"441 -9 CURVE SMOOTH",
"544 -9 OFFCURVE",
"580 53 OFFCURVE",
"580 152 CURVE SMOOTH",
"580 195 LINE",
"527 195 LINE",
"527 151 LINE SMOOTH",
"527 62 OFFCURVE",
"495 33 OFFCURVE",
"441 33 CURVE SMOOTH",
"370 33 OFFCURVE",
"342 84 OFFCURVE",
"342 223 CURVE SMOOTH",
"342 303 LINE",
"580 303 LINE",
"580 359 LINE SMOOTH",
"580 524 OFFCURVE",
"543 587 OFFCURVE",
"438 587 CURVE SMOOTH",
"384 587 OFFCURVE",
"336 569 OFFCURVE",
"315 498 CURVE",
"301 555 OFFCURVE",
"261 587 OFFCURVE",
"195 587 CURVE SMOOTH",
"81 587 OFFCURVE",
"50 511 OFFCURVE",
"50 368 CURVE SMOOTH",
"50 210 LINE SMOOTH",
"50 65 OFFCURVE",
"81 -9 OFFCURVE",
"195 -9 CURVE SMOOTH"
);
},
{
closed = 1;
nodes = (
"111 33 OFFCURVE",
"103 100 OFFCURVE",
"103 210 CURVE SMOOTH",
"103 368 LINE SMOOTH",
"103 479 OFFCURVE",
"111 545 OFFCURVE",
"195 545 CURVE SMOOTH",
"280 545 OFFCURVE",
"289 479 OFFCURVE",
"289 368 CURVE SMOOTH",
"289 210 LINE SMOOTH",
"289 100 OFFCURVE",
"280 33 OFFCURVE",
"195 33 CURVE SMOOTH"
);
},
{
closed = 1;
nodes = (
"342 374 LINE SMOOTH",
"342 502 OFFCURVE",
"370 545 OFFCURVE",
"437 545 CURVE SMOOTH",
"520 545 OFFCURVE",
"527 470 OFFCURVE",
"527 369 CURVE SMOOTH",
"527 334 LINE",
"342 334 LINE"
);
}
);
width = 627;
},
{
anchors = (
{
name = bottom;
position = "{343, 0}";
},
{
name = top;
position = "{343, 578}";
}
);
layerId = "8AC5A1D3-32A8-4416-86FC-94176A419B8F";
paths = (
{
closed = 1;
nodes = (
"287 -8 OFFCURVE",
"324 20 OFFCURVE",
"343 62 CURVE",
"365 19 OFFCURVE",
"409 -8 OFFCURVE",
"477 -8 CURVE SMOOTH",
"580 -8 OFFCURVE",
"628 44 OFFCURVE",
"628 163 CURVE SMOOTH",
"628 201 LINE",
"521 201 LINE",
"521 162 LINE SMOOTH",
"521 110 OFFCURVE",
"505 80 OFFCURVE",
"465 80 CURVE SMOOTH",
"400 80 OFFCURVE",
"396 162 OFFCURVE",
"396 255 CURVE SMOOTH",
"396 291 LINE",
"628 291 LINE",
"628 340 LINE SMOOTH",
"628 498 OFFCURVE",
"603 586 OFFCURVE",
"474 586 CURVE SMOOTH",
"411 586 OFFCURVE",
"364 561 OFFCURVE",
"343 518 CURVE",
"322 558 OFFCURVE",
"285 586 OFFCURVE",
"221 586 CURVE SMOOTH",
"97 586 OFFCURVE",
"57 504 OFFCURVE",
"57 375 CURVE SMOOTH",
"57 203 LINE SMOOTH",
"57 73 OFFCURVE",
"98 -8 OFFCURVE",
"226 -8 CURVE SMOOTH"
);
},
{
closed = 1;
nodes = (
"165 80 OFFCURVE",
"164 139 OFFCURVE",
"164 203 CURVE SMOOTH",
"164 375 LINE SMOOTH",
"164 439 OFFCURVE",
"165 499 OFFCURVE",
"226 499 CURVE SMOOTH",
"288 499 OFFCURVE",
"289 439 OFFCURVE",
"289 375 CURVE SMOOTH",
"289 203 LINE SMOOTH",
"289 139 OFFCURVE",
"288 80 OFFCURVE",
"226 80 CURVE SMOOTH"
);
},
{
closed = 1;
nodes = (
"396 376 LINE SMOOTH",
"396 439 OFFCURVE",
"403 499 OFFCURVE",
"459 499 CURVE SMOOTH",
"518 499 OFFCURVE",
"521 436 OFFCURVE",
"521 376 CURVE SMOOTH",
"521 345 LINE",
"396 345 LINE"
);
}
);
width = 685;
},
{
anchors = (
{
name = bottom;
position = "{353, 0}";
},
{
name = top;
position = "{353, 578}";
}
);
layerId = "F66B25F0-8957-42F3-9BF7-6C5DDCB0258B";
paths = (
{
closed = 1;
nodes = (
"289 -13 OFFCURVE",
"333 18 OFFCURVE",
"356 60 CURVE",
"377 14 OFFCURVE",
"430 -13 OFFCURVE",
"502 -13 CURVE SMOOTH",
"612 -13 OFFCURVE",
"670 49 OFFCURVE",
"670 151 CURVE SMOOTH",
"670 227 LINE",
"517 227 LINE",
"517 150 LINE SMOOTH",
"517 111 OFFCURVE",
"509 89 OFFCURVE",
"485 89 CURVE SMOOTH",
"457 89 OFFCURVE",
"449 126 OFFCURVE",
"449 175 CURVE SMOOTH",
"449 278 LINE",
"670 278 LINE",
"670 400 LINE SMOOTH",
"670 520 OFFCURVE",
"625 602 OFFCURVE",
"497 602 CURVE SMOOTH",
"447 602 OFFCURVE",
"380 578 OFFCURVE",
"360 528 CURVE",
"341 577 OFFCURVE",
"273 602 OFFCURVE",
"220 602 CURVE SMOOTH",
"113 602 OFFCURVE",
"41 545 OFFCURVE",
"41 426 CURVE SMOOTH",
"41 174 LINE SMOOTH",
"41 47 OFFCURVE",
"117 -13 OFFCURVE",
"211 -13 CURVE SMOOTH"
);
},
{
closed = 1;
nodes = (
"211 89 OFFCURVE",
"201 122 OFFCURVE",
"201 170 CURVE SMOOTH",
"201 434 LINE SMOOTH",
"201 482 OFFCURVE",
"215 502 OFFCURVE",
"240 502 CURVE SMOOTH",
"266 502 OFFCURVE",
"279 480 OFFCURVE",
"279 434 CURVE SMOOTH",
"279 169 LINE SMOOTH",
"279 107 OFFCURVE",
"264 89 OFFCURVE",
"238 89 CURVE SMOOTH"
);
},
{
closed = 1;
nodes = (
"449 445 LINE SMOOTH",
"449 482 OFFCURVE",
"463 502 OFFCURVE",
"483 502 CURVE SMOOTH",
"505 502 OFFCURVE",
"519 479 OFFCURVE",
"519 445 CURVE SMOOTH",
"519 364 LINE",
"449 364 LINE"
);
}
);
width = 705;
}
);
leftKerningGroup = o;
rightKerningGroup = e;
unicode = 0153;
userData = {
com.fontlab.hintData = {
hhints = (
{
position = -28;
width = 214;
},
{
position = 1032;
width = 212;
}
);
vhints = (
{
position = 72;
width = 365;
},
{
position = 564;
width = 392;
},
{
position = 1061;
width = 339;
}
);
};
};
},
{
color = 3;
glyphname = p;
layers = (
{
anchors = (
{
name = bottom;
position = "{200, 0}";
},
{
name = top;
position = "{200, 578}";
}
);
layerId = "FCD7E481-103E-4A6C-AD70-01DA443B2AD0";
paths = (
{
closed = 1;
nodes = (
"110 -190 LINE",
"110 48 LINE",
"131 22 OFFCURVE",
"166 -9 OFFCURVE",
"216 -9 CURVE SMOOTH",
"320 -9 OFFCURVE",
"352 76 OFFCURVE",
"352 238 CURVE SMOOTH",
"352 349 LINE SMOOTH",
"352 494 OFFCURVE",
"328 587 OFFCURVE",
"221 587 CURVE SMOOTH",
"168 587 OFFCURVE",
"132 557 OFFCURVE",
"110 529 CURVE",
"110 578 LINE",
"57 578 LINE",
"57 -190 LINE"
);
},
{
closed = 1;
nodes = (
"168 32 OFFCURVE",
"133 57 OFFCURVE",
"110 84 CURVE",
"110 492 LINE",
"131 515 OFFCURVE",
"167 546 OFFCURVE",
"210 546 CURVE SMOOTH",
"285 546 OFFCURVE",
"299 487 OFFCURVE",
"299 349 CURVE SMOOTH",
"299 236 LINE SMOOTH",
"299 95 OFFCURVE",
"282 32 OFFCURVE",
"210 32 CURVE SMOOTH"
);
}
);
width = 400;
},
{
associatedMasterId = "FCD7E481-103E-4A6C-AD70-01DA443B2AD0";
layerId = "3CFB9F0A-91A9-47F1-81A5-FC9053BCC527";
name = b;
width = 525;
},
{
anchors = (
{
name = bottom;
position = "{223, 0}";
},
{
name = top;
position = "{223, 578}";
}
);
layerId = "8AC5A1D3-32A8-4416-86FC-94176A419B8F";
paths = (
{
closed = 1;
nodes = (
"161 -190 LINE",
"161 43 LINE",
"186 16 OFFCURVE",
"218 -8 OFFCURVE",
"259 -8 CURVE SMOOTH",
"373 -8 OFFCURVE",
"403 106 OFFCURVE",
"403 229 CURVE SMOOTH",
"403 369 LINE SMOOTH",
"403 438 OFFCURVE",
"392 586 OFFCURVE",
"271 586 CURVE SMOOTH",
"222 586 OFFCURVE",
"186 561 OFFCURVE",
"161 532 CURVE",
"161 578 LINE",
"54 578 LINE",
"54 -190 LINE"
);
},
{
closed = 1;
nodes = (
"206 76 OFFCURVE",
"181 87 OFFCURVE",
"161 102 CURVE",
"161 472 LINE",
"180 488 OFFCURVE",
"206 502 OFFCURVE",
"234 502 CURVE SMOOTH",
"289 502 OFFCURVE",
"296 441 OFFCURVE",
"296 369 CURVE SMOOTH",
"296 229 LINE SMOOTH",
"296 144 OFFCURVE",
"293 76 OFFCURVE",
"238 76 CURVE SMOOTH"
);
}
);
width = 446;
},
{
anchors = (
{
name = bottom;
position = "{252, 0}";
},
{
name = top;
position = "{252, 578}";
}
);
layerId = "F66B25F0-8957-42F3-9BF7-6C5DDCB0258B";
paths = (
{
closed = 1;
nodes = (
"214 -190 LINE",
"214 44 LINE",
"252 11 OFFCURVE",
"295 -10 OFFCURVE",
"337 -10 CURVE SMOOTH",
"419 -10 OFFCURVE",
"463 61 OFFCURVE",
"463 169 CURVE SMOOTH",
"463 418 LINE SMOOTH",
"463 512 OFFCURVE",
"427 588 OFFCURVE",
"339 588 CURVE SMOOTH",
"299 588 OFFCURVE",
"253 571 OFFCURVE",
"214 536 CURVE",
"214 578 LINE",
"51 578 LINE",
"51 -190 LINE"
);
},
{
closed = 1;
nodes = (
"242 95 OFFCURVE",
"228 101 OFFCURVE",
"214 110 CURVE",
"214 470 LINE",
"227 482 OFFCURVE",
"243 490 OFFCURVE",
"260 490 CURVE SMOOTH",
"288 490 OFFCURVE",
"300 463 OFFCURVE",
"300 430 CURVE SMOOTH",
"300 160 LINE SMOOTH",
"300 124 OFFCURVE",
"288 95 OFFCURVE",
"257 95 CURVE SMOOTH"
);
}
);
width = 505;
}
);
leftKerningGroup = p;
rightKerningGroup = o;
unicode = 0070;
userData = {
com.typemytype.robofont.layerData = {
b = {
anchors = (
);
components = (
);
contours = (
);
lib = {
};
name = p;
unicodes = (
);
width = 1075;
};
};
};
},
{
glyphname = thorn;
layers = (
{
layerId = "FCD7E481-103E-4A6C-AD70-01DA443B2AD0";
paths = (
{
closed = 1;
nodes = (
"111 -190 LINE",
"111 48 LINE",
"131 22 OFFCURVE",
"167 -9 OFFCURVE",
"216 -9 CURVE SMOOTH",
"320 -9 OFFCURVE",
"352 76 OFFCURVE",
"352 238 CURVE SMOOTH",
"352 349 LINE SMOOTH",
"352 494 OFFCURVE",
"328 587 OFFCURVE",
"222 587 CURVE SMOOTH",
"168 587 OFFCURVE",
"132 557 OFFCURVE",
"111 529 CURVE",
"111 810 LINE",
"58 810 LINE",
"58 -190 LINE"
);
},
{
closed = 1;
nodes = (
"168 32 OFFCURVE",
"133 57 OFFCURVE",
"111 84 CURVE",
"111 492 LINE",
"131 515 OFFCURVE",
"167 546 OFFCURVE",
"211 546 CURVE SMOOTH",
"286 546 OFFCURVE",
"299 487 OFFCURVE",
"299 349 CURVE SMOOTH",
"299 236 LINE SMOOTH",
"299 95 OFFCURVE",
"282 32 OFFCURVE",
"210 32 CURVE SMOOTH"
);
}
);
width = 398;
},
{
layerId = "8AC5A1D3-32A8-4416-86FC-94176A419B8F";
paths = (
{
closed = 1;
nodes = (
"162 -190 LINE",
"162 43 LINE",
"187 16 OFFCURVE",
"219 -8 OFFCURVE",
"260 -8 CURVE SMOOTH",
"374 -8 OFFCURVE",
"404 106 OFFCURVE",
"404 229 CURVE SMOOTH",
"404 369 LINE SMOOTH",
"404 438 OFFCURVE",
"393 586 OFFCURVE",
"272 586 CURVE SMOOTH",
"222 586 OFFCURVE",
"187 561 OFFCURVE",
"162 532 CURVE",
"162 810 LINE",
"55 810 LINE",
"55 -190 LINE"
);
},
{
closed = 1;
nodes = (
"207 76 OFFCURVE",
"182 87 OFFCURVE",
"162 102 CURVE",
"162 472 LINE",
"181 488 OFFCURVE",
"206 502 OFFCURVE",
"234 502 CURVE SMOOTH",
"290 502 OFFCURVE",
"297 441 OFFCURVE",
"297 369 CURVE SMOOTH",
"297 229 LINE SMOOTH",
"297 144 OFFCURVE",
"293 76 OFFCURVE",
"239 76 CURVE SMOOTH"
);
}
);
width = 447;
},
{
layerId = "F66B25F0-8957-42F3-9BF7-6C5DDCB0258B";
paths = (
{
closed = 1;
nodes = (
"209 -190 LINE",
"209 43 LINE",
"247 11 OFFCURVE",
"289 -10 OFFCURVE",
"331 -10 CURVE SMOOTH",
"412 -10 OFFCURVE",
"457 61 OFFCURVE",
"457 169 CURVE SMOOTH",
"457 418 LINE SMOOTH",
"457 512 OFFCURVE",
"421 588 OFFCURVE",
"334 588 CURVE SMOOTH",
"293 588 OFFCURVE",
"249 571 OFFCURVE",
"209 536 CURVE",
"209 810 LINE",
"46 810 LINE",
"46 -190 LINE"
);
},
{
closed = 1;
nodes = (
"237 95 OFFCURVE",
"222 101 OFFCURVE",
"209 110 CURVE",
"209 470 LINE",
"223 483 OFFCURVE",
"238 490 OFFCURVE",
"253 490 CURVE SMOOTH",
"282 490 OFFCURVE",
"293 463 OFFCURVE",
"293 430 CURVE SMOOTH",
"293 160 LINE SMOOTH",
"293 124 OFFCURVE",
"282 95 OFFCURVE",
"252 95 CURVE SMOOTH"
);
}
);
width = 494;
}
);
leftKerningGroup = h;
rightKerningGroup = o;
unicode = 00FE;
},
{
color = 3;
glyphname = q;
layers = (
{
anchors = (
{
name = bottom;
position = "{198, 0}";
},
{
name = top;
position = "{198, 578}";
}
);
layerId = "FCD7E481-103E-4A6C-AD70-01DA443B2AD0";
paths = (
{
closed = 1;
nodes = (
"340 -190 LINE",
"340 578 LINE",
"287 578 LINE",
"287 533 LINE",
"266 560 OFFCURVE",
"230 587 OFFCURVE",
"182 587 CURVE SMOOTH",
"76 587 OFFCURVE",
"48 503 OFFCURVE",
"48 340 CURVE SMOOTH",
"48 237 LINE SMOOTH",
"48 62 OFFCURVE",
"84 -9 OFFCURVE",
"184 -9 CURVE SMOOTH",
"232 -9 OFFCURVE",
"266 19 OFFCURVE",
"287 44 CURVE",
"287 -190 LINE"
);
},
{
closed = 1;
nodes = (
"119 32 OFFCURVE",
"102 93 OFFCURVE",
"102 233 CURVE SMOOTH",
"102 353 LINE SMOOTH",
"102 488 OFFCURVE",
"116 546 OFFCURVE",
"190 546 CURVE SMOOTH",
"231 546 OFFCURVE",
"266 517 OFFCURVE",
"287 495 CURVE",
"287 82 LINE",
"263 55 OFFCURVE",
"230 32 OFFCURVE",
"192 32 CURVE SMOOTH"
);
}
);
width = 396;
},
{
associatedMasterId = "FCD7E481-103E-4A6C-AD70-01DA443B2AD0";
layerId = "80257898-4EB6-4C6B-8C21-3A60BC18CCD5";
name = b;
width = 525;
},
{
anchors = (
{
name = bottom;
position = "{222, 0}";
},
{
name = top;
position = "{222, 578}";
}
);
layerId = "8AC5A1D3-32A8-4416-86FC-94176A419B8F";
paths = (
{
closed = 1;
nodes = (
"389 -190 LINE",
"389 578 LINE",
"282 578 LINE",
"282 541 LINE",
"257 566 OFFCURVE",
"225 586 OFFCURVE",
"186 586 CURVE SMOOTH",
"68 586 OFFCURVE",
"44 471 OFFCURVE",
"44 339 CURVE SMOOTH",
"44 227 LINE SMOOTH",
"44 56 OFFCURVE",
"91 -8 OFFCURVE",
"189 -8 CURVE SMOOTH",
"227 -8 OFFCURVE",
"257 10 OFFCURVE",
"282 37 CURVE",
"282 -190 LINE"
);
},
{
closed = 1;
nodes = (
"159 76 OFFCURVE",
"151 137 OFFCURVE",
"151 218 CURVE SMOOTH",
"151 381 LINE SMOOTH",
"151 447 OFFCURVE",
"164 502 OFFCURVE",
"214 502 CURVE SMOOTH",
"240 502 OFFCURVE",
"263 490 OFFCURVE",
"282 477 CURVE",
"282 98 LINE",
"260 83 OFFCURVE",
"236 76 OFFCURVE",
"216 76 CURVE SMOOTH"
);
}
);
width = 443;
},
{
anchors = (
{
name = bottom;
position = "{252, 0}";
},
{
name = top;
position = "{252, 578}";
}
);
layerId = "F66B25F0-8957-42F3-9BF7-6C5DDCB0258B";
paths = (
{
closed = 1;
nodes = (
"455 -190 LINE",
"455 578 LINE",
"292 578 LINE",
"292 539 LINE",
"259 569 OFFCURVE",
"220 588 OFFCURVE",
"176 588 CURVE SMOOTH",
"87 588 OFFCURVE",
"42 514 OFFCURVE",
"42 407 CURVE SMOOTH",
"42 168 LINE SMOOTH",
"42 50 OFFCURVE",
"89 -10 OFFCURVE",
"176 -10 CURVE SMOOTH",
"216 -10 OFFCURVE",
"255 12 OFFCURVE",
"292 48 CURVE",
"292 -190 LINE"
);
},
{
closed = 1;
nodes = (
"218 94 OFFCURVE",
"205 122 OFFCURVE",
"205 158 CURVE SMOOTH",
"205 424 LINE SMOOTH",
"205 459 OFFCURVE",
"218 487 OFFCURVE",
"249 487 CURVE SMOOTH",
"263 487 OFFCURVE",
"278 481 OFFCURVE",
"292 472 CURVE",
"292 110 LINE",
"276 100 OFFCURVE",
"260 94 OFFCURVE",
"248 94 CURVE SMOOTH"
);
}
);
width = 504;
}
);
leftKerningGroup = o;
rightKerningGroup = q;
unicode = 0071;
userData = {
com.fontlab.hintData = {
hhints = (
{
position = -22;
width = 226;
},
{
position = 986;
width = 220;
}
);
};
com.typemytype.robofont.layerData = {
b = {
anchors = (
);
components = (
);
contours = (
);
lib = {
};
name = q;
unicodes = (
);
width = 1076;
};
};
};
},
{
color = 3;
glyphname = r;
layers = (
{
anchors = (
{
name = bottom;
position = "{91, 0}";
},
{
name = top;
position = "{162, 578}";
}
);
layerId = "FCD7E481-103E-4A6C-AD70-01DA443B2AD0";
paths = (
{
closed = 1;
nodes = (
"117 0 LINE",
"117 457 LINE",
"146 505 OFFCURVE",
"188 531 OFFCURVE",
"242 531 CURVE SMOOTH",
"248 531 OFFCURVE",
"259 530 OFFCURVE",
"264 528 CURVE",
"264 583 LINE",
"260 584 OFFCURVE",
"257 584 OFFCURVE",
"254 584 CURVE SMOOTH",
"209 584 OFFCURVE",
"151 557 OFFCURVE",
"117 500 CURVE",
"117 578 LINE",
"64 578 LINE",
"64 0 LINE"
);
}
);
width = 284;
},
{
associatedMasterId = "FCD7E481-103E-4A6C-AD70-01DA443B2AD0";
layerId = "1648B2FC-6C9D-4BCB-B82A-A4C471982E27";
name = b;
width = 268;
},
{
anchors = (
{
name = bottom;
position = "{111, 0}";
},
{
name = top;
position = "{184, 578}";
}
);
layerId = "8AC5A1D3-32A8-4416-86FC-94176A419B8F";
paths = (
{
closed = 1;
nodes = (
"164 0 LINE",
"164 422 LINE",
"191 466 OFFCURVE",
"217 478 OFFCURVE",
"250 478 CURVE SMOOTH",
"271 478 OFFCURVE",
"293 472 OFFCURVE",
"309 466 CURVE",
"309 584 LINE",
"301 585 OFFCURVE",
"297 585 OFFCURVE",
"292 585 CURVE SMOOTH",
"249 585 OFFCURVE",
"206 566 OFFCURVE",
"164 496 CURVE",
"164 578 LINE",
"57 578 LINE",
"57 0 LINE"
);
}
);
width = 321;
},
{
anchors = (
{
name = bottom;
position = "{135, 0}";
},
{
name = top;
position = "{198, 578}";
}
);
layerId = "F66B25F0-8957-42F3-9BF7-6C5DDCB0258B";
paths = (
{
closed = 1;
nodes = (
"216 0 LINE",
"216 376 LINE",
"242 410 OFFCURVE",
"274 432 OFFCURVE",
"312 432 CURVE SMOOTH",
"332 432 OFFCURVE",
"350 426 OFFCURVE",
"365 420 CURVE",
"365 582 LINE",
"358 584 OFFCURVE",
"350 585 OFFCURVE",
"340 585 CURVE SMOOTH",
"286 585 OFFCURVE",
"253 548 OFFCURVE",
"216 482 CURVE",
"216 578 LINE",
"53 578 LINE",
"53 0 LINE"
);
}
);
width = 383;
}
);
leftKerningGroup = n;
rightKerningGroup = r;
unicode = 0072;
userData = {
com.fontlab.hintData = {
hhints = (
{
position = 880;
width = 318;
}
);
vhints = (
{
position = 86;
width = 651;
}
);
};
com.typemytype.robofont.layerData = {
b = {
anchors = (
);
components = (
);
contours = (
);
lib = {
};
name = r;
unicodes = (
);
width = 549;
};
};
};
},
{
color = 3;
glyphname = s;
layers = (
{
anchors = (
{
name = bottom;
position = "{178, 0}";
},
{
name = top;
position = "{178, 578}";
}
);
layerId = "FCD7E481-103E-4A6C-AD70-01DA443B2AD0";
paths = (
{
closed = 1;
nodes = (
"274 -9 OFFCURVE",
"329 40 OFFCURVE",
"329 124 CURVE SMOOTH",
"329 207 OFFCURVE",
"275 254 OFFCURVE",
"224 299 CURVE SMOOTH",
"155 360 LINE SMOOTH",
"109 401 OFFCURVE",
"96 427 OFFCURVE",
"96 470 CURVE SMOOTH",
"96 521 OFFCURVE",
"130 547 OFFCURVE",
"181 547 CURVE SMOOTH",
"233 547 OFFCURVE",
"267 514 OFFCURVE",
"270 424 CURVE",
"309 436 LINE",
"306 528 OFFCURVE",
"264 587 OFFCURVE",
"178 587 CURVE SMOOTH",
"99 587 OFFCURVE",
"47 543 OFFCURVE",
"47 464 CURVE SMOOTH",
"47 406 OFFCURVE",
"72 366 OFFCURVE",
"130 317 CURVE SMOOTH",
"197 260 LINE SMOOTH",
"256 210 OFFCURVE",
"282 166 OFFCURVE",
"282 125 CURVE SMOOTH",
"282 65 OFFCURVE",
"248 31 OFFCURVE",
"190 31 CURVE SMOOTH",
"125 31 OFFCURVE",
"86 72 OFFCURVE",
"79 169 CURVE",
"34 156 LINE",
"42 54 OFFCURVE",
"97 -9 OFFCURVE",
"188 -9 CURVE SMOOTH"
);
}
);
width = 356;
},
{
associatedMasterId = "FCD7E481-103E-4A6C-AD70-01DA443B2AD0";
layerId = "7E0A1B02-F170-43EE-B8AC-0C70348D1842";
name = b;
width = 350;
},
{
anchors = (
{
name = bottom;
position = "{187, 0}";
},
{
name = top;
position = "{187, 578}";
}
);
layerId = "8AC5A1D3-32A8-4416-86FC-94176A419B8F";
paths = (
{
closed = 1;
nodes = (
"283 -8 OFFCURVE",
"348 41 OFFCURVE",
"348 140 CURVE SMOOTH",
"348 214 OFFCURVE",
"307 258 OFFCURVE",
"266 296 CURVE SMOOTH",
"164 390 LINE SMOOTH",
"143 409 OFFCURVE",
"135 428 OFFCURVE",
"135 448 CURVE SMOOTH",
"135 480 OFFCURVE",
"157 507 OFFCURVE",
"192 507 CURVE SMOOTH",
"240 507 OFFCURVE",
"258 467 OFFCURVE",
"266 407 CURVE",
"342 434 LINE",
"334 518 OFFCURVE",
"284 586 OFFCURVE",
"188 586 CURVE SMOOTH",
"98 586 OFFCURVE",
"39 535 OFFCURVE",
"39 444 CURVE SMOOTH",
"39 376 OFFCURVE",
"70 337 OFFCURVE",
"110 303 CURVE SMOOTH",
"209 218 LINE SMOOTH",
"242 190 OFFCURVE",
"256 165 OFFCURVE",
"256 132 CURVE SMOOTH",
"256 95 OFFCURVE",
"235 71 OFFCURVE",
"197 71 CURVE SMOOTH",
"148 71 OFFCURVE",
"124 107 OFFCURVE",
"114 181 CURVE",
"25 154 LINE",
"33 57 OFFCURVE",
"93 -8 OFFCURVE",
"188 -8 CURVE SMOOTH"
);
}
);
width = 374;
},
{
anchors = (
{
name = bottom;
position = "{212, 0}";
},
{
name = top;
position = "{212, 578}";
}
);
layerId = "F66B25F0-8957-42F3-9BF7-6C5DDCB0258B";
paths = (
{
closed = 1;
nodes = (
"321 -10 OFFCURVE",
"406 46 OFFCURVE",
"406 147 CURVE SMOOTH",
"406 221 OFFCURVE",
"352 269 OFFCURVE",
"302 311 CURVE SMOOTH",
"261 347 LINE SMOOTH",
"210 388 OFFCURVE",
"180 416 OFFCURVE",
"180 441 CURVE SMOOTH",
"180 461 OFFCURVE",
"193 474 OFFCURVE",
"215 474 CURVE SMOOTH",
"252 474 OFFCURVE",
"280 428 OFFCURVE",
"292 391 CURVE",
"399 439 LINE",
"372 534 OFFCURVE",
"307 588 OFFCURVE",
"211 588 CURVE SMOOTH",
"116 588 OFFCURVE",
"33 523 OFFCURVE",
"33 429 CURVE SMOOTH",
"33 357 OFFCURVE",
"71 315 OFFCURVE",
"132 263 CURVE SMOOTH",
"174 228 LINE SMOOTH",
"234 178 OFFCURVE",
"254 161 OFFCURVE",
"254 130 CURVE SMOOTH",
"254 111 OFFCURVE",
"241 100 OFFCURVE",
"216 100 CURVE SMOOTH",
"181 100 OFFCURVE",
"152 132 OFFCURVE",
"131 184 CURVE",
"20 135 LINE",
"62 32 OFFCURVE",
"128 -10 OFFCURVE",
"229 -10 CURVE SMOOTH"
);
}
);
width = 424;
}
);
leftKerningGroup = s;
rightKerningGroup = s;
unicode = 0073;
userData = {
com.fontlab.hintData = {
hhints = (
{
position = -22;
width = 249;
}
);
vhints = (
{
position = 496;
width = 353;
}
);
};
com.typemytype.robofont.layerData = {
b = {
anchors = (
);
components = (
);
contours = (
);
lib = {
};
name = s;
unicodes = (
);
width = 716;
};
};
};
},
{
glyphname = germandbls;
layers = (
{
layerId = "FCD7E481-103E-4A6C-AD70-01DA443B2AD0";
paths = (
{
closed = 1;
nodes = (
"392 -11 OFFCURVE",
"438 121 OFFCURVE",
"438 240 CURVE SMOOTH",
"438 336 OFFCURVE",
"405 432 OFFCURVE",
"299 456 CURVE",
"365 477 OFFCURVE",
"396 538 OFFCURVE",
"396 634 CURVE SMOOTH",
"396 766 OFFCURVE",
"331 829 OFFCURVE",
"229 829 CURVE SMOOTH",
"122 829 OFFCURVE",
"64 782 OFFCURVE",
"64 610 CURVE SMOOTH",
"64 0 LINE",
"117 0 LINE",
"117 611 LINE SMOOTH",
"117 760 OFFCURVE",
"159 787 OFFCURVE",
"230 787 CURVE SMOOTH",
"311 787 OFFCURVE",
"344 734 OFFCURVE",
"344 634 CURVE SMOOTH",
"344 548 OFFCURVE",
"318 475 OFFCURVE",
"229 475 CURVE",
"227 430 LINE",
"351 430 OFFCURVE",
"386 334 OFFCURVE",
"386 237 CURVE SMOOTH",
"386 144 OFFCURVE",
"354 34 OFFCURVE",
"170 34 CURVE",
"170 -11 LINE"
);
}
);
width = 484;
},
{
associatedMasterId = "FCD7E481-103E-4A6C-AD70-01DA443B2AD0";
layerId = "251A47F6-4F16-47CF-AC2C-C63A23189F56";
name = b;
width = 472;
},
{
layerId = "8AC5A1D3-32A8-4416-86FC-94176A419B8F";
paths = (
{
closed = 1;
nodes = (
"391 -9 OFFCURVE",
"459 79 OFFCURVE",
"459 232 CURVE SMOOTH",
"459 333 OFFCURVE",
"413 406 OFFCURVE",
"330 428 CURVE",
"395 462 OFFCURVE",
"429 516 OFFCURVE",
"429 611 CURVE SMOOTH",
"429 745 OFFCURVE",
"367 819 OFFCURVE",
"241 819 CURVE SMOOTH",
"120 819 OFFCURVE",
"59 738 OFFCURVE",
"59 612 CURVE SMOOTH",
"59 0 LINE",
"166 0 LINE",
"166 613 LINE SMOOTH",
"166 687 OFFCURVE",
"181 731 OFFCURVE",
"244 731 CURVE SMOOTH",
"310 731 OFFCURVE",
"324 680 OFFCURVE",
"324 611 CURVE SMOOTH",
"324 538 OFFCURVE",
"303 464 OFFCURVE",
"231 464 CURVE",
"231 375 LINE",
"315 375 OFFCURVE",
"353 316 OFFCURVE",
"353 232 CURVE SMOOTH",
"353 135 OFFCURVE",
"331 80 OFFCURVE",
"223 80 CURVE",
"223 -9 LINE"
);
}
);
width = 515;
},
{
layerId = "F66B25F0-8957-42F3-9BF7-6C5DDCB0258B";
paths = (
{
closed = 1;
nodes = (
"420 -15 OFFCURVE",
"518 49 OFFCURVE",
"518 210 CURVE SMOOTH",
"518 328 OFFCURVE",
"464 401 OFFCURVE",
"355 430 CURVE",
"440 464 OFFCURVE",
"473 526 OFFCURVE",
"473 604 CURVE SMOOTH",
"473 741 OFFCURVE",
"407 822 OFFCURVE",
"256 822 CURVE SMOOTH",
"101 822 OFFCURVE",
"46 711 OFFCURVE",
"46 598 CURVE SMOOTH",
"46 0 LINE",
"209 0 LINE",
"209 598 LINE SMOOTH",
"209 665 OFFCURVE",
"220 709 OFFCURVE",
"270 709 CURVE SMOOTH",
"317 709 OFFCURVE",
"335 669 OFFCURVE",
"335 601 CURVE SMOOTH",
"335 520 OFFCURVE",
"310 476 OFFCURVE",
"263 476 CURVE",
"263 352 LINE",
"324 352 OFFCURVE",
"355 306 OFFCURVE",
"355 230 CURVE SMOOTH",
"355 140 OFFCURVE",
"323 109 OFFCURVE",
"254 109 CURVE",
"254 -15 LINE"
);
}
);
width = 542;
}
);
unicode = 00DF;
userData = {
com.fontlab.hintData = {
hhints = (
{
position = 1437;
width = 249;
}
);
vhints = (
{
position = 694;
width = 306;
}
);
};
com.typemytype.robofont.layerData = {
b = {
anchors = (
);
components = (
);
contours = (
);
lib = {
};
name = germandbls;
unicodes = (
);
width = 967;
};
};
};
},
{
color = 4;
glyphname = longs;
layers = (
{
layerId = "FCD7E481-103E-4A6C-AD70-01DA443B2AD0";
paths = (
{
closed = 1;
nodes = (
"148 0 LINE",
"148 657 LINE SMOOTH",
"148 720 OFFCURVE",
"155 746 OFFCURVE",
"200 746 CURVE SMOOTH",
"212 746 OFFCURVE",
"229 744 OFFCURVE",
"242 740 CURVE",
"242 780 LINE",
"226 785 OFFCURVE",
"206 787 OFFCURVE",
"189 787 CURVE SMOOTH",
"102 787 OFFCURVE",
"95 729 OFFCURVE",
"95 656 CURVE SMOOTH",
"95 578 LINE",
"17 578 LINE",
"17 541 LINE",
"95 541 LINE",
"95 0 LINE"
);
}
);
width = 253;
},
{
layerId = "8AC5A1D3-32A8-4416-86FC-94176A419B8F";
paths = (
{
closed = 1;
nodes = (
"195 0 LINE",
"195 626 LINE SMOOTH",
"195 671 OFFCURVE",
"201 701 OFFCURVE",
"243 701 CURVE SMOOTH",
"255 701 OFFCURVE",
"271 699 OFFCURVE",
"283 696 CURVE",
"283 774 LINE",
"258 779 OFFCURVE",
"240 781 OFFCURVE",
"213 781 CURVE SMOOTH",
"104 781 OFFCURVE",
"88 715 OFFCURVE",
"88 608 CURVE SMOOTH",
"88 578 LINE",
"19 578 LINE",
"19 499 LINE",
"88 499 LINE",
"88 0 LINE"
);
}
);
width = 287;
},
{
layerId = "F66B25F0-8957-42F3-9BF7-6C5DDCB0258B";
paths = (
{
closed = 1;
nodes = (
"235 0 LINE",
"235 624 LINE SMOOTH",
"235 656 OFFCURVE",
"249 669 OFFCURVE",
"273 669 CURVE SMOOTH",
"285 669 OFFCURVE",
"299 666 OFFCURVE",
"308 664 CURVE",
"308 785 LINE",
"279 789 OFFCURVE",
"255 790 OFFCURVE",
"230 790 CURVE SMOOTH",
"90 790 OFFCURVE",
"72 723 OFFCURVE",
"72 621 CURVE SMOOTH",
"72 578 LINE",
"17 578 LINE",
"17 468 LINE",
"72 468 LINE",
"72 0 LINE"
);
}
);
width = 320;
}
);
leftKerningGroup = f;
rightKerningGroup = f;
unicode = 017F;
},
